<svg width="18" height="15" viewBox="0 0 18 15" fill="none" xmlns="http://www.w3.org/2000/svg">
<path d="M17.8802 0.73C17.6674 0.28 17.2168 0 16.7045 0H1.29562C0.783317 0 0.332723 0.28 0.119317 0.73C-0.0921603 1.17625 -0.0188825 1.68625 0.310225 2.06L6.42893 8.98188V14.375C6.42893 14.6056 6.55941 14.8175 6.76832 14.9263C6.86345 14.9756 6.96758 15 7.07171 15C7.19641 15 7.32047 14.9644 7.42846 14.895L11.2852 12.395C11.4639 12.2788 11.5712 12.0837 11.5712 11.875V8.98188L17.6899 2.06063C18.019 1.68625 18.0923 1.17625 17.8802 0.73Z" fill="#383838"/>
</svg>
