<svg version="1.1" preserveAspectRatio="none" xmlns="http://www.w3.org/2000/svg" viewBox="251.25 327.03 521.51 113.94" width="100">
<g transform="translate(0)" stroke-miterlimit="2" stroke-width="0" style="font-variant-ligatures:none">
<path transform="translate(251.25 327.03) scale(1.55) translate(-365.15 56.232)" d="m365.15-37.944v34.272c0 1.152 0.288 2.016 1.008 2.664 0.72 0.72 1.512 1.008 2.52 1.008 1.152 0 2.088-0.288 2.808-1.008 0.648-0.648 1.008-1.512 1.008-2.664v-28.08h7.344c1.008 0 1.8-0.288 2.448-0.864 0.576-0.576 0.936-1.296 0.936-2.16 0-0.936-0.36-1.728-0.936-2.304-0.648-0.576-1.44-0.864-2.448-0.864h-7.344v-1.944c0-2.88 0.792-5.256 2.448-7.056 1.584-1.728 3.744-2.664 6.48-2.664 1.008 0 1.872-0.288 2.592-0.936 0.72-0.576 1.08-1.368 1.08-2.376 0-0.936-0.36-1.728-1.08-2.376-0.72-0.576-1.584-0.936-2.592-0.936-3.24 0-6.048 0.72-8.496 2.16s-4.392 3.384-5.76 5.976-2.016 5.544-2.016 8.928z" fill="#3c4e54" stroke="#3c4e54" style="font-variant-ligatures:none"></path>
<path transform="translate(296.65 352.7) scale(1.55) translate(-387.44 39.672)" d="m417.46-37.08c-3.024-1.728-6.408-2.592-10.152-2.592-3.888 0-7.272 0.864-10.296 2.592s-5.4 4.032-7.056 7.056c-1.728 3.024-2.52 6.48-2.52 10.368s0.792 7.272 2.52 10.296c1.656 3.024 4.032 5.4 7.056 7.128s6.408 2.52 10.296 2.52c3.816 0 7.2-0.792 10.224-2.52s5.328-4.104 7.056-7.128c1.656-3.024 2.52-6.408 2.52-10.296s-0.864-7.344-2.592-10.368-4.032-5.328-7.056-7.056zm-16.776 5.616c1.944-1.152 4.176-1.728 6.624-1.728s4.608 0.576 6.552 1.728 3.456 2.808 4.536 4.824c1.08 2.088 1.656 4.392 1.656 6.984s-0.576 4.968-1.656 6.984-2.592 3.6-4.536 4.752-4.104 1.728-6.552 1.728-4.68-0.576-6.624-1.728-3.456-2.736-4.536-4.752c-1.152-2.016-1.656-4.392-1.656-6.984s0.504-4.896 1.656-6.984c1.08-2.016 2.592-3.672 4.536-4.824z" fill="#4a94ac" stroke="#4a94ac" style="font-variant-ligatures:none"></path>
<path transform="translate(382.92 352.7) scale(1.55) translate(-436.1 39.672)" d="m466.12-37.08c-3.024-1.728-6.408-2.592-10.152-2.592-3.888 0-7.272 0.864-10.296 2.592s-5.4 4.032-7.056 7.056c-1.728 3.024-2.52 6.48-2.52 10.368s0.792 7.272 2.52 10.296c1.656 3.024 4.032 5.4 7.056 7.128s6.408 2.52 10.296 2.52c3.816 0 7.2-0.792 10.224-2.52s5.328-4.104 7.056-7.128c1.656-3.024 2.52-6.408 2.52-10.296s-0.864-7.344-2.592-10.368-4.032-5.328-7.056-7.056zm-16.776 5.616c1.944-1.152 4.176-1.728 6.624-1.728s4.608 0.576 6.552 1.728 3.456 2.808 4.536 4.824c1.08 2.088 1.656 4.392 1.656 6.984s-0.576 4.968-1.656 6.984-2.592 3.6-4.536 4.752-4.104 1.728-6.552 1.728-4.68-0.576-6.624-1.728-3.456-2.736-4.536-4.752c-1.152-2.016-1.656-4.392-1.656-6.984s0.504-4.896 1.656-6.984c1.08-2.016 2.592-3.672 4.536-4.824z" fill="#4b9bb5" stroke="#4b9bb5" style="font-variant-ligatures:none"></path>
<path transform="translate(469.08 327.03) scale(1.55) translate(-484.68 56.232)" d="m484.68-19.728c0 3.816 0.864 7.2 2.592 10.224s4.176 5.472 7.2 7.2 6.408 2.592 10.08 2.592h16.344c1.008 0 1.8-0.288 2.448-0.936 0.72-0.72 1.008-1.512 1.008-2.448v-49.464c0-1.08-0.288-1.944-1.008-2.664-0.648-0.648-1.512-1.008-2.664-1.008-1.008 0-1.872 0.36-2.592 1.008-0.72 0.72-1.08 1.584-1.08 2.664v19.44c-1.656-2.016-3.672-3.6-6.12-4.824-2.376-1.152-4.968-1.728-7.776-1.728-3.456 0-6.552 0.864-9.36 2.592-2.808 1.8-5.04 4.176-6.624 7.2s-2.448 6.48-2.448 10.152zm7.056 0c0-2.52 0.576-4.824 1.728-6.84s2.664-3.672 4.608-4.824 4.104-1.8 6.48-1.8c2.448 0 4.608 0.648 6.552 1.8s3.456 2.808 4.536 4.824c1.152 2.016 1.656 4.32 1.656 6.84 0 2.592-0.504 4.896-1.656 6.912-1.08 2.088-2.592 3.744-4.536 4.896s-4.104 1.728-6.552 1.728c-2.376 0-4.536-0.576-6.48-1.728s-3.456-2.808-4.608-4.896c-1.152-2.016-1.728-4.32-1.728-6.912z" fill="#4da3bf" stroke="#4da3bf" style="font-variant-ligatures:none"></path>
<path transform="translate(552.7 353.14) scale(1.55) translate(-531.63 39.384)" d="m569.72-36.216c0-1.296-0.792-2.232-2.232-2.808-0.576-0.216-1.152-0.36-1.728-0.36-1.296 0-2.232 0.72-2.808 2.088l-11.592 26.136-13.176-26.208c-0.72-1.296-1.728-2.016-3.024-2.016-0.576 0-1.008 0.144-1.44 0.288-0.648 0.288-1.152 0.72-1.512 1.224-0.432 0.576-0.576 1.152-0.576 1.728s0.072 1.08 0.36 1.512l16.2 30.744-7.2 16.2c-0.288 0.576-0.432 1.152-0.432 1.728 0 1.296 0.72 2.232 2.16 2.808 0.648 0.288 1.224 0.432 1.728 0.432 1.296 0 2.232-0.72 2.808-2.232l22.032-49.536c0.288-0.648 0.432-1.224 0.432-1.728z" fill="#4eaac8" stroke="#4eaac8" style="font-variant-ligatures:none"></path>
<path transform="translate(627.34 352.7) scale(1.55) translate(-572.78 39.672)" d="m602.81-37.08c-3.024-1.728-6.408-2.592-10.152-2.592-3.888 0-7.272 0.864-10.296 2.592s-5.4 4.032-7.056 7.056c-1.728 3.024-2.52 6.48-2.52 10.368s0.792 7.272 2.52 10.296c1.656 3.024 4.032 5.4 7.056 7.128s6.408 2.52 10.296 2.52c3.816 0 7.2-0.792 10.224-2.52s5.328-4.104 7.056-7.128c1.656-3.024 2.52-6.408 2.52-10.296s-0.864-7.344-2.592-10.368-4.032-5.328-7.056-7.056zm-16.776 5.616c1.944-1.152 4.176-1.728 6.624-1.728s4.608 0.576 6.552 1.728 3.456 2.808 4.536 4.824c1.08 2.088 1.656 4.392 1.656 6.984s-0.576 4.968-1.656 6.984-2.592 3.6-4.536 4.752-4.104 1.728-6.552 1.728-4.68-0.576-6.624-1.728-3.456-2.736-4.536-4.752c-1.152-2.016-1.656-4.392-1.656-6.984s0.504-4.896 1.656-6.984c1.08-2.016 2.592-3.672 4.536-4.824z" fill="#50b2d2" stroke="#50b2d2" style="font-variant-ligatures:none"></path>
<path transform="translate(715.5 353.03) scale(1.55) translate(-622.66 39.456)" d="m659.6-3.672v-32.112c0-1.08-0.36-1.944-1.008-2.664-0.72-0.648-1.584-1.008-2.664-1.008s-1.944 0.36-2.664 1.008c-0.72 0.72-1.008 1.584-1.008 2.664v20.304c0 1.8-0.504 3.312-1.44 4.68-0.936 1.44-2.232 2.52-3.888 3.312-1.656 0.864-3.528 1.224-5.472 1.224-3.528 0-6.264-0.936-8.352-2.952s-3.096-4.968-3.096-8.856v-17.712c0-1.008-0.36-1.872-1.08-2.592s-1.584-1.08-2.592-1.08c-1.08 0-1.944 0.36-2.664 1.08s-1.008 1.584-1.008 2.592v17.712c0 3.96 0.72 7.272 2.232 10.008 1.44 2.736 3.528 4.896 6.192 6.264 2.52 1.44 5.256 2.16 8.28 2.232h16.848c0.936 0 1.728-0.36 2.376-1.008s1.008-1.44 1.008-2.448z" fill="#51b9db" stroke="#51b9db" style="font-variant-ligatures:none"></path>
</g>
</svg>