<svg width="18" height="17" viewBox="0 0 18 17" fill="none" xmlns="http://www.w3.org/2000/svg">
<path d="M6.53847 13.0769C5.24528 13.0769 3.98114 12.6935 2.90589 11.975C1.83065 11.2565 0.992595 10.2354 0.497714 9.04063C0.00283301 7.84588 -0.12665 6.53121 0.125638 5.26288C0.377926 3.99454 1.00065 2.8295 1.91507 1.91507C2.8295 1.00065 3.99454 0.377926 5.26288 0.125638C6.53121 -0.12665 7.84588 0.00283301 9.04063 0.497714C10.2354 0.992595 11.2565 1.83065 11.975 2.90589C12.6935 3.98114 13.0769 5.24528 13.0769 6.53847C13.0769 7.39711 12.9078 8.24735 12.5792 9.04063C12.2506 9.83391 11.769 10.5547 11.1619 11.1619C10.5547 11.769 9.83391 12.2506 9.04063 12.5792C8.24735 12.9078 7.39711 13.0769 6.53847 13.0769ZM6.53847 1.3077C5.50392 1.3077 4.4926 1.61448 3.63241 2.18924C2.77221 2.764 2.10177 3.58094 1.70586 4.53674C1.30996 5.49254 1.20637 6.54427 1.4082 7.55894C1.61003 8.57361 2.10822 9.50565 2.83975 10.2372C3.57129 10.9687 4.50332 11.4669 5.51799 11.6687C6.53267 11.8706 7.5844 11.767 8.5402 11.3711C9.496 10.9752 10.3129 10.3047 10.8877 9.44453C11.4625 8.58433 11.7692 7.57302 11.7692 6.53847C11.7692 5.15118 11.2181 3.82071 10.2372 2.83975C9.25622 1.85879 7.92575 1.3077 6.53847 1.3077Z"/>
<path d="M16.3462 17C16.2601 17.0005 16.1748 16.984 16.0951 16.9515C16.0155 16.9189 15.943 16.871 15.8819 16.8104L10.6512 11.5796C10.5902 11.5187 10.5418 11.4463 10.5088 11.3666C10.4758 11.287 10.4589 11.2016 10.4589 11.1154C10.4589 11.0292 10.4758 10.9438 10.5088 10.8641C10.5418 10.7845 10.5902 10.7121 10.6512 10.6512C10.7121 10.5902 10.7845 10.5418 10.8641 10.5088C10.9438 10.4758 11.0292 10.4589 11.1154 10.4589C11.2016 10.4589 11.287 10.4758 11.3666 10.5088C11.4463 10.5418 11.5187 10.5902 11.5796 10.6512L16.8104 15.8819C16.8717 15.9427 16.9203 16.015 16.9535 16.0947C16.9867 16.1744 17.0038 16.2598 17.0038 16.3462C17.0038 16.4325 16.9867 16.5179 16.9535 16.5976C16.9203 16.6773 16.8717 16.7496 16.8104 16.8104C16.7493 16.871 16.6768 16.9189 16.5972 16.9515C16.5175 16.984 16.4322 17.0005 16.3462 17Z"/>
</svg>
