<?xml version="1.0" standalone="no"?>
<!DOCTYPE svg PUBLIC "-//W3C//DTD SVG 20010904//EN"
 "http://www.w3.org/TR/2001/REC-SVG-20010904/DTD/svg10.dtd">
<svg version="1.0" xmlns="http://www.w3.org/2000/svg"
 width="300.000000pt" height="86.000000pt" viewBox="0 0 300.000000 86.000000"
 preserveAspectRatio="xMidYMid meet">

<g transform="translate(0.000000,86.000000) scale(0.100000,-0.100000)"
fill="#000000" stroke="none">
<path d="M1508 853 c-10 -2 -18 -8 -18 -13 0 -4 -8 -7 -17 -6 -10 0 -17 -5
-15 -12 1 -8 -1 -11 -6 -8 -5 3 -20 -7 -33 -22 -13 -15 -18 -22 -10 -15 7 6
20 9 27 6 20 -7 66 6 59 17 -3 5 0 7 8 4 10 -4 16 4 19 25 3 17 4 30 4 30 -1
-1 -9 -3 -18 -6z"/>
<path d="M1273 804 c-18 -9 -40 -27 -49 -42 l-16 -25 32 7 c18 3 41 6 50 6 20
0 80 46 80 61 0 15 -62 10 -97 -7z"/>
<path d="M1600 795 c0 -8 -5 -15 -11 -15 -5 0 -7 5 -3 11 3 6 -8 4 -24 -5 -17
-9 -33 -20 -37 -25 -9 -16 15 -23 32 -9 14 11 16 11 9 -1 -7 -10 -2 -12 25 -6
66 14 95 39 67 56 -22 14 -58 10 -58 -6z"/>
<path d="M1330 712 c-48 -27 -50 -42 -3 -42 34 0 102 27 128 51 18 17 -90 9
-125 -9z"/>
<path d="M1143 687 c-32 -12 -70 -53 -60 -64 10 -10 102 18 127 38 14 12 20
18 14 15 -7 -3 -17 1 -24 9 -14 17 -14 17 -57 2z"/>
<path d="M1844 684 c0 -9 -5 -19 -13 -22 -10 -3 -12 0 -8 12 8 19 -6 21 -22 3
-15 -19 -4 -27 42 -27 33 0 37 2 28 14 -10 11 -8 16 8 21 24 7 44 -2 36 -16
-4 -5 2 -6 11 -2 11 4 13 8 6 11 -7 2 -10 8 -6 13 3 5 -15 9 -39 9 -35 0 -44
-3 -43 -16z"/>
<path d="M1466 675 c-58 -20 -68 -35 -24 -35 48 0 88 16 88 35 0 18 -13 18
-64 0z"/>
<path d="M1612 654 c-12 -8 -20 -20 -17 -25 10 -14 82 -11 123 7 33 14 35 17
17 24 -33 14 -99 11 -123 -6z"/>
<path d="M1928 633 c-32 -8 -19 -21 28 -28 29 -4 57 -2 76 6 30 12 30 13 8 21
-16 6 -26 5 -32 -4 -6 -10 -8 -10 -8 0 0 12 -36 15 -72 5z"/>
<path d="M1215 615 c-16 -7 -25 -14 -20 -14 6 -1 3 -6 -5 -11 -11 -7 1 -10 40
-9 30 0 49 3 43 6 -18 7 -16 33 3 33 8 0 12 -5 9 -10 -3 -6 1 -13 9 -16 18 -7
49 14 40 27 -8 14 -85 10 -119 -6z m100 -5 c3 -5 -1 -10 -10 -10 -9 0 -13 5
-10 10 3 6 8 10 10 10 2 0 7 -4 10 -10z"/>
<path d="M1730 588 l-25 -10 30 -14 c33 -15 59 -17 93 -8 23 7 31 26 10 23
-31 -4 -40 4 -13 11 26 7 23 8 -20 8 -27 0 -61 -4 -75 -10z"/>
<path d="M1500 586 c0 -2 7 -6 15 -10 8 -3 15 -1 15 4 0 6 -7 10 -15 10 -8 0
-15 -2 -15 -4z"/>
<path d="M1000 555 l-33 -24 29 -11 c43 -17 142 -3 140 18 -3 44 -85 55 -136
17z"/>
<path d="M1415 570 c3 -5 -4 -11 -17 -11 -13 -1 1 -5 31 -10 30 -5 60 -7 65
-5 6 2 1 5 -11 5 -13 1 -23 7 -23 16 0 8 -5 15 -11 15 -5 0 -7 -6 -3 -12 6
-10 4 -10 -7 0 -16 14 -33 16 -24 2z"/>
<path d="M1958 563 c7 -3 16 -2 19 1 4 3 -2 6 -13 5 -11 0 -14 -3 -6 -6z"/>
<path d="M1906 551 c-4 -5 2 -9 11 -9 10 0 26 -3 36 -7 10 -4 17 -3 17 4 0 6
-6 11 -14 11 -8 0 -21 3 -29 6 -8 3 -18 1 -21 -5z"/>
<path d="M1988 543 c7 -3 16 -2 19 1 4 3 -2 6 -13 5 -11 0 -14 -3 -6 -6z"/>
<path d="M1220 529 c-24 -10 -24 -11 -6 -25 11 -8 40 -14 65 -13 25 0 40 3 34
6 -22 8 -14 26 8 20 15 -4 19 -3 12 4 -16 16 -84 20 -113 8z m25 -19 c3 -5 1
-10 -4 -10 -6 0 -11 5 -11 10 0 6 2 10 4 10 3 0 8 -4 11 -10z"/>
<path d="M1633 516 c4 -9 -1 -17 -11 -19 -10 -3 -5 -5 11 -6 15 0 27 4 27 10
0 5 5 7 10 4 6 -4 8 -11 5 -16 -4 -5 -2 -9 4 -9 6 0 15 9 20 19 12 21 -2 31
-46 31 -18 0 -24 -4 -20 -14z"/>
<path d="M1805 506 l-29 -12 46 -13 c67 -19 118 2 69 29 -25 13 -49 12 -86 -4z"/>
<path d="M1340 500 c-9 -6 -10 -10 -3 -10 6 0 15 5 18 10 8 12 4 12 -15 0z"/>
<path d="M1715 500 c-3 -5 3 -10 15 -10 12 0 18 5 15 10 -3 6 -10 10 -15 10
-5 0 -12 -4 -15 -10z"/>
<path d="M1430 490 c0 -13 41 -39 79 -50 23 -6 35 -5 46 6 8 9 20 12 26 8 7
-4 9 -3 6 3 -20 32 -157 60 -157 33z"/>
<path d="M1113 472 c-27 -17 27 -52 81 -52 20 0 36 5 36 11 0 5 6 7 13 3 8 -6
8 -3 -2 9 -21 27 -102 45 -128 29z"/>
<path d="M1300 440 c0 -17 77 -50 116 -50 35 0 36 1 20 18 -27 31 -136 56
-136 32z"/>
<path d="M1664 431 c4 -5 27 -16 53 -25 88 -30 156 -13 78 20 -38 15 -140 20
-131 5z"/>
<path d="M1553 386 c0 -8 6 -12 15 -8 10 3 13 1 8 -6 -6 -11 5 -17 27 -13 4 0
7 -3 7 -9 0 -5 5 -10 11 -10 5 0 7 6 3 13 -6 9 -5 9 7 1 11 -9 17 -9 27 2 11
12 8 17 -22 29 -45 19 -83 19 -83 1z m67 -6 c8 -5 11 -10 5 -10 -5 0 -17 5
-25 10 -8 5 -10 10 -5 10 6 0 17 -5 25 -10z"/>
<path d="M1265 366 c11 -8 23 -12 27 -10 16 10 48 12 48 3 0 -5 -10 -9 -22 -9
-22 -1 -22 -1 -4 -12 15 -9 22 -7 33 8 11 15 11 19 -3 27 -10 6 -25 5 -40 -2
-15 -6 -25 -7 -29 -1 -4 6 -11 10 -18 10 -6 0 -2 -6 8 -14z"/>
<path d="M1468 327 c31 -33 71 -49 113 -45 l34 3 -40 27 c-22 15 -60 30 -85
34 l-45 7 23 -26z"/>
<path d="M47 233 c-4 -3 -7 -49 -7 -101 0 -85 -2 -94 -20 -99 -28 -7 -25 -33
3 -33 46 0 57 27 57 138 0 78 -3 102 -13 102 -8 0 -17 -3 -20 -7z"/>
<path d="M200 168 c0 -79 4 -89 37 -107 34 -17 62 -13 88 14 22 21 25 33 25
95 0 63 -2 70 -20 70 -18 0 -20 -7 -20 -70 0 -57 -3 -71 -19 -79 -33 -18 -50
7 -53 79 -2 52 -6 65 -20 68 -16 3 -18 -5 -18 -70z"/>
<path d="M464 227 c-3 -8 -4 -49 -2 -93 l3 -79 55 0 c42 0 55 3 55 15 0 10
-12 16 -37 18 l-38 3 0 75 c0 60 -3 74 -15 74 -9 0 -18 -6 -21 -13z"/>
<path d="M682 148 c2 -75 6 -93 18 -93 12 0 16 18 18 93 3 87 2 92 -18 92 -20
0 -21 -5 -18 -92z"/>
<path d="M875 228 c-2 -7 -16 -45 -30 -84 -14 -39 -25 -76 -25 -81 0 -20 32
-9 41 14 13 34 65 32 81 -2 11 -24 32 -33 41 -17 3 4 -9 45 -27 92 -25 68 -36
86 -54 88 -12 2 -24 -3 -27 -10z m44 -80 c1 -12 -6 -18 -19 -18 -17 0 -19 4
-14 28 4 15 9 31 12 36 6 11 20 -20 21 -46z"/>
<path d="M1251 223 c-45 -38 -45 -122 1 -156 31 -23 98 -17 98 10 0 12 -7 14
-29 10 -41 -9 -65 13 -65 58 0 43 26 69 61 60 25 -6 42 13 22 26 -23 14 -65
10 -88 -8z"/>
<path d="M1460 145 l0 -96 52 3 c41 2 54 7 56 20 3 14 -4 18 -32 18 l-35 0 -3
72 c-2 60 -6 73 -20 76 -16 3 -18 -7 -18 -93z"/>
<path d="M1691 223 c-27 -22 -38 -83 -21 -122 22 -55 112 -66 145 -18 24 35
19 104 -10 132 -29 30 -83 33 -114 8z m80 -23 c14 -8 19 -21 19 -48 0 -41 -7
-56 -31 -64 -47 -18 -79 63 -42 104 19 21 27 22 54 8z"/>
<path d="M1920 220 c0 -15 7 -20 25 -20 24 0 25 -2 25 -74 0 -65 2 -74 18 -72
14 3 17 14 17 75 0 67 1 71 23 71 15 0 22 6 22 20 0 18 -7 20 -65 20 -58 0
-65 -2 -65 -20z"/>
<path d="M2154 227 c-3 -8 -4 -49 -2 -92 3 -65 6 -79 21 -81 14 -2 17 5 17 37
0 39 0 39 39 39 38 0 38 -1 38 -37 -1 -27 3 -37 16 -39 15 -2 17 9 17 93 0 84
-2 94 -17 91 -13 -2 -17 -12 -17 -36 1 -31 0 -32 -37 -32 -38 0 -39 1 -39 35
0 25 -4 35 -15 35 -9 0 -18 -6 -21 -13z"/>
<path d="M2422 148 c2 -75 6 -93 18 -93 12 0 16 18 18 93 3 87 2 92 -18 92
-20 0 -21 -5 -18 -92z"/>
<path d="M2580 145 c0 -76 3 -95 15 -95 11 0 15 16 17 68 l3 67 39 -68 c31
-55 43 -67 60 -65 19 3 21 10 24 96 3 85 1 93 -15 90 -15 -3 -18 -14 -18 -66
0 -70 -2 -69 -53 20 -20 35 -33 48 -49 48 -22 0 -23 -3 -23 -95z"/>
<path d="M2895 228 c-33 -19 -44 -41 -45 -83 0 -71 47 -106 120 -90 28 6 30 9
30 56 l0 49 -35 0 c-28 0 -35 -4 -35 -20 0 -11 7 -20 15 -20 17 0 20 -26 5
-35 -6 -4 -22 1 -35 9 -54 35 -15 130 46 111 24 -8 46 14 26 27 -18 11 -69 9
-92 -4z"/>
</g>
</svg>
