<svg height="24" role="img" width="24" viewBox="0 0 24 24" aria-labelledby="connect" class="Icon-sc-1ure639-0 gItpfC"><title id="connect">Connect to Devices</title><path d="M1,4.5 L1,16.5 C1,17.05 1.45,17.5 2,17.5 L8.999,17.5 L8.999,16.5 L2,16.5 L2,4.5 L8.999,4.5 L8.999,3.5 L2,3.5 C1.45,3.5 1,3.95 1,4.5 Z M4.999,20 C4.999,20.275 5.224,20.5 5.499,20.5 L8.999,20.5 L8.999,19.5 L5.499,19.5 C5.224,19.5 4.999,19.725 4.999,20 Z M22,3.5 L13,3.5 C12.45,3.5 12,3.95 12,4.5 L12,19.5 C12,20.05 12.45,20.5 13,20.5 L22,20.5 C22.55,20.5 23,20.05 23,19.5 L23,4.5 C23,3.95 22.55,3.5 22,3.5 Z M13.016,19.5 L13,4.516 L21.984,4.516 L22,19.484 L13.016,19.5 Z M17.5,11.5 C15.843,11.5 14.5,12.843 14.5,14.5 C14.5,16.157 15.843,17.5 17.5,17.5 C19.157,17.5 20.5,16.157 20.5,14.5 C20.5,12.843 19.157,11.5 17.5,11.5 Z M17.5,16.5 C16.397,16.5 15.5,15.603 15.5,14.5 C15.5,13.397 16.397,12.5 17.5,12.5 C18.603,12.5 19.5,13.397 19.5,14.5 C19.5,15.603 18.603,16.5 17.5,16.5 Z M17.5,8.5 C18.052,8.5 18.5,8.052 18.5,7.5 C18.5,6.948 18.052,6.5 17.5,6.5 C16.948,6.5 16.5,6.948 16.5,7.5 C16.5,8.053 16.948,8.5 17.5,8.5 Z" fill="currentColor" fill-rule="evenodd"></path><path fill="none" d="M0 0h24v24H0z"></path></svg>