<?xml version="1.0" encoding="UTF-8"?>
<svg width="24" height="24" viewBox="0 0 512 512" xmlns="http://www.w3.org/2000/svg">
<path d="m357.08 341.33l94.476 110.73-32.508 27.683-94.222-110.48q-45.714 30.476-100.83 30.476-36.826 0-70.476-14.349t-57.905-38.603-38.603-57.905-14.349-70.476 14.349-70.476 38.603-57.905 57.905-38.603 70.476-14.349 70.476 14.349 57.905 38.603 38.603 57.905 14.349 70.476q0 23.365-5.841 45.714t-16.635 41.651-25.778 35.555zm-133.08 15.745q28.19 0 53.841-11.048t44.19-29.587 29.587-44.19 11.048-53.841-11.048-53.841-29.587-44.191-44.19-29.587-53.841-11.047-53.841 11.047-44.191 29.588-29.587 44.19-11.047 53.841 11.047 53.841 29.588 44.19 44.19 29.587 53.841 11.048z" fill="currentColor"/>
</svg>
