<svg width="94" height="99" viewBox="0 0 94 99" fill="none" xmlns="http://www.w3.org/2000/svg">
<path d="M24.1494 35.3311C26.3089 33.1716 36.7964 40.1575 47.5738 50.9349C58.3512 61.7123 65.3371 72.1998 63.1776 74.3593" stroke="#3E3C3F" stroke-width="3" stroke-linecap="round" stroke-linejoin="round"/>
<path d="M36.5053 53.866C43.946 38.9989 34.371 2.03996 7.3017 9.50205C7.1743 9.53721 7.04721 9.57146 6.92041 9.60541M44.2696 63.651C44.7759 63.26 45.2869 62.8753 45.8026 62.4969C55.1654 55.6363 78.9456 55.9088 81.7604 74.8247M58.506 5.17203C58.3258 9.2746 51.2747 9.63245 51.4315 13.9186C51.592 18.3078 58.988 18.0374 59.1484 22.4266C59.3089 26.8158 51.9126 27.086 52.073 31.4752C52.0784 31.6218 52.092 31.7627 52.113 31.8988M83.0932 29.3181C80.1135 32.144 74.7928 27.5033 71.9285 30.6955C68.9947 33.9642 74.5029 38.9072 71.5691 42.1763C68.6357 45.4451 63.1275 40.5015 60.1941 43.7703C60.0961 43.8793 60.0078 43.9902 59.9284 44.1026" stroke="#705776" stroke-width="3" stroke-linecap="round" stroke-linejoin="round"/>
<path d="M81.2147 90.8525L76.6188 93.6414M63.1774 74.3593C61.018 76.5187 50.5308 69.5326 39.7534 58.7552C28.9759 47.9777 21.9898 37.4905 24.1492 35.3311L23.7619 36.3617L2.14034 93.6562C1.50095 95.3505 3.15802 97.0076 4.85235 96.3682L62.1468 74.7466L63.1774 74.3593V74.3593ZM38.3078 5.67711L40.4946 2L38.3078 5.67711Z" stroke="#3E3C3F" stroke-width="3" stroke-linecap="round" stroke-linejoin="round"/>
<path d="M89.8132 72.6133L92 68.9362M4.39355 54.094L7.41865 51.0689" stroke="#705776" stroke-width="3" stroke-linecap="round" stroke-linejoin="round"/>
<path d="M86.361 9.73822L83.3359 6.71312" stroke="#3E3C3F" stroke-width="3" stroke-linecap="round" stroke-linejoin="round"/>
<path d="M49.0462 93.6513L47.5024 89.6618" stroke="#705776" stroke-width="3" stroke-linecap="round" stroke-linejoin="round"/>
<path d="M10.2163 25.2702L13.4589 28.0604M85.54 48.8728L84.3808 44.7552" stroke="#3E3C3F" stroke-width="3" stroke-linecap="round" stroke-linejoin="round"/>
</svg>
