<svg width="24" height="24" viewBox="0 0 24 24" fill="none" xmlns="http://www.w3.org/2000/svg">
<path d="M16.8896 0.832662L23.1674 7.11041C24.2775 8.22063 24.2775 10.0206 23.1674 11.1309L12.1979 22.0987L19.9025 22.099C20.3823 22.099 20.7788 22.4554 20.8416 22.918L20.8501 23.0466C20.8501 23.5264 20.4937 23.9229 20.0311 23.9855L19.9025 23.9942L9.27648 23.9958C8.4979 24.0382 7.70518 23.7621 7.11042 23.1674L0.832662 16.8896C-0.277554 15.7794 -0.277554 13.9793 0.832662 12.8692L12.8692 0.832662C13.9793 -0.277554 15.7795 -0.277554 16.8896 0.832662ZM4.0508 12.3293L2.17281 14.2093C1.80274 14.5794 1.80274 15.1794 2.17281 15.5495L8.45057 21.8272C8.63561 22.0123 8.87813 22.1048 9.12064 22.1048L9.15714 22.099L9.20577 22.101C9.41918 22.0818 9.62732 21.9906 9.79069 21.8272L11.6685 19.9482L4.0508 12.3293ZM14.2093 2.17281L5.39137 10.9887L13.0091 18.6077L21.8272 9.79071C22.1973 9.42064 22.1973 8.82063 21.8272 8.45056L15.5495 2.17281C15.1794 1.80273 14.5794 1.80273 14.2093 2.17281Z" fill="#3E3C3F"/>
</svg>
