<svg width="414" height="413" viewBox="0 0 414 413" fill="none" xmlns="http://www.w3.org/2000/svg">
<rect x="7.49219" y="4.37108" width="34.8721" height="34.8721" rx="4.75" stroke="#D5D5D5" stroke-width="0.5"/>
<path d="M26.4178 11.4002C26.6231 11.4189 26.7911 11.5122 26.9218 11.6802C27.0711 11.8295 27.1458 12.0162 27.1458 12.2402V30.1602C27.1458 30.4029 27.0524 30.6082 26.8658 30.7762C26.6978 30.9255 26.4831 31.0002 26.2218 31.0002C25.9791 31.0002 25.7738 30.9255 25.6058 30.7762C25.4378 30.6082 25.3538 30.4029 25.3538 30.1602V13.7802L21.8538 15.8522C21.7231 15.9269 21.5924 15.9642 21.4618 15.9642C21.2191 15.9642 21.0044 15.8709 20.8178 15.6842C20.6498 15.4975 20.5658 15.2922 20.5658 15.0682C20.5658 14.9375 20.6031 14.8069 20.6778 14.6762C20.7711 14.5455 20.8831 14.4429 21.0138 14.3682L25.7458 11.5122C25.9324 11.4002 26.1564 11.3629 26.4178 11.4002Z" fill="#3E3C3F"/>
<rect x="51.187" y="4.37108" width="34.8721" height="34.8721" rx="4.75" stroke="#D4D4D4" stroke-width="0.5"/>
<path d="M74.804 29.3762C75.028 29.3762 75.2147 29.4602 75.364 29.6282C75.532 29.7775 75.616 29.9642 75.616 30.1882C75.616 30.4309 75.532 30.6269 75.364 30.7762C75.2147 30.9255 75.028 31.0002 74.804 31.0002H64.304C64.0427 31.0002 63.828 30.9255 63.66 30.7762C63.492 30.6269 63.408 30.4215 63.408 30.1602C63.408 29.9549 63.4827 29.7589 63.632 29.5722L70.1 22.4322C71.1453 21.3122 71.92 20.3135 72.424 19.4362C72.928 18.5402 73.18 17.6629 73.18 16.8042C73.18 15.5349 72.7973 14.5362 72.032 13.8082C71.2667 13.0802 70.2027 12.7162 68.84 12.7162C67.9253 12.7162 67.104 12.9402 66.376 13.3882C65.6667 13.8175 65.1347 14.4802 64.78 15.3762C64.5747 15.7122 64.332 15.8802 64.052 15.8802C63.8467 15.8802 63.6507 15.8055 63.464 15.6562C63.2773 15.5069 63.184 15.3389 63.184 15.1522C63.184 15.0402 63.2213 14.9095 63.296 14.7602C63.3707 14.6109 63.464 14.4615 63.576 14.3122C64.0613 13.3042 64.7893 12.5202 65.76 11.9602C66.7307 11.4002 67.7947 11.1202 68.952 11.1202C70.8373 11.1202 72.312 11.6335 73.376 12.6602C74.44 13.6869 74.972 15.0309 74.972 16.6922C74.972 17.7189 74.692 18.7735 74.132 19.8562C73.572 20.9202 72.648 22.1615 71.36 23.5802L66.208 29.3762H74.804Z" fill="#3E3C3F"/>
<rect x="94.8821" y="4.37108" width="34.8721" height="34.8721" rx="4.75" stroke="#D5D5D5" stroke-width="0.5"/>
<path d="M112.112 18.5962C113.157 18.5962 114.128 18.8389 115.024 19.3242C115.939 19.8095 116.667 20.5189 117.208 21.4522C117.768 22.3855 118.048 23.4869 118.048 24.7562C118.048 26.0255 117.74 27.1549 117.124 28.1442C116.527 29.1335 115.705 29.9082 114.66 30.4682C113.615 31.0095 112.457 31.2802 111.188 31.2802C110.385 31.2802 109.611 31.1495 108.864 30.8882C108.117 30.6269 107.483 30.2349 106.96 29.7122C106.699 29.5255 106.568 29.3015 106.568 29.0402C106.568 28.8162 106.652 28.6109 106.82 28.4242C106.988 28.2189 107.184 28.1162 107.408 28.1162C107.632 28.1162 107.865 28.2189 108.108 28.4242C108.892 29.2642 109.975 29.6842 111.356 29.6842C112.252 29.6842 113.083 29.4789 113.848 29.0682C114.613 28.6575 115.22 28.0789 115.668 27.3322C116.116 26.5855 116.34 25.7455 116.34 24.8122C116.34 23.7855 116.107 22.9269 115.64 22.2362C115.192 21.5455 114.595 21.0415 113.848 20.7242C113.12 20.3882 112.345 20.2202 111.524 20.2202C111.3 20.2202 111.011 20.2575 110.656 20.3322C110.301 20.3882 110.077 20.4162 109.984 20.4162C109.76 20.4162 109.573 20.3415 109.424 20.1922C109.293 20.0242 109.228 19.8189 109.228 19.5762C109.228 19.3335 109.321 19.1189 109.508 18.9322L114.856 12.9962H107.072C106.848 12.9962 106.652 12.9215 106.484 12.7722C106.335 12.6229 106.26 12.4269 106.26 12.1842C106.26 11.9602 106.335 11.7735 106.484 11.6242C106.652 11.4749 106.848 11.4002 107.072 11.4002H116.48C116.779 11.4002 116.993 11.4935 117.124 11.6802C117.273 11.8482 117.348 12.0442 117.348 12.2682C117.348 12.4922 117.255 12.6975 117.068 12.8842L111.944 18.5962H112.112Z" fill="#3E3C3F"/>
<rect x="7.49219" y="48.066" width="34.8721" height="34.8721" rx="4.75" stroke="#D5D5D5" stroke-width="0.5"/>
<path d="M30.58 67.0791C30.804 67.0791 30.9907 67.1538 31.14 67.3031C31.308 67.4525 31.392 67.6391 31.392 67.8631C31.392 68.0871 31.308 68.2738 31.14 68.4231C30.9907 68.5725 30.804 68.6471 30.58 68.6471H28.704V73.8551C28.704 74.0978 28.62 74.3031 28.452 74.4711C28.284 74.6205 28.0787 74.6951 27.836 74.6951C27.5933 74.6951 27.3973 74.6205 27.248 74.4711C27.0987 74.3031 27.024 74.0978 27.024 73.8551V68.6471H18.792C18.568 68.6471 18.372 68.5631 18.204 68.3951C18.036 68.2085 17.952 68.0031 17.952 67.7791C17.952 67.5551 18.0173 67.3685 18.148 67.2191L27.164 55.4311C27.3133 55.2071 27.5467 55.0951 27.864 55.0951C28.1067 55.0951 28.3027 55.1791 28.452 55.3471C28.62 55.4965 28.704 55.6925 28.704 55.9351V67.0791H30.58ZM27.024 67.0791V58.1191L20.248 67.0791H27.024Z" fill="#3E3C3F"/>
<rect x="51.187" y="48.066" width="34.8721" height="34.8721" rx="4.75" stroke="#D5D5D5" stroke-width="0.5"/>
<rect x="94.8821" y="48.066" width="34.8721" height="34.8721" rx="4.75" stroke="#D5D5D5" stroke-width="0.5"/>
<path d="M112.084 61.98C113.279 61.98 114.352 62.2507 115.304 62.792C116.275 63.3147 117.031 64.0613 117.572 65.032C118.132 65.984 118.412 67.0573 118.412 68.252C118.412 69.5587 118.104 70.7347 117.488 71.78C116.891 72.8067 116.051 73.6093 114.968 74.188C113.885 74.7667 112.653 75.056 111.272 75.056C110.488 75.056 109.704 74.9253 108.92 74.664C108.155 74.4027 107.483 74.0293 106.904 73.544C106.792 73.4693 106.699 73.3667 106.624 73.236C106.568 73.0867 106.54 72.9467 106.54 72.816C106.54 72.6293 106.615 72.452 106.764 72.284C106.932 72.0973 107.128 72.004 107.352 72.004C107.557 72.004 107.763 72.088 107.968 72.256C108.453 72.6293 108.976 72.9187 109.536 73.124C110.115 73.3293 110.693 73.432 111.272 73.432C112.336 73.432 113.279 73.2173 114.1 72.788C114.94 72.3587 115.584 71.752 116.032 70.968C116.499 70.184 116.732 69.2973 116.732 68.308C116.732 66.8893 116.275 65.7507 115.36 64.892C114.445 64.0147 113.223 63.576 111.692 63.576C111.113 63.576 110.572 63.66 110.068 63.828C109.583 63.996 109.032 64.22 108.416 64.5C107.968 64.724 107.679 64.836 107.548 64.836C107.268 64.836 107.035 64.752 106.848 64.584C106.68 64.3973 106.596 64.1827 106.596 63.94C106.596 63.8467 106.605 63.772 106.624 63.716L107.828 56.1C107.865 55.9133 107.959 55.7547 108.108 55.624C108.276 55.4747 108.472 55.4 108.696 55.4H117.124C117.348 55.4 117.535 55.484 117.684 55.652C117.852 55.8013 117.936 55.9973 117.936 56.24C117.936 56.464 117.852 56.66 117.684 56.828C117.535 56.9773 117.348 57.052 117.124 57.052H109.284L108.332 62.848C108.817 62.6053 109.387 62.4 110.04 62.232C110.712 62.064 111.393 61.98 112.084 61.98Z" fill="#3E3C3F"/>
<rect x="7.49219" y="91.761" width="34.8721" height="34.8721" rx="4.75" stroke="#D5D5D5" stroke-width="0.5"/>
<path d="M25.316 105.986C26.4173 105.986 27.4067 106.285 28.284 106.882C29.18 107.479 29.8707 108.273 30.356 109.262C30.86 110.251 31.112 111.297 31.112 112.398C31.112 113.499 30.8413 114.535 30.3 115.506C29.7773 116.458 29.0493 117.223 28.116 117.802C27.1827 118.381 26.1373 118.67 24.98 118.67C23.58 118.67 22.3947 118.343 21.424 117.69C20.4533 117.037 19.7253 116.178 19.24 115.114C18.7733 114.05 18.54 112.902 18.54 111.67C18.54 110.083 18.876 108.385 19.548 106.574C20.22 104.745 21.2 103.074 22.488 101.562C23.776 100.031 25.3067 98.9301 27.08 98.2581C27.2293 98.2207 27.3507 98.2021 27.444 98.2021C27.6867 98.2021 27.892 98.2767 28.06 98.4261C28.228 98.5754 28.312 98.7901 28.312 99.0701C28.312 99.4621 28.088 99.7327 27.64 99.8821C26.1467 100.498 24.7373 101.59 23.412 103.158C22.1053 104.707 21.2093 106.359 20.724 108.114C21.284 107.461 21.956 106.947 22.74 106.574C23.5427 106.182 24.4013 105.986 25.316 105.986ZM24.924 117.046C26.2307 117.046 27.304 116.617 28.144 115.758C28.984 114.881 29.404 113.761 29.404 112.398C29.404 111.558 29.2267 110.774 28.872 110.046C28.536 109.318 28.0413 108.73 27.388 108.282C26.7347 107.834 25.96 107.61 25.064 107.61C24.0933 107.61 23.244 107.834 22.516 108.282C21.788 108.711 21.228 109.299 20.836 110.046C20.444 110.774 20.248 111.586 20.248 112.482C20.248 113.303 20.4347 114.059 20.808 114.75C21.1813 115.441 21.7227 116.001 22.432 116.43C23.1413 116.841 23.972 117.046 24.924 117.046Z" fill="#3E3C3F"/>
<rect x="51.187" y="91.761" width="34.8721" height="34.8721" rx="4.75" stroke="#D5D5D5" stroke-width="0.5"/>
<path d="M73.796 98.7901C74.0573 98.7901 74.2533 98.8647 74.384 99.0141C74.5333 99.1634 74.608 99.3501 74.608 99.5741C74.608 99.6674 74.58 99.7981 74.524 99.9661L66.824 117.914C66.7493 118.082 66.6373 118.222 66.488 118.334C66.3387 118.427 66.18 118.474 66.012 118.474C65.788 118.474 65.5827 118.399 65.396 118.25C65.228 118.101 65.144 117.914 65.144 117.69C65.144 117.541 65.172 117.401 65.228 117.27L72.48 100.386H63.492C63.268 100.386 63.072 100.311 62.904 100.162C62.7547 100.013 62.68 99.8167 62.68 99.5741C62.68 99.3501 62.7547 99.1634 62.904 99.0141C63.072 98.8647 63.268 98.7901 63.492 98.7901H73.796Z" fill="#3E3C3F"/>
<rect x="94.8821" y="91.761" width="34.8721" height="34.8721" rx="4.75" stroke="#D5D5D5" stroke-width="0.5"/>
<rect x="146.9" y="4.37108" width="34.8721" height="34.8721" rx="4.75" stroke="#D5D5D5" stroke-width="0.5"/>
<path d="M166.752 21.0322C167.685 21.4802 168.441 22.1242 169.02 22.9642C169.617 23.7855 169.916 24.7189 169.916 25.7642C169.916 26.7535 169.645 27.6682 169.104 28.5082C168.581 29.3482 167.853 30.0109 166.92 30.4962C166.005 30.9815 164.997 31.2242 163.896 31.2242C162.795 31.2242 161.787 30.9815 160.872 30.4962C159.957 30.0109 159.229 29.3482 158.688 28.5082C158.165 27.6682 157.904 26.7535 157.904 25.7642C157.904 24.6815 158.193 23.7389 158.772 22.9362C159.351 22.1335 160.088 21.5082 160.984 21.0602C160.237 20.6682 159.612 20.0895 159.108 19.3242C158.604 18.5402 158.352 17.6722 158.352 16.7202C158.352 15.7309 158.595 14.8349 159.08 14.0322C159.584 13.2109 160.256 12.5669 161.096 12.1002C161.955 11.6335 162.888 11.4002 163.896 11.4002C164.904 11.4002 165.828 11.6335 166.668 12.1002C167.527 12.5669 168.199 13.2109 168.684 14.0322C169.169 14.8349 169.412 15.7309 169.412 16.7202C169.412 17.6909 169.151 18.5495 168.628 19.2962C168.124 20.0429 167.499 20.6215 166.752 21.0322ZM163.896 12.9962C162.757 12.9962 161.833 13.3415 161.124 14.0322C160.415 14.7229 160.06 15.6189 160.06 16.7202C160.06 17.4482 160.237 18.1015 160.592 18.6802C160.947 19.2402 161.413 19.6789 161.992 19.9962C162.589 20.3135 163.224 20.4722 163.896 20.4722C164.568 20.4722 165.193 20.3135 165.772 19.9962C166.369 19.6789 166.836 19.2402 167.172 18.6802C167.527 18.1015 167.704 17.4482 167.704 16.7202C167.704 15.6189 167.349 14.7229 166.64 14.0322C165.931 13.3415 165.016 12.9962 163.896 12.9962ZM163.896 29.6002C165.165 29.6002 166.201 29.2455 167.004 28.5362C167.807 27.8082 168.208 26.8842 168.208 25.7642C168.208 25.0362 168.012 24.3735 167.62 23.7762C167.228 23.1789 166.696 22.7122 166.024 22.3762C165.371 22.0215 164.661 21.8442 163.896 21.8442C163.131 21.8442 162.421 22.0215 161.768 22.3762C161.115 22.7122 160.592 23.1789 160.2 23.7762C159.808 24.3735 159.612 25.0362 159.612 25.7642C159.612 26.8842 160.004 27.8082 160.788 28.5362C161.591 29.2455 162.627 29.6002 163.896 29.6002Z" fill="#3E3C3F"/>
<rect x="190.595" y="4.37108" width="34.8721" height="34.8721" rx="4.75" stroke="#D4D4D4" stroke-width="0.5"/>
<path d="M207.7 11.0922C209.081 11.0922 210.257 11.4189 211.228 12.0722C212.199 12.7255 212.917 13.5842 213.384 14.6482C213.869 15.7122 214.112 16.8602 214.112 18.0922C214.112 19.6602 213.776 21.3309 213.104 23.1042C212.451 24.8775 211.471 26.5015 210.164 27.9762C208.876 29.4509 207.345 30.5242 205.572 31.1962C205.423 31.2335 205.311 31.2522 205.236 31.2522C204.993 31.2522 204.779 31.1682 204.592 31.0002C204.424 30.8322 204.34 30.6269 204.34 30.3842C204.34 29.9922 204.564 29.7215 205.012 29.5722C206.543 28.9189 207.952 27.8735 209.24 26.4362C210.547 24.9802 211.433 23.4029 211.9 21.7042C211.359 22.3202 210.687 22.8149 209.884 23.1882C209.1 23.5429 208.251 23.7202 207.336 23.7202C206.235 23.7202 205.245 23.4309 204.368 22.8522C203.491 22.2549 202.8 21.4709 202.296 20.5002C201.792 19.5109 201.54 18.4655 201.54 17.3642C201.54 16.2629 201.801 15.2362 202.324 14.2842C202.865 13.3135 203.603 12.5389 204.536 11.9602C205.488 11.3815 206.543 11.0922 207.7 11.0922ZM207.616 22.0962C208.587 22.0962 209.436 21.8815 210.164 21.4522C210.892 21.0229 211.443 20.4442 211.816 19.7162C212.208 18.9695 212.404 18.1575 212.404 17.2802C212.404 16.4589 212.217 15.7029 211.844 15.0122C211.471 14.3215 210.929 13.7709 210.22 13.3602C209.511 12.9309 208.68 12.7162 207.728 12.7162C206.869 12.7162 206.104 12.9122 205.432 13.3042C204.76 13.6962 204.228 14.2469 203.836 14.9562C203.463 15.6655 203.276 16.4682 203.276 17.3642C203.276 18.2042 203.444 18.9882 203.78 19.7162C204.116 20.4255 204.611 21.0042 205.264 21.4522C205.917 21.8815 206.701 22.0962 207.616 22.0962Z" fill="#3E3C3F"/>
<rect x="234.29" y="4.37108" width="34.8721" height="34.8721" rx="4.75" stroke="#D5D5D5" stroke-width="0.5"/>
<path d="M252.992 11.4002C253.197 11.4189 253.365 11.5122 253.496 11.6802C253.645 11.8295 253.72 12.0162 253.72 12.2402V30.1602C253.72 30.4029 253.627 30.6082 253.44 30.7762C253.272 30.9255 253.057 31.0002 252.796 31.0002C252.553 31.0002 252.348 30.9255 252.18 30.7762C252.012 30.6082 251.928 30.4029 251.928 30.1602V13.7802L248.428 15.8522C248.297 15.9269 248.167 15.9642 248.036 15.9642C247.793 15.9642 247.579 15.8709 247.392 15.6842C247.224 15.4975 247.14 15.2922 247.14 15.0682C247.14 14.9375 247.177 14.8069 247.252 14.6762C247.345 14.5455 247.457 14.4429 247.588 14.3682L252.32 11.5122C252.507 11.4002 252.731 11.3629 252.992 11.4002Z" fill="#3E3C3F"/>
<rect x="146.9" y="48.066" width="34.8721" height="34.8721" rx="4.75" stroke="#D5D5D5" stroke-width="0.5"/>
<rect x="190.595" y="48.066" width="34.8721" height="34.8721" rx="4.75" stroke="#D5D5D5" stroke-width="0.5"/>
<rect x="234.29" y="48.066" width="34.8721" height="34.8721" rx="4.75" stroke="#D5D5D5" stroke-width="0.5"/>
<rect x="146.9" y="91.761" width="34.8721" height="34.8721" rx="4.75" stroke="#D5D5D5" stroke-width="0.5"/>
<path d="M165.825 98.7901C166.031 98.8087 166.199 98.9021 166.329 99.0701C166.479 99.2194 166.553 99.4061 166.553 99.6301V117.55C166.553 117.793 166.46 117.998 166.273 118.166C166.105 118.315 165.891 118.39 165.629 118.39C165.387 118.39 165.181 118.315 165.013 118.166C164.845 117.998 164.761 117.793 164.761 117.55V101.17L161.261 103.242C161.131 103.317 161 103.354 160.869 103.354C160.627 103.354 160.412 103.261 160.225 103.074C160.057 102.887 159.973 102.682 159.973 102.458C159.973 102.327 160.011 102.197 160.085 102.066C160.179 101.935 160.291 101.833 160.421 101.758L165.153 98.9021C165.34 98.7901 165.564 98.7527 165.825 98.7901Z" fill="#3E3C3F"/>
<rect x="190.595" y="91.761" width="34.8721" height="34.8721" rx="4.75" stroke="#D5D5D5" stroke-width="0.5"/>
<path d="M209.52 98.7901C209.726 98.8087 209.894 98.9021 210.024 99.0701C210.174 99.2194 210.248 99.4061 210.248 99.6301V117.55C210.248 117.793 210.155 117.998 209.968 118.166C209.8 118.315 209.586 118.39 209.324 118.39C209.082 118.39 208.876 118.315 208.708 118.166C208.54 117.998 208.456 117.793 208.456 117.55V101.17L204.956 103.242C204.826 103.317 204.695 103.354 204.564 103.354C204.322 103.354 204.107 103.261 203.92 103.074C203.752 102.887 203.668 102.682 203.668 102.458C203.668 102.327 203.706 102.197 203.78 102.066C203.874 101.935 203.986 101.833 204.116 101.758L208.848 98.9021C209.035 98.7901 209.259 98.7527 209.52 98.7901Z" fill="#3E3C3F"/>
<rect x="234.29" y="91.761" width="34.8721" height="34.8721" rx="4.75" stroke="#D5D5D5" stroke-width="0.5"/>
<rect x="286.25" y="4.25" width="34.8721" height="34.8721" rx="4.75" stroke="#D5D5D5" stroke-width="0.5"/>
<path d="M305.176 11.2791C305.381 11.2978 305.549 11.3911 305.68 11.5591C305.829 11.7085 305.904 11.8951 305.904 12.1191V30.0391C305.904 30.2818 305.81 30.4871 305.624 30.6551C305.456 30.8045 305.241 30.8791 304.98 30.8791C304.737 30.8791 304.532 30.8045 304.364 30.6551C304.196 30.4871 304.112 30.2818 304.112 30.0391V13.6591L300.612 15.7311C300.481 15.8058 300.35 15.8431 300.22 15.8431C299.977 15.8431 299.762 15.7498 299.576 15.5631C299.408 15.3765 299.324 15.1711 299.324 14.9471C299.324 14.8165 299.361 14.6858 299.436 14.5551C299.529 14.4245 299.641 14.3218 299.772 14.2471L304.504 11.3911C304.69 11.2791 304.914 11.2418 305.176 11.2791Z" fill="#3E3C3F"/>
<rect x="329.945" y="4.25" width="34.8721" height="34.8721" rx="4.75" stroke="#D4D4D4" stroke-width="0.5"/>
<path d="M348.87 11.2791C349.076 11.2978 349.244 11.3911 349.374 11.5591C349.524 11.7085 349.598 11.8951 349.598 12.1191V30.0391C349.598 30.2818 349.505 30.4871 349.318 30.6551C349.15 30.8045 348.936 30.8791 348.674 30.8791C348.432 30.8791 348.226 30.8045 348.058 30.6551C347.89 30.4871 347.806 30.2818 347.806 30.0391V13.6591L344.306 15.7311C344.176 15.8058 344.045 15.8431 343.914 15.8431C343.672 15.8431 343.457 15.7498 343.27 15.5631C343.102 15.3765 343.018 15.1711 343.018 14.9471C343.018 14.8165 343.056 14.6858 343.13 14.5551C343.224 14.4245 343.336 14.3218 343.466 14.2471L348.198 11.3911C348.385 11.2791 348.609 11.2418 348.87 11.2791Z" fill="#3E3C3F"/>
<rect x="373.64" y="4.25" width="34.8721" height="34.8721" rx="4.75" stroke="#D5D5D5" stroke-width="0.5"/>
<path d="M392.565 11.2791C392.771 11.2978 392.939 11.3911 393.069 11.5591C393.219 11.7085 393.293 11.8951 393.293 12.1191V30.0391C393.293 30.2818 393.2 30.4871 393.013 30.6551C392.845 30.8045 392.631 30.8791 392.369 30.8791C392.127 30.8791 391.921 30.8045 391.753 30.6551C391.585 30.4871 391.501 30.2818 391.501 30.0391V13.6591L388.001 15.7311C387.871 15.8058 387.74 15.8431 387.609 15.8431C387.367 15.8431 387.152 15.7498 386.965 15.5631C386.797 15.3765 386.713 15.1711 386.713 14.9471C386.713 14.8165 386.751 14.6858 386.825 14.5551C386.919 14.4245 387.031 14.3218 387.161 14.2471L391.893 11.3911C392.08 11.2791 392.304 11.2418 392.565 11.2791Z" fill="#3E3C3F"/>
<rect x="286.25" y="47.9449" width="34.8721" height="34.8721" rx="4.75" stroke="#D5D5D5" stroke-width="0.5"/>
<path d="M305.176 54.9741C305.381 54.9927 305.549 55.0861 305.68 55.2541C305.829 55.4034 305.904 55.5901 305.904 55.8141V73.7341C305.904 73.9767 305.81 74.1821 305.624 74.3501C305.456 74.4994 305.241 74.5741 304.98 74.5741C304.737 74.5741 304.532 74.4994 304.364 74.3501C304.196 74.1821 304.112 73.9767 304.112 73.7341V57.3541L300.612 59.4261C300.481 59.5007 300.35 59.5381 300.22 59.5381C299.977 59.5381 299.762 59.4447 299.576 59.2581C299.408 59.0714 299.324 58.8661 299.324 58.6421C299.324 58.5114 299.361 58.3807 299.436 58.2501C299.529 58.1194 299.641 58.0167 299.772 57.9421L304.504 55.0861C304.69 54.9741 304.914 54.9367 305.176 54.9741Z" fill="#3E3C3F"/>
<rect x="329.945" y="47.9449" width="34.8721" height="34.8721" rx="4.75" stroke="#D5D5D5" stroke-width="0.5"/>
<rect x="373.64" y="47.9449" width="34.8721" height="34.8721" rx="4.75" stroke="#D5D5D5" stroke-width="0.5"/>
<path d="M392.565 54.9741C392.771 54.9927 392.939 55.0861 393.069 55.2541C393.219 55.4034 393.293 55.5901 393.293 55.8141V73.7341C393.293 73.9767 393.2 74.1821 393.013 74.3501C392.845 74.4994 392.631 74.5741 392.369 74.5741C392.127 74.5741 391.921 74.4994 391.753 74.3501C391.585 74.1821 391.501 73.9767 391.501 73.7341V57.3541L388.001 59.4261C387.871 59.5007 387.74 59.5381 387.609 59.5381C387.367 59.5381 387.152 59.4447 386.965 59.2581C386.797 59.0714 386.713 58.8661 386.713 58.6421C386.713 58.5114 386.751 58.3807 386.825 58.2501C386.919 58.1194 387.031 58.0167 387.161 57.9421L391.893 55.0861C392.08 54.9741 392.304 54.9367 392.565 54.9741Z" fill="#3E3C3F"/>
<rect x="286.25" y="91.6399" width="34.8721" height="34.8721" rx="4.75" stroke="#D5D5D5" stroke-width="0.5"/>
<path d="M305.176 98.669C305.381 98.6877 305.549 98.781 305.68 98.949C305.829 99.0983 305.904 99.285 305.904 99.509V117.429C305.904 117.672 305.81 117.877 305.624 118.045C305.456 118.194 305.241 118.269 304.98 118.269C304.737 118.269 304.532 118.194 304.364 118.045C304.196 117.877 304.112 117.672 304.112 117.429V101.049L300.612 103.121C300.481 103.196 300.35 103.233 300.22 103.233C299.977 103.233 299.762 103.14 299.576 102.953C299.408 102.766 299.324 102.561 299.324 102.337C299.324 102.206 299.361 102.076 299.436 101.945C299.529 101.814 299.641 101.712 299.772 101.637L304.504 98.781C304.69 98.669 304.914 98.6317 305.176 98.669Z" fill="#3E3C3F"/>
<rect x="329.945" y="91.6399" width="34.8721" height="34.8721" rx="4.75" stroke="#D5D5D5" stroke-width="0.5"/>
<path d="M348.87 98.669C349.076 98.6877 349.244 98.781 349.374 98.949C349.524 99.0983 349.598 99.285 349.598 99.509V117.429C349.598 117.672 349.505 117.877 349.318 118.045C349.15 118.194 348.936 118.269 348.674 118.269C348.432 118.269 348.226 118.194 348.058 118.045C347.89 117.877 347.806 117.672 347.806 117.429V101.049L344.306 103.121C344.176 103.196 344.045 103.233 343.914 103.233C343.672 103.233 343.457 103.14 343.27 102.953C343.102 102.766 343.018 102.561 343.018 102.337C343.018 102.206 343.056 102.076 343.13 101.945C343.224 101.814 343.336 101.712 343.466 101.637L348.198 98.781C348.385 98.669 348.609 98.6317 348.87 98.669Z" fill="#3E3C3F"/>
<rect x="373.64" y="91.6399" width="34.8721" height="34.8721" rx="4.75" stroke="#D5D5D5" stroke-width="0.5"/>
<rect x="7.49219" y="145.859" width="34.8721" height="34.8721" rx="4.75" stroke="#D5D5D5" stroke-width="0.5"/>
<path d="M26.4178 152.889C26.6231 152.907 26.7911 153.001 26.9218 153.169C27.0711 153.318 27.1458 153.505 27.1458 153.729V171.649C27.1458 171.891 27.0524 172.097 26.8658 172.265C26.6978 172.414 26.4831 172.489 26.2218 172.489C25.9791 172.489 25.7738 172.414 25.6058 172.265C25.4378 172.097 25.3538 171.891 25.3538 171.649V155.269L21.8538 157.341C21.7231 157.415 21.5924 157.453 21.4618 157.453C21.2191 157.453 21.0044 157.359 20.8178 157.173C20.6498 156.986 20.5658 156.781 20.5658 156.557C20.5658 156.426 20.6031 156.295 20.6778 156.165C20.7711 156.034 20.8831 155.931 21.0138 155.857L25.7458 153.001C25.9324 152.889 26.1564 152.851 26.4178 152.889Z" fill="#3E3C3F"/>
<rect x="51.187" y="145.859" width="34.8721" height="34.8721" rx="4.75" stroke="#D4D4D4" stroke-width="0.5"/>
<path d="M70.1126 152.889C70.3179 152.907 70.4859 153.001 70.6166 153.169C70.7659 153.318 70.8406 153.505 70.8406 153.729V171.649C70.8406 171.891 70.7473 172.097 70.5606 172.265C70.3926 172.414 70.1779 172.489 69.9166 172.489C69.6739 172.489 69.4686 172.414 69.3006 172.265C69.1326 172.097 69.0486 171.891 69.0486 171.649V155.269L65.5486 157.341C65.4179 157.415 65.2873 157.453 65.1566 157.453C64.9139 157.453 64.6993 157.359 64.5126 157.173C64.3446 156.986 64.2606 156.781 64.2606 156.557C64.2606 156.426 64.2979 156.295 64.3726 156.165C64.4659 156.034 64.5779 155.931 64.7086 155.857L69.4406 153.001C69.6273 152.889 69.8513 152.851 70.1126 152.889Z" fill="#3E3C3F"/>
<rect x="94.8821" y="145.859" width="34.8721" height="34.8721" rx="4.75" stroke="#D5D5D5" stroke-width="0.5"/>
<rect x="7.49219" y="189.554" width="34.8721" height="34.8721" rx="4.75" stroke="#D5D5D5" stroke-width="0.5"/>
<rect x="51.187" y="189.554" width="34.8721" height="34.8721" rx="4.75" stroke="#D5D5D5" stroke-width="0.5"/>
<rect x="94.8821" y="189.554" width="34.8721" height="34.8721" rx="4.75" stroke="#D5D5D5" stroke-width="0.5"/>
<path d="M113.808 196.584C114.013 196.602 114.181 196.696 114.312 196.864C114.461 197.013 114.536 197.2 114.536 197.424V215.344C114.536 215.586 114.442 215.792 114.256 215.96C114.088 216.109 113.873 216.184 113.612 216.184C113.369 216.184 113.164 216.109 112.996 215.96C112.828 215.792 112.744 215.586 112.744 215.344V198.964L109.244 201.036C109.113 201.11 108.982 201.148 108.852 201.148C108.609 201.148 108.394 201.054 108.208 200.868C108.04 200.681 107.956 200.476 107.956 200.252C107.956 200.121 107.993 199.99 108.068 199.86C108.161 199.729 108.273 199.626 108.404 199.552L113.136 196.696C113.322 196.584 113.546 196.546 113.808 196.584Z" fill="#3E3C3F"/>
<rect x="7.49219" y="233.249" width="34.8721" height="34.8721" rx="4.75" stroke="#D5D5D5" stroke-width="0.5"/>
<path d="M26.4178 240.278C26.6231 240.297 26.7911 240.39 26.9218 240.558C27.0711 240.708 27.1458 240.894 27.1458 241.118V259.038C27.1458 259.281 27.0524 259.486 26.8658 259.654C26.6978 259.804 26.4831 259.878 26.2218 259.878C25.9791 259.878 25.7738 259.804 25.6058 259.654C25.4378 259.486 25.3538 259.281 25.3538 259.038V242.658L21.8538 244.73C21.7231 244.805 21.5924 244.842 21.4618 244.842C21.2191 244.842 21.0044 244.749 20.8178 244.562C20.6498 244.376 20.5658 244.17 20.5658 243.946C20.5658 243.816 20.6031 243.685 20.6778 243.554C20.7711 243.424 20.8831 243.321 21.0138 243.246L25.7458 240.39C25.9324 240.278 26.1564 240.241 26.4178 240.278Z" fill="#3E3C3F"/>
<rect x="51.187" y="233.249" width="34.8721" height="34.8721" rx="4.75" stroke="#D5D5D5" stroke-width="0.5"/>
<rect x="94.8821" y="233.249" width="34.8721" height="34.8721" rx="4.75" stroke="#D5D5D5" stroke-width="0.5"/>
<rect x="146.9" y="145.859" width="34.8721" height="34.8721" rx="4.75" stroke="#D5D5D5" stroke-width="0.5"/>
<rect x="190.595" y="145.859" width="34.8721" height="34.8721" rx="4.75" stroke="#D4D4D4" stroke-width="0.5"/>
<path d="M209.52 152.889C209.726 152.907 209.894 153.001 210.024 153.169C210.174 153.318 210.248 153.505 210.248 153.729V171.649C210.248 171.891 210.155 172.097 209.968 172.265C209.8 172.414 209.586 172.489 209.324 172.489C209.082 172.489 208.876 172.414 208.708 172.265C208.54 172.097 208.456 171.891 208.456 171.649V155.269L204.956 157.341C204.826 157.415 204.695 157.453 204.564 157.453C204.322 157.453 204.107 157.359 203.92 157.173C203.752 156.986 203.668 156.781 203.668 156.557C203.668 156.426 203.706 156.295 203.78 156.165C203.874 156.034 203.986 155.931 204.116 155.857L208.848 153.001C209.035 152.889 209.259 152.851 209.52 152.889Z" fill="#3E3C3F"/>
<rect x="234.29" y="145.859" width="34.8721" height="34.8721" rx="4.75" stroke="#D5D5D5" stroke-width="0.5"/>
<path d="M253.215 152.889C253.42 152.907 253.588 153.001 253.719 153.169C253.868 153.318 253.943 153.505 253.943 153.729V171.649C253.943 171.891 253.85 172.097 253.663 172.265C253.495 172.414 253.28 172.489 253.019 172.489C252.776 172.489 252.571 172.414 252.403 172.265C252.235 172.097 252.151 171.891 252.151 171.649V155.269L248.651 157.341C248.52 157.415 248.39 157.453 248.259 157.453C248.016 157.453 247.802 157.359 247.615 157.173C247.447 156.986 247.363 156.781 247.363 156.557C247.363 156.426 247.4 156.295 247.475 156.165C247.568 156.034 247.68 155.931 247.811 155.857L252.543 153.001C252.73 152.889 252.954 152.851 253.215 152.889Z" fill="#3E3C3F"/>
<rect x="146.9" y="189.554" width="34.8721" height="34.8721" rx="4.75" stroke="#D5D5D5" stroke-width="0.5"/>
<path d="M165.825 196.584C166.031 196.602 166.199 196.696 166.329 196.864C166.479 197.013 166.553 197.2 166.553 197.424V215.344C166.553 215.586 166.46 215.792 166.273 215.96C166.105 216.109 165.891 216.184 165.629 216.184C165.387 216.184 165.181 216.109 165.013 215.96C164.845 215.792 164.761 215.586 164.761 215.344V198.964L161.261 201.036C161.131 201.11 161 201.148 160.869 201.148C160.627 201.148 160.412 201.054 160.225 200.868C160.057 200.681 159.973 200.476 159.973 200.252C159.973 200.121 160.011 199.99 160.085 199.86C160.179 199.729 160.291 199.626 160.421 199.552L165.153 196.696C165.34 196.584 165.564 196.546 165.825 196.584Z" fill="#3E3C3F"/>
<rect x="190.595" y="189.554" width="34.8721" height="34.8721" rx="4.75" stroke="#D5D5D5" stroke-width="0.5"/>
<rect x="234.29" y="189.554" width="34.8721" height="34.8721" rx="4.75" stroke="#D5D5D5" stroke-width="0.5"/>
<rect x="146.9" y="233.249" width="34.8721" height="34.8721" rx="4.75" stroke="#D5D5D5" stroke-width="0.5"/>
<rect x="190.595" y="233.249" width="34.8721" height="34.8721" rx="4.75" stroke="#D5D5D5" stroke-width="0.5"/>
<path d="M209.52 240.278C209.726 240.297 209.894 240.39 210.024 240.558C210.174 240.708 210.248 240.894 210.248 241.118V259.038C210.248 259.281 210.155 259.486 209.968 259.654C209.8 259.804 209.586 259.878 209.324 259.878C209.082 259.878 208.876 259.804 208.708 259.654C208.54 259.486 208.456 259.281 208.456 259.038V242.658L204.956 244.73C204.826 244.805 204.695 244.842 204.564 244.842C204.322 244.842 204.107 244.749 203.92 244.562C203.752 244.376 203.668 244.17 203.668 243.946C203.668 243.816 203.706 243.685 203.78 243.554C203.874 243.424 203.986 243.321 204.116 243.246L208.848 240.39C209.035 240.278 209.259 240.241 209.52 240.278Z" fill="#3E3C3F"/>
<rect x="234.29" y="233.249" width="34.8721" height="34.8721" rx="4.75" stroke="#D5D5D5" stroke-width="0.5"/>
<rect x="286.308" y="145.859" width="34.8721" height="34.8721" rx="4.75" stroke="#D5D5D5" stroke-width="0.5"/>
<rect x="330.002" y="145.859" width="34.8721" height="34.8721" rx="4.75" stroke="#D4D4D4" stroke-width="0.5"/>
<path d="M348.928 152.889C349.133 152.907 349.301 153.001 349.432 153.169C349.581 153.318 349.656 153.505 349.656 153.729V171.649C349.656 171.891 349.563 172.097 349.376 172.265C349.208 172.414 348.993 172.489 348.732 172.489C348.489 172.489 348.284 172.414 348.116 172.265C347.948 172.097 347.864 171.891 347.864 171.649V155.269L344.364 157.341C344.233 157.415 344.103 157.453 343.972 157.453C343.729 157.453 343.515 157.359 343.328 157.173C343.16 156.986 343.076 156.781 343.076 156.557C343.076 156.426 343.113 156.295 343.188 156.165C343.281 156.034 343.393 155.931 343.524 155.857L348.256 153.001C348.443 152.889 348.667 152.851 348.928 152.889Z" fill="#3E3C3F"/>
<rect x="373.697" y="145.859" width="34.8721" height="34.8721" rx="4.75" stroke="#D5D5D5" stroke-width="0.5"/>
<path d="M392.623 152.889C392.828 152.907 392.996 153.001 393.127 153.169C393.276 153.318 393.351 153.505 393.351 153.729V171.649C393.351 171.891 393.258 172.097 393.071 172.265C392.903 172.414 392.688 172.489 392.427 172.489C392.184 172.489 391.979 172.414 391.811 172.265C391.643 172.097 391.559 171.891 391.559 171.649V155.269L388.059 157.341C387.928 157.415 387.798 157.453 387.667 157.453C387.424 157.453 387.21 157.359 387.023 157.173C386.855 156.986 386.771 156.781 386.771 156.557C386.771 156.426 386.808 156.295 386.883 156.165C386.976 156.034 387.088 155.931 387.219 155.857L391.951 153.001C392.138 152.889 392.362 152.851 392.623 152.889Z" fill="#3E3C3F"/>
<rect x="286.308" y="189.554" width="34.8721" height="34.8721" rx="4.75" stroke="#D5D5D5" stroke-width="0.5"/>
<rect x="330.002" y="189.554" width="34.8721" height="34.8721" rx="4.75" stroke="#D5D5D5" stroke-width="0.5"/>
<rect x="373.697" y="189.554" width="34.8721" height="34.8721" rx="4.75" stroke="#D5D5D5" stroke-width="0.5"/>
<rect x="286.308" y="233.249" width="34.8721" height="34.8721" rx="4.75" stroke="#D5D5D5" stroke-width="0.5"/>
<path d="M305.233 240.278C305.439 240.297 305.607 240.39 305.737 240.558C305.887 240.708 305.961 240.894 305.961 241.118V259.038C305.961 259.281 305.868 259.486 305.681 259.654C305.513 259.804 305.299 259.878 305.037 259.878C304.795 259.878 304.589 259.804 304.421 259.654C304.253 259.486 304.169 259.281 304.169 259.038V242.658L300.669 244.73C300.539 244.805 300.408 244.842 300.277 244.842C300.035 244.842 299.82 244.749 299.633 244.562C299.465 244.376 299.381 244.17 299.381 243.946C299.381 243.816 299.419 243.685 299.493 243.554C299.587 243.424 299.699 243.321 299.829 243.246L304.561 240.39C304.748 240.278 304.972 240.241 305.233 240.278Z" fill="#3E3C3F"/>
<rect x="330.002" y="233.249" width="34.8721" height="34.8721" rx="4.75" stroke="#D5D5D5" stroke-width="0.5"/>
<rect x="373.697" y="233.249" width="34.8721" height="34.8721" rx="4.75" stroke="#D5D5D5" stroke-width="0.5"/>
<rect x="7.49219" y="285.267" width="34.8721" height="34.8721" rx="4.75" stroke="#D5D5D5" stroke-width="0.5"/>
<path d="M26.4178 292.296C26.6231 292.315 26.7911 292.408 26.9218 292.576C27.0711 292.726 27.1458 292.912 27.1458 293.136V311.056C27.1458 311.299 27.0524 311.504 26.8658 311.672C26.6978 311.822 26.4831 311.896 26.2218 311.896C25.9791 311.896 25.7738 311.822 25.6058 311.672C25.4378 311.504 25.3538 311.299 25.3538 311.056V294.676L21.8538 296.748C21.7231 296.823 21.5924 296.86 21.4618 296.86C21.2191 296.86 21.0044 296.767 20.8178 296.58C20.6498 296.394 20.5658 296.188 20.5658 295.964C20.5658 295.834 20.6031 295.703 20.6778 295.572C20.7711 295.442 20.8831 295.339 21.0138 295.264L25.7458 292.408C25.9324 292.296 26.1564 292.259 26.4178 292.296Z" fill="#3E3C3F"/>
<rect x="51.187" y="285.267" width="34.8721" height="34.8721" rx="4.75" stroke="#D4D4D4" stroke-width="0.5"/>
<path d="M70.1126 292.296C70.3179 292.315 70.4859 292.408 70.6166 292.576C70.7659 292.726 70.8406 292.912 70.8406 293.136V311.056C70.8406 311.299 70.7473 311.504 70.5606 311.672C70.3926 311.822 70.1779 311.896 69.9166 311.896C69.6739 311.896 69.4686 311.822 69.3006 311.672C69.1326 311.504 69.0486 311.299 69.0486 311.056V294.676L65.5486 296.748C65.4179 296.823 65.2873 296.86 65.1566 296.86C64.9139 296.86 64.6993 296.767 64.5126 296.58C64.3446 296.394 64.2606 296.188 64.2606 295.964C64.2606 295.834 64.2979 295.703 64.3726 295.572C64.4659 295.442 64.5779 295.339 64.7086 295.264L69.4406 292.408C69.6273 292.296 69.8513 292.259 70.1126 292.296Z" fill="#3E3C3F"/>
<rect x="94.8821" y="285.267" width="34.8721" height="34.8721" rx="4.75" stroke="#D5D5D5" stroke-width="0.5"/>
<rect x="7.49219" y="328.962" width="34.8721" height="34.8721" rx="4.75" stroke="#D5D5D5" stroke-width="0.5"/>
<rect x="51.187" y="328.962" width="34.8721" height="34.8721" rx="4.75" stroke="#D5D5D5" stroke-width="0.5"/>
<rect x="94.8821" y="328.962" width="34.8721" height="34.8721" rx="4.75" stroke="#D5D5D5" stroke-width="0.5"/>
<path d="M113.808 335.991C114.013 336.01 114.181 336.103 114.312 336.271C114.461 336.421 114.536 336.607 114.536 336.831V354.751C114.536 354.994 114.442 355.199 114.256 355.367C114.088 355.517 113.873 355.591 113.612 355.591C113.369 355.591 113.164 355.517 112.996 355.367C112.828 355.199 112.744 354.994 112.744 354.751V338.371L109.244 340.443C109.113 340.518 108.982 340.555 108.852 340.555C108.609 340.555 108.394 340.462 108.208 340.275C108.04 340.089 107.956 339.883 107.956 339.659C107.956 339.529 107.993 339.398 108.068 339.267C108.161 339.137 108.273 339.034 108.404 338.959L113.136 336.103C113.322 335.991 113.546 335.954 113.808 335.991Z" fill="#3E3C3F"/>
<rect x="7.49219" y="372.657" width="34.8721" height="34.8721" rx="4.75" stroke="#D5D5D5" stroke-width="0.5"/>
<path d="M26.4178 379.686C26.6231 379.705 26.7911 379.798 26.9218 379.966C27.0711 380.115 27.1458 380.302 27.1458 380.526V398.446C27.1458 398.689 27.0524 398.894 26.8658 399.062C26.6978 399.211 26.4831 399.286 26.2218 399.286C25.9791 399.286 25.7738 399.211 25.6058 399.062C25.4378 398.894 25.3538 398.689 25.3538 398.446V382.066L21.8538 384.138C21.7231 384.213 21.5924 384.25 21.4618 384.25C21.2191 384.25 21.0044 384.157 20.8178 383.97C20.6498 383.783 20.5658 383.578 20.5658 383.354C20.5658 383.223 20.6031 383.093 20.6778 382.962C20.7711 382.831 20.8831 382.729 21.0138 382.654L25.7458 379.798C25.9324 379.686 26.1564 379.649 26.4178 379.686Z" fill="#3E3C3F"/>
<rect x="51.187" y="372.657" width="34.8721" height="34.8721" rx="4.75" stroke="#D5D5D5" stroke-width="0.5"/>
<path d="M70.1126 379.686C70.3179 379.705 70.4859 379.798 70.6166 379.966C70.7659 380.115 70.8406 380.302 70.8406 380.526V398.446C70.8406 398.689 70.7473 398.894 70.5606 399.062C70.3926 399.211 70.1779 399.286 69.9166 399.286C69.6739 399.286 69.4686 399.211 69.3006 399.062C69.1326 398.894 69.0486 398.689 69.0486 398.446V382.066L65.5486 384.138C65.4179 384.213 65.2873 384.25 65.1566 384.25C64.9139 384.25 64.6993 384.157 64.5126 383.97C64.3446 383.783 64.2606 383.578 64.2606 383.354C64.2606 383.223 64.2979 383.093 64.3726 382.962C64.4659 382.831 64.5779 382.729 64.7086 382.654L69.4406 379.798C69.6273 379.686 69.8513 379.649 70.1126 379.686Z" fill="#3E3C3F"/>
<rect x="94.8821" y="372.657" width="34.8721" height="34.8721" rx="4.75" stroke="#D5D5D5" stroke-width="0.5"/>
<rect x="146.9" y="285.267" width="34.8721" height="34.8721" rx="4.75" stroke="#D5D5D5" stroke-width="0.5"/>
<rect x="190.595" y="285.267" width="34.8721" height="34.8721" rx="4.75" stroke="#D4D4D4" stroke-width="0.5"/>
<path d="M209.52 292.296C209.726 292.315 209.894 292.408 210.024 292.576C210.174 292.726 210.248 292.912 210.248 293.136V311.056C210.248 311.299 210.155 311.504 209.968 311.672C209.8 311.822 209.586 311.896 209.324 311.896C209.082 311.896 208.876 311.822 208.708 311.672C208.54 311.504 208.456 311.299 208.456 311.056V294.676L204.956 296.748C204.826 296.823 204.695 296.86 204.564 296.86C204.322 296.86 204.107 296.767 203.92 296.58C203.752 296.394 203.668 296.188 203.668 295.964C203.668 295.834 203.706 295.703 203.78 295.572C203.874 295.442 203.986 295.339 204.116 295.264L208.848 292.408C209.035 292.296 209.259 292.259 209.52 292.296Z" fill="#3E3C3F"/>
<rect x="234.29" y="285.267" width="34.8721" height="34.8721" rx="4.75" stroke="#D5D5D5" stroke-width="0.5"/>
<path d="M253.215 292.296C253.42 292.315 253.588 292.408 253.719 292.576C253.868 292.726 253.943 292.912 253.943 293.136V311.056C253.943 311.299 253.85 311.504 253.663 311.672C253.495 311.822 253.28 311.896 253.019 311.896C252.776 311.896 252.571 311.822 252.403 311.672C252.235 311.504 252.151 311.299 252.151 311.056V294.676L248.651 296.748C248.52 296.823 248.39 296.86 248.259 296.86C248.016 296.86 247.802 296.767 247.615 296.58C247.447 296.394 247.363 296.188 247.363 295.964C247.363 295.834 247.4 295.703 247.475 295.572C247.568 295.442 247.68 295.339 247.811 295.264L252.543 292.408C252.73 292.296 252.954 292.259 253.215 292.296Z" fill="#3E3C3F"/>
<rect x="146.9" y="328.962" width="34.8721" height="34.8721" rx="4.75" stroke="#D5D5D5" stroke-width="0.5"/>
<path d="M165.825 335.991C166.031 336.01 166.199 336.103 166.329 336.271C166.479 336.421 166.553 336.607 166.553 336.831V354.751C166.553 354.994 166.46 355.199 166.273 355.367C166.105 355.517 165.891 355.591 165.629 355.591C165.387 355.591 165.181 355.517 165.013 355.367C164.845 355.199 164.761 354.994 164.761 354.751V338.371L161.261 340.443C161.131 340.518 161 340.555 160.869 340.555C160.627 340.555 160.412 340.462 160.225 340.275C160.057 340.089 159.973 339.883 159.973 339.659C159.973 339.529 160.011 339.398 160.085 339.267C160.179 339.137 160.291 339.034 160.421 338.959L165.153 336.103C165.34 335.991 165.564 335.954 165.825 335.991Z" fill="#3E3C3F"/>
<rect x="190.595" y="328.962" width="34.8721" height="34.8721" rx="4.75" stroke="#D5D5D5" stroke-width="0.5"/>
<rect x="234.29" y="328.962" width="34.8721" height="34.8721" rx="4.75" stroke="#D5D5D5" stroke-width="0.5"/>
<rect x="146.9" y="372.657" width="34.8721" height="34.8721" rx="4.75" stroke="#D5D5D5" stroke-width="0.5"/>
<rect x="190.595" y="372.657" width="34.8721" height="34.8721" rx="4.75" stroke="#D5D5D5" stroke-width="0.5"/>
<path d="M209.52 379.686C209.726 379.705 209.894 379.798 210.024 379.966C210.174 380.115 210.248 380.302 210.248 380.526V398.446C210.248 398.689 210.155 398.894 209.968 399.062C209.8 399.211 209.586 399.286 209.324 399.286C209.082 399.286 208.876 399.211 208.708 399.062C208.54 398.894 208.456 398.689 208.456 398.446V382.066L204.956 384.138C204.826 384.213 204.695 384.25 204.564 384.25C204.322 384.25 204.107 384.157 203.92 383.97C203.752 383.783 203.668 383.578 203.668 383.354C203.668 383.223 203.706 383.093 203.78 382.962C203.874 382.831 203.986 382.729 204.116 382.654L208.848 379.798C209.035 379.686 209.259 379.649 209.52 379.686Z" fill="#3E3C3F"/>
<rect x="234.29" y="372.657" width="34.8721" height="34.8721" rx="4.75" stroke="#D5D5D5" stroke-width="0.5"/>
<rect x="286.308" y="285.267" width="34.8721" height="34.8721" rx="4.75" stroke="#D5D5D5" stroke-width="0.5"/>
<path d="M305.233 292.296C305.439 292.315 305.607 292.408 305.737 292.576C305.887 292.726 305.961 292.912 305.961 293.136V311.056C305.961 311.299 305.868 311.504 305.681 311.672C305.513 311.822 305.299 311.896 305.037 311.896C304.795 311.896 304.589 311.822 304.421 311.672C304.253 311.504 304.169 311.299 304.169 311.056V294.676L300.669 296.748C300.539 296.823 300.408 296.86 300.277 296.86C300.035 296.86 299.82 296.767 299.633 296.58C299.465 296.394 299.381 296.188 299.381 295.964C299.381 295.834 299.419 295.703 299.493 295.572C299.587 295.442 299.699 295.339 299.829 295.264L304.561 292.408C304.748 292.296 304.972 292.259 305.233 292.296Z" fill="#3E3C3F"/>
<rect x="330.002" y="285.267" width="34.8721" height="34.8721" rx="4.75" stroke="#D4D4D4" stroke-width="0.5"/>
<path d="M348.928 292.296C349.133 292.315 349.301 292.408 349.432 292.576C349.581 292.726 349.656 292.912 349.656 293.136V311.056C349.656 311.299 349.563 311.504 349.376 311.672C349.208 311.822 348.993 311.896 348.732 311.896C348.489 311.896 348.284 311.822 348.116 311.672C347.948 311.504 347.864 311.299 347.864 311.056V294.676L344.364 296.748C344.233 296.823 344.103 296.86 343.972 296.86C343.729 296.86 343.515 296.767 343.328 296.58C343.16 296.394 343.076 296.188 343.076 295.964C343.076 295.834 343.113 295.703 343.188 295.572C343.281 295.442 343.393 295.339 343.524 295.264L348.256 292.408C348.443 292.296 348.667 292.259 348.928 292.296Z" fill="#3E3C3F"/>
<rect x="373.697" y="285.267" width="34.8721" height="34.8721" rx="4.75" stroke="#D5D5D5" stroke-width="0.5"/>
<path d="M392.623 292.296C392.828 292.315 392.996 292.408 393.127 292.576C393.276 292.726 393.351 292.912 393.351 293.136V311.056C393.351 311.299 393.258 311.504 393.071 311.672C392.903 311.822 392.688 311.896 392.427 311.896C392.184 311.896 391.979 311.822 391.811 311.672C391.643 311.504 391.559 311.299 391.559 311.056V294.676L388.059 296.748C387.928 296.823 387.798 296.86 387.667 296.86C387.424 296.86 387.21 296.767 387.023 296.58C386.855 296.394 386.771 296.188 386.771 295.964C386.771 295.834 386.808 295.703 386.883 295.572C386.976 295.442 387.088 295.339 387.219 295.264L391.951 292.408C392.138 292.296 392.362 292.259 392.623 292.296Z" fill="#3E3C3F"/>
<rect x="286.308" y="328.962" width="34.8721" height="34.8721" rx="4.75" stroke="#D5D5D5" stroke-width="0.5"/>
<path d="M305.233 335.991C305.439 336.01 305.607 336.103 305.737 336.271C305.887 336.421 305.961 336.607 305.961 336.831V354.751C305.961 354.994 305.868 355.199 305.681 355.367C305.513 355.517 305.299 355.591 305.037 355.591C304.795 355.591 304.589 355.517 304.421 355.367C304.253 355.199 304.169 354.994 304.169 354.751V338.371L300.669 340.443C300.539 340.518 300.408 340.555 300.277 340.555C300.035 340.555 299.82 340.462 299.633 340.275C299.465 340.089 299.381 339.883 299.381 339.659C299.381 339.529 299.419 339.398 299.493 339.267C299.587 339.137 299.699 339.034 299.829 338.959L304.561 336.103C304.748 335.991 304.972 335.954 305.233 335.991Z" fill="#3E3C3F"/>
<rect x="330.002" y="328.962" width="34.8721" height="34.8721" rx="4.75" stroke="#D5D5D5" stroke-width="0.5"/>
<rect x="373.697" y="328.962" width="34.8721" height="34.8721" rx="4.75" stroke="#D5D5D5" stroke-width="0.5"/>
<path d="M392.623 335.991C392.828 336.01 392.996 336.103 393.127 336.271C393.276 336.421 393.351 336.607 393.351 336.831V354.751C393.351 354.994 393.258 355.199 393.071 355.367C392.903 355.517 392.688 355.591 392.427 355.591C392.184 355.591 391.979 355.517 391.811 355.367C391.643 355.199 391.559 354.994 391.559 354.751V338.371L388.059 340.443C387.928 340.518 387.798 340.555 387.667 340.555C387.424 340.555 387.21 340.462 387.023 340.275C386.855 340.089 386.771 339.883 386.771 339.659C386.771 339.529 386.808 339.398 386.883 339.267C386.976 339.137 387.088 339.034 387.219 338.959L391.951 336.103C392.138 335.991 392.362 335.954 392.623 335.991Z" fill="#3E3C3F"/>
<rect x="286.308" y="372.657" width="34.8721" height="34.8721" rx="4.75" stroke="#D5D5D5" stroke-width="0.5"/>
<path d="M305.233 379.686C305.439 379.705 305.607 379.798 305.737 379.966C305.887 380.115 305.961 380.302 305.961 380.526V398.446C305.961 398.689 305.868 398.894 305.681 399.062C305.513 399.211 305.299 399.286 305.037 399.286C304.795 399.286 304.589 399.211 304.421 399.062C304.253 398.894 304.169 398.689 304.169 398.446V382.066L300.669 384.138C300.539 384.213 300.408 384.25 300.277 384.25C300.035 384.25 299.82 384.157 299.633 383.97C299.465 383.783 299.381 383.578 299.381 383.354C299.381 383.223 299.419 383.093 299.493 382.962C299.587 382.831 299.699 382.729 299.829 382.654L304.561 379.798C304.748 379.686 304.972 379.649 305.233 379.686Z" fill="#3E3C3F"/>
<rect x="330.002" y="372.657" width="34.8721" height="34.8721" rx="4.75" stroke="#D5D5D5" stroke-width="0.5"/>
<path d="M348.928 379.686C349.133 379.705 349.301 379.798 349.432 379.966C349.581 380.115 349.656 380.302 349.656 380.526V398.446C349.656 398.689 349.563 398.894 349.376 399.062C349.208 399.211 348.993 399.286 348.732 399.286C348.489 399.286 348.284 399.211 348.116 399.062C347.948 398.894 347.864 398.689 347.864 398.446V382.066L344.364 384.138C344.233 384.213 344.103 384.25 343.972 384.25C343.729 384.25 343.515 384.157 343.328 383.97C343.16 383.783 343.076 383.578 343.076 383.354C343.076 383.223 343.113 383.093 343.188 382.962C343.281 382.831 343.393 382.729 343.524 382.654L348.256 379.798C348.443 379.686 348.667 379.649 348.928 379.686Z" fill="#3E3C3F"/>
<rect x="373.697" y="372.657" width="34.8721" height="34.8721" rx="4.75" stroke="#D5D5D5" stroke-width="0.5"/>
<path d="M138.327 2.12561V411.855" stroke="#70587C" stroke-width="2" stroke-linecap="round"/>
<path d="M277.905 1V410.73" stroke="#70587C" stroke-width="2" stroke-linecap="round"/>
<path d="M1 276.78H410.73" stroke="#70587C" stroke-width="2" stroke-linecap="round"/>
<path d="M3.25122 137.201L412.981 137.201" stroke="#70587C" stroke-width="2" stroke-linecap="round"/>
</svg>
