<svg width="35" height="30" viewBox="0 0 35 30" fill="none" xmlns="http://www.w3.org/2000/svg">
<path d="M18.4902 28.1543C17.0608 28.7006 15.5085 29 13.8873 29C6.77005 29 1 23.2307 1 16.1134C1 8.99612 6.77005 3.22607 13.8873 3.22607C15.5085 3.22607 17.0608 3.52554 18.4902 4.07188C13.646 5.92479 10.2056 10.6173 10.2056 16.1134C10.2056 21.6095 13.646 26.3014 18.4902 28.1543Z" stroke="#70587C" stroke-width="1.5" stroke-linecap="round" stroke-linejoin="round"/>
<path d="M24.6872 11.9447L27.4726 13.2096L24.6872 14.4745L23.3362 17.26L21.9851 14.4745L19.1997 13.2096L21.9851 11.9447L23.3362 9.15934L24.6872 11.9447ZM28.7625 22.8183L30.7444 23.7183L28.7625 24.6182L27.8013 26.6L26.8401 24.6182L24.8582 23.7183L26.8401 22.8183L27.8013 20.8365L28.7625 22.8183ZM32.3453 2.98181L34.3272 3.88179L32.3453 4.78177L31.3841 6.76358L30.4229 4.78177L28.441 3.88179L30.4229 2.98181L31.3841 1L32.3453 2.98181V2.98181Z" stroke="#70587C" stroke-linecap="round" stroke-linejoin="round"/>
</svg>
