<svg width="24" height="24" viewBox="0 0 24 24" fill="none" xmlns="http://www.w3.org/2000/svg">
<path d="M8.57146 20.9829L0.857178 23.1429L3.01718 15.4286L17.1429 1.37144C17.3025 1.20816 17.4932 1.07842 17.7037 0.989851C17.9142 0.901278 18.1402 0.855652 18.3686 0.855652C18.597 0.855652 18.823 0.901278 19.0335 0.989851C19.244 1.07842 19.4347 1.20816 19.5943 1.37144L22.6286 4.42287C22.7893 4.58223 22.9168 4.77183 23.0038 4.98074C23.0909 5.18964 23.1357 5.4137 23.1357 5.64001C23.1357 5.86632 23.0909 6.09038 23.0038 6.29928C22.9168 6.50819 22.7893 6.69779 22.6286 6.85715L8.57146 20.9829Z" stroke="#3E3C3F" stroke-width="1.5" stroke-linecap="round" stroke-linejoin="round"/>
</svg>
