<svg width="94" height="94" viewBox="0 0 94 94" fill="none" xmlns="http://www.w3.org/2000/svg">
<path d="M92 46.9996C92 71.8527 71.8537 91.9993 47.0006 91.9993C22.1475 91.9993 2 71.8527 2 46.9996C2 22.1466 22.1475 2 47.0006 2C71.8537 2 92 22.1466 92 46.9996V46.9996Z" stroke="#3E3C3F" stroke-width="3" stroke-linecap="round" stroke-linejoin="round"/>
<path d="M34.9785 67.7123C38.5208 65.4584 42.7237 64.1526 47.2287 64.1526C51.7339 64.1526 55.9368 65.4582 59.4791 67.7123" stroke="#3E3C3F" stroke-width="3" stroke-linecap="round" stroke-linejoin="round"/>
<path d="M64.001 36.252C61.5827 36.252 59.6196 38.2156 59.6196 40.6336C59.6196 43.0516 61.5827 45.0149 64.001 45.0149C66.419 45.0149 68.3823 43.0516 68.3823 40.6336C68.3823 38.2156 66.419 36.2522 64.001 36.2522V36.252Z" fill="#3E3C3F"/>
<path d="M59.6875 25.5036C59.6875 25.5036 67.3548 24.4083 73.3791 30.7065" stroke="#705776" stroke-width="3" stroke-linecap="round" stroke-linejoin="round"/>
<path d="M30.729 36.252C33.1472 36.252 35.1103 38.2156 35.1103 40.6336C35.1103 43.0516 33.1472 45.0149 30.729 45.0149C28.311 45.0149 26.3477 43.0516 26.3477 40.6336C26.3477 38.2156 28.311 36.2522 30.729 36.2522V36.252Z" fill="#3E3C3F"/>
<path d="M35.0422 25.5036C35.0422 25.5036 27.3749 24.4083 21.3506 30.7065" stroke="#705776" stroke-width="3" stroke-linecap="round" stroke-linejoin="round"/>
</svg>
