<svg width="30" height="30" viewBox="0 0 30 30" fill="none" xmlns="http://www.w3.org/2000/svg">
<path d="M22.523 7.477L26.5497 3.45027L22.523 7.477ZM25.6391 15H29H25.6391ZM22.523 22.523L26.5497 26.5497L22.523 22.523ZM15 25.6391V29V25.6391ZM7.477 22.523L3.45027 26.5497L7.477 22.523ZM4.36089 15H1H4.36089ZM7.477 7.477L3.45027 3.45027L7.477 7.477ZM15 4.36089V1V4.36089ZM7.47928 15C7.47928 19.1535 10.8465 22.5207 15 22.5207C19.1535 22.5207 22.5207 19.1535 22.5207 15C22.5207 10.8465 19.1535 7.47928 15 7.47928C10.8465 7.47928 7.47928 10.8465 7.47928 15Z" stroke="#D1D1D1" stroke-width="1.5" stroke-linecap="round" stroke-linejoin="round"/>
</svg>
