<svg width="54px" height="81px" viewBox="0 0 54 81" version="1.1" xmlns="http://www.w3.org/2000/svg" xmlns:xlink="http://www.w3.org/1999/xlink">
    <!-- Generator: Sketch 57.1 (83088) - https://sketch.com -->
    <title>agencia</title>
    <desc>Created with Sketch.</desc>
    <defs>
        <polygon id="path-1" points="6.92307692e-05 0.0466206897 53.8508077 0.0466206897 53.8508077 55.9999586 6.92307692e-05 55.9999586"/>
    </defs>
    <g id="Modal" stroke="none" stroke-width="1" fill="none" fill-rule="evenodd">
        <g id="Artboard" transform="translate(-7.000000, -8.000000)">
            <g id="agencia" transform="translate(7.000000, 8.000000)">
                <g id="less_than_ten_employer.11409f4f" transform="translate(0.000000, 25.000000)">
                    <g id="Group-3">
                        <g id="Fill-1-Clipped">
                            <mask id="mask-2" fill="white">
                                <use xlink:href="#path-1"/>
                            </mask>
                            <g id="path-1"/>
                            <path d="M50.0402423,0.0465793103 C52.1446846,0.0465793103 53.8508769,1.40616552 53.8508769,3.0834069 L53.8508769,55.9999586 L6.92307692e-05,55.9999586 L6.92307692e-05,3.0834069 C6.92307692e-05,1.40616552 1.70608846,0.0465793103 3.81053077,0.0465793103 L50.0402423,0.0465793103 Z" id="Fill-1" fill="#FFFFFF" fill-rule="nonzero" mask="url(#mask-2)"/>
                        </g>
                    </g>
                    <path d="M21.1267857,42 L31.8732143,42 C33.0477679,42 34,43.0107655 34,44.2579155 L34,56 L19,56 L19,44.2579155 C19,43.0107655 19.9522321,42 21.1267857,42" id="Fill-4" fill="#ACB2BA" fill-rule="nonzero"/>
                    <path d="M12.4266398,9 L18.5731935,9 C19.9134897,9 21,10.102958 21,11.4635437 L21,14.5366256 C21,15.897042 19.9134897,17 18.5731935,17 L12.4266398,17 C11.0863436,17 10,15.897042 10,14.5366256 L10,11.4635437 C10,10.102958 11.0863436,9 12.4266398,9" id="Fill-10" fill="#ACB2BA" fill-rule="nonzero"/>
                    <path d="M35.4266398,9 L41.5731935,9 C42.9134897,9 44,10.102958 44,11.4633744 L44,14.5364563 C44,15.897042 42.9134897,17 41.5731935,17 L35.4266398,17 C34.0863436,17 33,15.897042 33,14.5364563 L33,11.4633744 C33,10.102958 34.0863436,9 35.4266398,9" id="Fill-12" fill="#ACB2BA" fill-rule="nonzero"/>
                    <path d="M12.4266398,24 L18.5731935,24 C19.9134897,24 21,25.102958 21,26.4635437 L21,29.5366256 C21,30.897042 19.9134897,32 18.5731935,32 L12.4266398,32 C11.0863436,32 10,30.897042 10,29.5366256 L10,26.4635437 C10,25.102958 11.0863436,24 12.4266398,24" id="Fill-14" fill="#ACB2BA" fill-rule="nonzero"/>
                    <path d="M35.4266398,24 L41.5731935,24 C42.9134897,24 44,25.1029346 44,26.4634915 L44,29.5365085 C44,30.8970654 42.9134897,32 41.5731935,32 L35.4266398,32 C34.0863436,32 33,30.8970654 33,29.5365085 L33,26.4634915 C33,25.1029346 34.0863436,24 35.4266398,24" id="Fill-16" fill="#ACB2BA" fill-rule="nonzero"/>
                </g>
                <g id="idea-(1)" transform="translate(17.000000, 0.000000)" fill-rule="nonzero">
                    <rect id="Rectangle" fill="#ACB2BA" x="8" y="20" width="3" height="1"/>
                    <rect id="Rectangle" fill="#ACB2BA" x="9" y="0" width="1" height="3"/>
                    <polygon id="Rectangle" fill="#ACB2BA" transform="translate(15.005628, 2.801690) rotate(-57.554295) translate(-15.005628, -2.801690) " points="13.6141214 2.16508427 16.3859229 2.19019266 16.3971337 3.43829533 13.6253322 3.41318693"/>
                    <polygon id="Rectangle" fill="#ACB2BA" transform="translate(18.439360, 6.628961) rotate(-25.106891) translate(-18.439360, -6.628961) " points="17.0339957 6.00087725 19.8352117 6.02218422 19.844725 7.25704554 17.043509 7.23573857"/>
                    <polygon id="Rectangle" fill="#ACB2BA" transform="translate(4.994274, 2.802214) rotate(-32.445705) translate(-4.994274, -2.802214) " points="4.35766862 1.41070772 5.60577128 1.42191849 5.63087968 4.19371998 4.38277702 4.1825092"/>
                    <polygon id="Rectangle" fill="#ACB2BA" transform="translate(1.560095, 6.629589) rotate(-64.893109) translate(-1.560095, -6.629589) " points="0.932011255 5.22422463 2.16687258 5.23373791 2.18817955 8.03495392 0.953318226 8.02544064"/>
                    <path d="M13.3613593,5.6168331 C12.3048253,4.55311188 10.9065664,3.97946075 9.4205254,4.00056208 C7.99244078,4.02121006 6.64438929,4.60322753 5.62458254,5.63933569 C4.60477579,6.67556748 4.02815797,8.04925567 4.00103631,9.50739037 C3.97181595,11.0764307 4.5613892,12.5433851 5.66106763,13.6380165 C6.06010314,14.0352325 6.3806392,14.4972361 6.60951858,15 L7.90768559,15 L7.90768559,12.7278569 L6.72418024,11.5039386 L7.58573694,10.6351986 L9.11847404,12.2203122 L9.11847404,15 L9.88151292,15 L9.88151292,12.2203122 L11.41425,10.6351986 L12.2758067,11.5039386 L11.0923014,12.7278569 L11.0923014,15 L12.38728,15 C12.6128095,14.4988023 12.9276549,14.043434 13.3189413,13.6578402 C14.4030006,12.5895855 15,11.154283 15,9.61631773 C15,8.1011435 14.4180547,6.68076039 13.3613593,5.6168331 Z" id="Path" fill="#69CFEB"/>
                    <rect id="Rectangle" fill="#ACB2BA" x="7" y="16" width="5" height="3"/>
                </g>
                <rect id="Rectangle" fill="#69CFEB" x="24" y="10" width="5" height="5"/>
                <rect id="Rectangle-Copy" fill="#69CFEB" x="23" y="7" width="7" height="5"/>
            </g>
        </g>
    </g>
</svg>