<svg width="83px" height="69px" viewBox="0 0 83 69" version="1.1" xmlns="http://www.w3.org/2000/svg" xmlns:xlink="http://www.w3.org/1999/xlink">
    <!-- Generator: Sketch 57.1 (83088) - https://sketch.com -->
    <title>particular</title>
    <desc>Created with Sketch.</desc>
    <defs>
        <polygon id="path-1" points="0.0801290323 0.0594 17.9856774 0.0594 17.9856774 11.8337 0.0801290323 11.8337"/>
    </defs>
    <g id="Modal" stroke="none" stroke-width="1" fill="none" fill-rule="evenodd">
        <g id="particular">
            <path d="M6,69 L77.7625648,69 C78.4460655,69 79,68.6292129 79,68.1718827 L79,44.828508 C79,44.3711778 78.4458727,44 77.762372,44 L6,44" id="Fill-1" fill="#E4E7E7" fill-rule="nonzero"/>
            <path d="M3,50 L77,50 L77,45.3845823 C77,44.6202894 76.447645,44 75.7663303,44 L4.23347748,44" id="Fill-3" fill="#B7BBBD" fill-rule="nonzero"/>
            <path d="M64.6813909,31 L55.3186091,31 C54.5904772,31 54,31.5522852 54,32.2332137 L54,37.7667863 C54,38.4479062 54.5902717,39 55.3186091,39 L64.6813909,39 C65.4095228,39 66,38.4479062 66,37.7667863 L66,32.2332137 C66,31.5522852 65.4097283,31 64.6813909,31" id="Fill-5" fill="#B7BBBD" fill-rule="nonzero"/>
            <path d="M74.8034276,10 L44.1967588,10 C43.5359123,10 43,10.5424484 43,11.2112487 L43,31.7887513 C43,32.4575516 43.5357258,33 44.1967588,33 L74.8032412,33 C75.4640877,33 76,32.4575516 76,31.7887513 L76,11.2112487 C76,10.5424484 75.4642742,10 74.8034276,10" id="Fill-7" fill="#E4E7E7" fill-rule="nonzero"/>
            <path d="M75.1818298,10 L73,10 L73,33 L75.1818298,33 C75.6336209,33 76,32.4575516 76,31.7887513 L76,11.2112487 C75.9998725,10.5424484 75.6336209,10 75.1818298,10" id="Fill-9" fill="#B7BBBD" fill-rule="nonzero"/>
            <path d="M0,46 L81.7694289,46 C82.4490323,46 83,45.5228512 83,44.9338737 L83,38.0659338 C83,37.4775337 82.449224,37 81.7696206,37 L0,37" id="Fill-11" fill="#E4E7E7" fill-rule="nonzero"/>
            <g id="Group-15" transform="translate(16.000000, 0.000000)">
                <g id="Fill-13-Clipped">
                    <mask id="mask-2" fill="white">
                        <use xlink:href="#path-1"/>
                    </mask>
                    <g id="path-1"/>
                    <path d="M10.2040645,0.1109 C13.9741935,0.1109 17.9856774,3.3203 17.9856774,7.6285 L17.9856774,11.8337 L15.5440645,9.3105 C15.5440645,9.3105 12.5245161,10.9927 9.03290323,10.9927 C5.54129032,10.9927 2.52174194,9.3105 2.52174194,9.3105 L0.0801290323,11.8337 L0.0801290323,7.6285 C0.0801290323,3.4477 4.85477419,0.0593 8.89993548,0.0593" id="Fill-13" fill="#B7BBBD" fill-rule="nonzero" mask="url(#mask-2)"/>
                </g>
            </g>
            <path d="M34,11.3334566 L34,14.4444855 C34,17.7656291 32.00374,20.6511917 29.0908737,22.0665064 C27.8637381,22.666147 26.4725822,23 25.0000973,23 C23.5274178,23 22.1364565,22.6655921 20.9091263,22.0665064 C17.9964546,20.6519315 16,17.7656291 16,14.4444855 L16,11.3334566 L18.4546604,9 C18.4546604,9 21.4899095,10.5556994 25.0000973,10.5556994 C28.5100905,10.5556994 31.5455341,9 31.5455341,9 L34,11.3334566 Z" id="Fill-16" fill="#FFFFFF" fill-rule="nonzero"/>
            <path d="M31.6923499,9 C31.6923499,9 31.4106392,9.15314696 30.9231332,9.36326164 L30.9231332,14.4446705 C30.9231332,17.7658141 29.0462811,20.6511917 26.3076501,22.0666913 C25.5929463,22.4384611 24.8145831,22.6935211 24,22.8437087 C24.4999451,22.9371136 25.0106831,23 25.5384334,23 C26.9228405,23 28.2307833,22.6655921 29.3846998,22.0666913 C32.1231478,20.6519315 34,17.7658141 34,14.4446705 L34,11.3334566 L31.6923499,9 Z" id="Fill-18" fill="#E4E7E7" fill-rule="nonzero"/>
            <path d="M22.599962,26.6845986 C23.2857958,27.3842413 24.3635348,27.5084787 24.9999049,27.5084787 C26.1427077,27.5084787 26.949918,27.1213676 27.400038,26.6845986 C28.0128178,26.0899946 28.4773965,25.3423552 29,25.1320932 C29.7391025,24.8348835 32.1999239,25.1320932 32.1999239,25.1320932 C34.8559368,25.1320932 37,27.2125612 37,29.7897939 L37,34.4474946 C37,35.3082952 36.2879123,36 35.400038,36 L14.599962,36 C13.7120877,36 13,35.3082952 13,34.4474946 L13,29.7897939 C13,27.2125612 15.1440632,25.1320932 17.7998859,25.1320932 C17.7998859,25.1320932 20.2608975,24.8348835 21,25.1320932 C21.5226035,25.3423552 22.2101496,26.2869652 22.599962,26.6845986" id="Fill-20" fill="#69CFEB" fill-rule="nonzero"/>
            <path d="M32.1999239,25 L29,25 C31.6558227,25 33.7998859,27.1059417 33.7998859,29.7143124 L33.7998859,34.4286248 C33.7998859,35.2998879 33.0877981,36 32.1999239,36 L35.3998478,36 C36.2879123,36 37,35.2998879 37,34.4286248 L37,29.7143124 C37,27.1059417 34.8557466,25 32.1999239,25" id="Fill-22" fill="#02A8CA" fill-rule="nonzero"/>
        </g>
    </g>
</svg>