<svg width="85px" height="89px" viewBox="0 0 85 89" version="1.1" xmlns="http://www.w3.org/2000/svg" xmlns:xlink="http://www.w3.org/1999/xlink">
    <!-- Generator: Sketch 57.1 (83088) - https://sketch.com -->
    <title>large enterprise</title>
    <desc>Created with Sketch.</desc>
    <g id="Modal" stroke="none" stroke-width="1" fill="none" fill-rule="evenodd">
        <g id="large-enterprise" fill-rule="nonzero">
            <path d="M31.1,88.9 L-1.60480937e-05,88.9 L-1.60480937e-05,10.04 C-0.00265640574,9.2098711 0.324565597,8.41268733 0.909680013,7.82382218 C1.49479443,7.23495703 2.28987107,6.90264793 3.12,6.9 L31.12,6.9 L31.1,88.9 Z" id="Fill-6" fill="#E4E7E7"/>
            <path d="M9.88,13.65 L16.59,13.65 C17.3168262,13.6734813 18.0045058,13.9849325 18.5015594,14.5157483 C18.998613,15.046564 19.2642655,15.7531996 19.24,16.48 L19.24,20 C19.2849655,21.5114726 18.1011653,22.7756817 16.59,22.83 L9.88,22.83 C8.3703302,22.7757145 7.18940456,21.509798 7.24,20 L7.24,16.48 C7.21301539,15.7541531 7.47639848,15.047477 7.97186541,14.5163515 C8.46733235,13.9852259 9.15403017,13.6734441 9.88,13.65" id="Fill-19" fill="#ACB2BA"/>
            <path d="M9.72,44.31 L16.43,44.31 C17.1541746,44.3334799 17.8393115,44.6438771 18.33449,45.1728179 C18.8296686,45.7017586 19.094267,46.4058514 19.07,47.13 L19.07,50.66 C19.1205954,52.169798 17.9396698,53.4357145 16.43,53.49 L9.72,53.49 C8.20883465,53.4356817 7.02503453,52.1714726 7.07,50.66 L7.07,47.12 C7.03071973,45.6141315 8.21441541,44.3589674 9.72,44.31" id="Fill-21" fill="#ACB2BA"/>
            <path d="M9.88,29.01 L16.59,29.01 C18.1011653,29.0643183 19.2849655,30.3285274 19.24,31.84 L19.24,35.37 C19.2849655,36.8814726 18.1011653,38.1456817 16.59,38.2 L9.88,38.2 C8.3703302,38.1457145 7.18940456,36.879798 7.24,35.37 L7.24,31.84 C7.18940456,30.330202 8.3703302,29.0642855 9.88,29.01" id="Fill-23" fill="#ACB2BA"/>
            <path d="M9.72,59.61 L16.43,59.61 C17.1541746,59.6334799 17.8393115,59.9438771 18.33449,60.4728179 C18.8296686,61.0017586 19.094267,61.7058514 19.07,62.43 L19.07,65.96 C19.1205954,67.469798 17.9396698,68.7357145 16.43,68.79 L9.72,68.79 C8.20883465,68.7356817 7.02503453,67.4714726 7.07,65.96 L7.07,62.43 C7.02510783,60.9202782 8.21040413,59.658944 9.72,59.61" id="Fill-25" fill="#ACB2BA"/>
            <path d="M26.62,3.16 L26.62,18.47 L66.55,18.47 L66.55,28.9 L81.29,28.9 L81.29,3.16 C81.2844894,1.41316385 79.8668448,0 78.12,0 L29.79,0 C28.0431552,0 26.6255106,1.41316385 26.62,3.16" id="Fill-1" fill="#ACB2BA"/>
            <path d="M35.72,7.95 L44.35,7.95 C45.7841779,7.9049922 46.9857297,9.02614268 47.04,10.46 L47.04,17.95 L33.04,17.95 L33.04,10.46 C33.0889037,9.02770976 34.2875796,7.90506922 35.72,7.95" id="Fill-4" fill="#69CFEB"/>
            <path d="M59.05,10.63 L59.05,18.63 L61.72,18.63 C63.8644885,18.6299929 65.6044872,20.3655186 65.61,22.51 L65.61,22.9400001 L70.36,22.9400001 C71.8225265,22.9403639 73.0173786,21.7721627 73.05,20.31 L73.05,10.63 C73.0444916,9.14826076 71.8417495,7.95 70.36,7.95 L61.72,7.95 C60.2398769,7.95 59.04,9.14987687 59.04,10.63" id="Fill-8" fill="#69CFEB"/>
            <path d="M65.62,28.9 L81.5,28.9 C82.3301289,28.9026479 83.1252056,29.234957 83.71032,29.8238222 C84.2954344,30.4126873 84.6226564,31.2098711 84.620016,32.04 L84.620016,88.9 L65.62,88.9 L65.62,28.9 Z" id="Fill-6-2" fill="#E4E7E7"/>
            <path d="M65.62,40.6099133 L74.27,40.6099133 C74.8879612,40.6046728 75.4827261,40.8450598 75.9234416,41.2782737 C76.3641571,41.7114876 76.6147184,42.3020384 76.62,42.92 L76.62,51.31 C76.6147184,51.9279616 76.3641571,52.5185124 75.9234416,52.9517263 C75.4827261,53.3849402 74.8879612,53.6253272 74.27,53.6200867 L65.62,53.6200867 L65.62,40.6099133 Z" id="Fill-10" fill="#ACB2BA"/>
            <path d="M65.62,67.61 L74.29,67.61 C74.9034494,67.6019922 75.4946745,67.8393999 75.9322252,68.269439 C76.3697759,68.6994781 76.6173849,69.2865039 76.62,69.9 L76.62,78.31 C76.6173633,78.924396 76.3700736,79.5124291 75.9328202,79.9440526 C75.4955668,80.3756761 74.9043786,80.6153252 74.29,80.6100869 L65.62,80.6100869 L65.62,67.61 Z" id="Fill-12" fill="#ACB2BA"/>
            <path d="M16.39,17.9 L62.72,17.9 C63.7375198,17.9026428 64.7121654,18.3100753 65.4288432,19.0323815 C66.1455211,19.7546877 66.5453169,20.7324907 66.5400524,21.75 L66.5400524,88.9 L12.5399476,88.9 L12.5399476,21.75 C12.5346831,20.7324907 12.9344789,19.7546877 13.6511568,19.0323815 C14.3678346,18.3100753 15.3424802,17.9026428 16.36,17.9" id="Fill-14" fill="#FFFFFF"/>
            <path d="M33.92,75.9 L45.21,75.9 C46.4010752,75.8662614 47.3965495,76.7992395 47.44,77.99 L47.44,88.86 L31.72,88.86 L31.72,77.99 C31.7634505,76.7992395 32.7589248,75.8662614 33.95,75.9" id="Fill-16" fill="#ACB2BA"/>
            <path d="M25.22,26.86 L31.92,26.86 C33.3246224,26.8147547 34.505109,27.906148 34.57,29.31 L34.57,32.38 C34.5157796,33.790283 33.3304155,34.8906588 31.92,34.84 L25.22,34.84 C23.8095845,34.8906588 22.6242204,33.790283 22.57,32.38 L22.57,29.31 C22.6242557,27.8982304 23.8079058,26.7949793 25.22,26.84" id="Fill-19-2" fill="#5D9CEC"/>
            <path d="M47.22,26.86 L53.92,26.86 C55.3246224,26.8147547 56.505109,27.906148 56.57,29.31 L56.57,32.38 C56.5157796,33.790283 55.3304155,34.8906588 53.92,34.84 L47.22,34.84 C45.8095845,34.8906588 44.6242204,33.790283 44.57,32.38 L44.57,29.31 C44.6242557,27.8982304 45.8079058,26.7949793 47.22,26.84" id="Fill-21-2" fill="#5D9CEC"/>
            <path d="M25.22,42.86 L31.92,42.86 C33.3246224,42.8147547 34.505109,43.906148 34.57,45.31 L34.57,48.38 C34.5157796,49.790283 33.3304155,50.8906588 31.92,50.84 L25.22,50.84 C23.8095845,50.8906588 22.6242204,49.790283 22.57,48.38 L22.57,45.31 C22.6242557,43.8982304 23.8079058,42.7949793 25.22,42.84" id="Fill-23-2" fill="#5D9CEC"/>
            <path d="M47.22,41.86 L53.92,41.86 C55.3246224,41.8147547 56.505109,42.906148 56.57,44.31 L56.57,47.38 C56.5157796,48.790283 55.3304155,49.8906588 53.92,49.84 L47.22,49.84 C45.8095845,49.8906588 44.6242204,48.790283 44.57,47.38 L44.57,44.31 C44.6242557,42.8982304 45.8079058,41.7949793 47.22,41.84" id="Fill-25-2" fill="#5D9CEC"/>
            <path d="M25.22,56.86 L31.92,56.86 C33.3246224,56.8147547 34.505109,57.906148 34.57,59.31 L34.57,62.38 C34.5157796,63.790283 33.3304155,64.8906588 31.92,64.84 L25.22,64.84 C23.8095845,64.8906588 22.6242204,63.790283 22.57,62.38 L22.57,59.31 C22.6242557,57.8982304 23.8079058,56.7949793 25.22,56.84" id="Fill-27" fill="#5D9CEC"/>
            <path d="M47.22,56.86 L53.92,56.86 C55.3246224,56.8147547 56.505109,57.906148 56.57,59.31 L56.57,62.38 C56.5157796,63.790283 55.3304155,64.8906588 53.92,64.84 L47.22,64.84 C45.8095845,64.8906588 44.6242204,63.790283 44.57,62.38 L44.57,59.31 C44.6242557,57.8982304 45.8079058,56.7949793 47.22,56.84" id="Fill-29" fill="#5D9CEC"/>
        </g>
    </g>
</svg>