<svg width="270px" height="399px" viewBox="0 0 270 399" version="1.1" xmlns="http://www.w3.org/2000/svg" xmlns:xlink="http://www.w3.org/1999/xlink">
    <!-- Generator: Sketch 52.2 (67145) - http://www.bohemiancoding.com/sketch -->
    <title>Group 44</title>
    <desc>Created with Sketch.</desc>
    <defs>
        <linearGradient x1="50%" y1="0%" x2="50%" y2="100%" id="linearGradient-1">
            <stop stop-color="#FDC7C0" offset="0%"/>
            <stop stop-color="#FA968C" offset="100%"/>
        </linearGradient>
        <linearGradient x1="100%" y1="12.887321%" x2="62.3123584%" y2="34.3848958%" id="linearGradient-2">
            <stop stop-color="#4581B7" offset="0%"/>
            <stop stop-color="#214A81" offset="100%"/>
        </linearGradient>
        <polygon id="path-3" points="0.24338367 0.457291656 27.1812201 0.457291656 27.1812201 28.4805039 0.24338367 28.4805039"/>
        <polygon id="path-5" points="0.245388049 0.712407927 27.1805844 0.712407927 27.1805844 6.34756098 0.245388049 6.34756098"/>
        <linearGradient x1="148.411488%" y1="108.395579%" x2="27.8303188%" y2="34.0489958%" id="linearGradient-7">
            <stop stop-color="#00ABD5" offset="0%"/>
            <stop stop-color="#0073AA" offset="100%"/>
        </linearGradient>
        <linearGradient x1="109.531641%" y1="106.282285%" x2="69.0473517%" y2="75.9491253%" id="linearGradient-8">
            <stop stop-color="#00C4E6" offset="0%"/>
            <stop stop-color="#0091C8" offset="100%"/>
        </linearGradient>
        <linearGradient x1="80.1658652%" y1="82.5195488%" x2="80.1658652%" y2="7.38356791%" id="linearGradient-9">
            <stop stop-color="#FDC7C0" offset="0%"/>
            <stop stop-color="#FA968C" offset="100%"/>
        </linearGradient>
        <linearGradient x1="61.7381238%" y1="4.5822269%" x2="139.695932%" y2="54.2997836%" id="linearGradient-10">
            <stop stop-color="#FDC7C0" offset="0%"/>
            <stop stop-color="#FA968C" offset="100%"/>
        </linearGradient>
        <linearGradient x1="-12.7642551%" y1="113.165089%" x2="56.5929286%" y2="45.9169353%" id="linearGradient-11">
            <stop stop-color="#E0E0E0" offset="0%"/>
            <stop stop-color="#FEFEFE" offset="99.9389128%"/>
            <stop stop-color="#FFFFFF" offset="100%"/>
        </linearGradient>
        <linearGradient x1="12.5410284%" y1="85.4431226%" x2="38.5982247%" y2="-3.50008679%" id="linearGradient-12">
            <stop stop-color="#FDDDD8" offset="0%"/>
            <stop stop-color="#FAB9AF" offset="100%"/>
        </linearGradient>
        <linearGradient x1="50%" y1="72.5763944%" x2="32.7232828%" y2="121.712537%" id="linearGradient-13">
            <stop stop-color="#FDDDD8" offset="0%"/>
            <stop stop-color="#FAB9AF" offset="100%"/>
        </linearGradient>
        <linearGradient x1="50%" y1="0%" x2="50%" y2="100%" id="linearGradient-14">
            <stop stop-color="#768888" offset="0%"/>
            <stop stop-color="#415050" offset="100%"/>
        </linearGradient>
        <linearGradient x1="247.036396%" y1="71.6399551%" x2="118.799809%" y2="36.8295218%" id="linearGradient-15">
            <stop stop-color="#8EA2A7" offset="0%"/>
            <stop stop-color="#55696E" offset="100%"/>
        </linearGradient>
        <polygon id="path-16" points="0.567722004 0.0505174085 36.0904321 0.0505174085 36.0904321 180.446489 0.567722004 180.446489"/>
        <linearGradient x1="139.039439%" y1="70.2836371%" x2="-8.30722383%" y2="28.7051812%" id="linearGradient-18">
            <stop stop-color="#8EA2A7" offset="0%"/>
            <stop stop-color="#55696E" offset="100%"/>
        </linearGradient>
        <linearGradient x1="31.4228629%" y1="50%" x2="50%" y2="100%" id="linearGradient-19">
            <stop stop-color="#9BE0F0" offset="0%"/>
            <stop stop-color="#62BDDD" offset="100%"/>
        </linearGradient>
        <linearGradient x1="27.2576126%" y1="26.6155804%" x2="50%" y2="100%" id="linearGradient-20">
            <stop stop-color="#9BE0F0" offset="0%"/>
            <stop stop-color="#62BDDD" offset="100%"/>
        </linearGradient>
        <linearGradient x1="50%" y1="77.9736429%" x2="17.3529731%" y2="24.3787977%" id="linearGradient-21">
            <stop stop-color="#F9D3CC" offset="0%"/>
            <stop stop-color="#FF8572" offset="100%"/>
        </linearGradient>
        <linearGradient x1="50%" y1="0%" x2="45.7321556%" y2="93.2755841%" id="linearGradient-22">
            <stop stop-color="#FDDDD8" offset="0%"/>
            <stop stop-color="#FAB9AF" offset="100%"/>
        </linearGradient>
        <linearGradient x1="0%" y1="18.7626147%" x2="75.9466667%" y2="50.0146071%" id="linearGradient-23">
            <stop stop-color="#1F3972" offset="0%"/>
            <stop stop-color="#00558C" offset="100%"/>
        </linearGradient>
        <linearGradient x1="91.6659732%" y1="0%" x2="50%" y2="50%" id="linearGradient-24">
            <stop stop-color="#E040E6" offset="0%"/>
            <stop stop-color="#BE1EC8" offset="100%"/>
        </linearGradient>
        <linearGradient x1="80.1658652%" y1="82.5195488%" x2="145.267366%" y2="87.8161475%" id="linearGradient-25">
            <stop stop-color="#FDC7C0" offset="0%"/>
            <stop stop-color="#FA968C" offset="100%"/>
        </linearGradient>
        <linearGradient x1="42.5978747%" y1="44.9515584%" x2="117.733856%" y2="44.9515584%" id="linearGradient-26">
            <stop stop-color="#FDC7C0" offset="0%"/>
            <stop stop-color="#FA968C" offset="100%"/>
        </linearGradient>
        <linearGradient x1="61.9631057%" y1="41.2338291%" x2="87.4223776%" y2="132.586052%" id="linearGradient-27">
            <stop stop-color="#9CE0F1" offset="0%"/>
            <stop stop-color="#6BC3E0" offset="100%"/>
        </linearGradient>
    </defs>
    <g id="Desktop_illustration" stroke="none" stroke-width="1" fill="none" fill-rule="evenodd">
        <g id="Group-44">
            <g id="Group-22">
                <path d="M100.527901,397.987222 C80.1170024,396.773342 59.2542758,390.59083 52.1888458,382.292993 C47.0166677,376.223045 39.3250695,370.818985 29.1185551,367.251788 C10.5993762,360.781947 -0.335209333,353.294629 0.00783930885,345.866528 C0.624845352,332.506371 37.5044686,323.278318 88.7917584,321.880291 C102.124154,321.515865 114.736871,318.787895 124.07456,313.77782 C137.190145,306.738545 157.929783,302.901352 181.062712,304.277118 C215.153002,306.304541 244.748253,319.453173 249.142556,335.22544 C250.700563,340.812996 255.43594,346.052183 261.893795,350.592674 C267.145476,354.283392 269.937216,358.103773 269.761465,361.909356 C269.123687,375.719297 229.741164,385.114575 175.751848,386.011515 C163.553035,386.213593 152.062043,388.472157 142.777614,392.56391 C133.165331,396.801498 117.760213,399.012065 100.527901,397.987222 Z" id="Fill-1-Copy-6" fill-opacity="0.310000002" fill="#4A90E2"/>
                <g id="btn-X" transform="translate(15.000000, 0.000000)">
                    <g id="Group-87">
                        <g id="Group-72" transform="translate(0.000000, 18.000000)">
                            <path d="M41.3374827,307.422114 C41.3374827,307.422114 41.909842,324.992163 40.4556255,328.335212 C39.001409,331.678261 38.6389148,335.461407 43.2368676,335.44448 C47.7457868,335.425437 58.5676168,335.450828 60.1299456,335.408511 C63.0256596,335.325992 65.5927969,335.002267 65.5419205,333.085303 C65.4910442,331.16834 52.1020768,330.537815 49.5497784,328.599693 C46.99748,326.661572 48.9392619,308.380596 48.9392619,308.380596 L41.3374827,307.422114 Z" id="Fill-11" fill="url(#linearGradient-1)"/>
                            <path d="M50.7712355,332.339253 C46.9067505,332.328674 43.2330519,331.355381 39.943046,329.690204 C38.9954734,332.622778 39.254095,335.458022 43.2372916,335.445326 C47.7462108,335.426284 58.5680408,335.451674 60.1303696,335.407241 C63.0260836,335.326839 65.5932209,335.003113 65.5423445,333.084034 C65.5169063,332.159406 62.3795296,331.533113 58.8563402,330.9174 C56.3040418,331.829333 53.5863952,332.349833 50.7712355,332.339253 Z" id="Fill-13" fill="url(#linearGradient-2)"/>
                            <g id="Group-21" transform="translate(18.100995, 307.378049)">
                                <mask id="mask-4" fill="white">
                                    <use xlink:href="#path-3"/>
                                </mask>
                                <g id="Clip-20"/>
                                <path d="M2.07530523,0.457291656 C2.07530523,0.457291656 2.70278059,18.0252246 1.2591633,21.3725051 C-0.184453981,24.7197856 -0.725015519,28.674316 4.0616039,28.4733099 C8.56628339,28.2828831 17.3043017,27.9930112 18.8581511,27.8300904 C22.7438346,27.417499 27.2379149,27.5592612 27.1806789,25.6422978 C27.123443,23.7253343 12.9098543,23.5391392 10.3533162,21.6094807 C7.79465829,19.6798221 9.6792042,1.39249897 9.6792042,1.39249897 L2.07530523,0.457291656 Z" id="Fill-19" fill="url(#linearGradient-1)" mask="url(#mask-4)"/>
                            </g>
                            <g id="Group-24" transform="translate(18.100995, 329.510992)">
                                <mask id="mask-6" fill="white">
                                    <use xlink:href="#path-5"/>
                                </mask>
                                <g id="Clip-23"/>
                                <path d="M18.4356652,1.32600549 C15.893966,2.23793841 13.1890385,2.76267012 10.3865979,2.76267012 C6.97152086,2.76267012 3.69847374,2.02212134 0.707366564,0.712407927 C-0.227486919,3.64074939 -0.0345806445,6.5119628 4.06096795,6.34057866 C8.56564743,6.15015183 17.3036657,5.86027988 18.8575151,5.69524329 C22.7453185,5.28476768 27.2372789,5.42441402 27.180043,3.50956646 C27.1482452,2.44529207 22.7686369,1.91632866 18.4356652,1.32600549" id="Fill-22" fill="url(#linearGradient-2)" mask="url(#mask-6)"/>
                            </g>
                            <path d="M184.117804,174.157663 C189.341112,129.576626 187.325135,109.833596 186.593787,63.4540837 C185.376994,57.1340289 189.156685,52.5807118 194.047177,51.6433886 C199.090298,50.6764435 203.976551,53.8819618 205.148827,58.8245959" id="Fill-1" fill="#FAB9AF"/>
                            <path d="M57.6658329,187.356993 C59.098851,187.856334 60.6654195,187.105206 61.1678238,185.674889 C61.6108723,184.41384 60.0951801,183.677523 59.9531502,182.395316 C54.9969428,137.784658 56.2719727,110.793701 57.9956055,69.1525879 C56.498291,63.8830566 54.1714086,58.9317889 49.2851562,57.9648438 C44.2462748,56.9661608 53.0496107,66.8830494 51.8476562,71.8193359 L46.9912109,126.927734 L54.2441406,179.507813 L57.6658329,187.356993 Z" id="Fill-3" fill="#FAB9AF"/>
                            <path d="M41.4485628,318.358591 C37.8660177,293.914134 33.6581172,252.982945 34.0630083,245.803853 C34.1075252,245.027335 34.1796,244.267743 34.2749933,243.522963 C35.5977791,233.269536 35.6974121,222.89339 33.393136,212.815579 C28.1486292,189.915695 24.1124363,165.069225 23.6863467,158.287914 C22.8447665,144.828969 30.6542909,133.390664 41.1305855,132.736865 C51.6068801,132.085183 60.2049883,141.392823 61.839392,154.779829 C65.7801916,187.09103 49.8007686,316.828829 49.7371731,317.36414 C48.6836081,317.412804 42.5763226,318.130079 41.4485628,318.358591 Z" id="Fill-7" fill="url(#linearGradient-7)"/>
                            <path d="M28.5759908,317.750495 C27.5224257,317.803391 21.4172601,318.541824 20.2895004,318.770336 C16.6327605,294.338574 12.297669,253.42008 12.6813617,246.238873 C12.7237587,245.46447 12.7915939,244.704879 12.8869871,243.955867 C14.1779752,233.700324 14.2458104,223.322062 11.9076167,213.252714 C6.59527473,190.369757 2.4806475,165.538098 2.03547917,158.756787 C1.15150207,145.299958 8.92710882,133.836263 19.4012836,133.152842 C29.8754583,132.467306 38.5032444,141.74744 40.1779253,155.130214 C44.2183578,187.42872 28.6374664,317.215184 28.5759908,317.750495" id="Fill-17" fill="url(#linearGradient-8)"/>
                            <polygon id="Fill-30" fill="url(#linearGradient-9)" points="28.1412097 59.8149319 42.3653976 58.4984756 37.8649578 44.7886575 28.6648124 45.791405"/>
                            <path d="M63.5634653,168.774297 C67.2096059,164.551053 50.216895,116.330748 50.216895,116.330748 C50.216895,116.330748 58.3159527,80.716699 57.9492188,68.1506441 C57.7987095,62.9625709 53.6578311,57.4619141 48.4599609,57.4619141 L17.0751731,59.6618392 C12.2440368,59.6618392 8.22056309,63.3413087 7.82203145,68.1506441 C6.99952997,78.099388 20.0238833,115.243199 20.0238833,115.243199 C20.0238833,115.243199 -1.80844333,146.405492 5.59195012,154.879486 C14.1519011,164.684351 63.5634653,168.774297 63.5634653,168.774297 Z" id="Fill-25" fill="url(#linearGradient-10)"/>
                            <g id="Group-29" transform="translate(0.000000, 57.243902)" fill="url(#linearGradient-11)">
                                <path d="M55.1787109,23.0549257 C57.015625,12.4650819 49.4972045,0.199090725 48.5114746,0.199090725 L43.824707,0.483026272 C42.0525131,4.58355066 39.6008353,10.0098817 35.7740479,10.0098817 C31.9472605,10.0098817 27.0344456,5.92327234 25.2601318,1.82274795 L16.0216064,2.48583389 C20.7679487,12.6250046 20.512172,26.2529595 12.3486328,34.0583437 C15.7128906,46.9621522 16.6566162,57.907953 16.6566162,57.907953 C16.6566162,57.907953 -2.35996093,93.9888964 1,99.1431159 C8.10573441,110.041878 63.5630414,111.530817 63.5630414,111.530817 C67.2091819,106.217909 50.216471,59.0872685 50.216471,59.0872685 C50.216471,59.0872685 53.3417969,33.6447694 55.1787109,23.0549257 Z" id="Fill-27"/>
                            </g>
                            <path d="M123.474363,49.5929148 C123.474363,49.5929148 122.598866,57.7791526 120.00629,58.3398539 C117.413715,58.9005551 115.571566,58.8053417 114.611274,55.0687441 C113.650982,51.3342624 114.117349,45.7547563 115.069161,42.462488 C116.018854,39.1723356 117.833445,34.5089941 118.59659,34.2677868 C121.375713,33.3897075 121.13829,38.9882563 120.137721,41.8425429 C119.137152,44.6968295 118.289212,48.0208356 119.802785,48.1118173 C121.314237,48.2049148 122.81933,42.5936709 124.587284,42.1281831 C126.355238,41.6626953 123.474363,49.5929148 123.474363,49.5929148" id="Fill-34" fill="url(#linearGradient-12)" transform="translate(119.622020, 46.383636) rotate(5.000000) translate(-119.622020, -46.383636) "/>
                            <path d="M75.3332919,91.4062032 C81.7924723,88.5540325 101.91832,80.1858313 115.332726,54.1015874 C116.40325,50.9172276 121.03724,52.0492093 120.513637,55.3308984 C109.880474,122.086081 22.6486805,119.716325 9.32330863,80.7782703 C8.38421544,77.9007093 7.50023834,75.0612337 7.41332453,70.6115935 C7.30733207,65.1950081 11.3859235,59.7898746 16.5117188,59.6777344 C21.6396339,59.56771 22.9125622,66.4867349 23.0185547,71.9033203 C23.0906296,75.5849057 28.5842582,82.619063 35.2533037,87.5976667 C43.3341687,93.6299654 64.2697991,96.2895935 75.3332919,91.4062032 Z" id="Fill-36" fill="url(#linearGradient-13)"/>
                            <path d="M198.730917,305.351354 C198.730917,305.351354 197.899936,326.613568 199.81416,330.665428 C201.724144,334.717287 202.440653,339.503348 196.102304,339.260025 C190.137048,339.031513 178.569031,338.678165 176.510658,338.479275 C171.363664,337.984165 165.413247,338.153434 165.489562,335.832342 C165.565876,333.515483 184.383778,333.289086 187.771297,330.953184 C191.158815,328.617281 188.661633,306.483336 188.661633,306.483336 L198.730917,305.351354 Z" id="Fill-38" fill="url(#linearGradient-1)"/>
                            <path d="M177.068814,333.190064 C180.435134,334.29454 184.01344,334.92718 187.725296,334.92718 C192.246934,334.92718 196.582026,334.03429 200.541904,332.4474 C201.777776,335.99357 201.525514,339.469918 196.10294,339.260448 C190.137684,339.031936 178.569667,338.678589 176.509174,338.479698 C171.3643,337.984589 165.413883,338.153857 165.490198,335.832765 C165.534715,334.548442 171.332502,333.905223 177.068814,333.190064" id="Fill-40" fill="url(#linearGradient-14)"/>
                            <path d="M199.288649,317.033829 C202.803359,293.543622 202.498101,242.039512 202.129247,235.135481 C202.08897,234.390701 201.934221,233.997152 201.934221,232.943457 C201.934221,222.732347 205.749949,210.71853 207.999109,201.0385 C213.105826,179.037853 216.474266,162.493993 216.900356,155.975048 C217.752535,143.038719 210.210112,139.249225 200.140828,138.589079 C190.071545,137.931048 187.023202,128.361042 183.652642,158.740469 C180.197287,189.845634 180.224845,315.688146 186.798498,317.033829 C187.811786,317.082493 198.205406,316.81378 199.288649,317.033829 Z" id="Fill-42" fill="url(#linearGradient-15)"/>
                            <path d="M228.986464,305.508351 C228.986464,305.508351 228.176682,326.77268 230.090905,330.822424 C232.007249,334.870052 232.730118,339.658229 226.389649,339.419137 C220.426513,339.196973 208.856376,338.854204 206.798003,338.65743 C201.648889,338.166552 195.700592,338.342168 195.774787,336.021076 C195.848982,333.702101 214.666883,333.458778 218.052282,331.118643 C221.435561,328.780625 218.9193,306.650912 218.9193,306.650912 L228.986464,305.508351 Z" id="Fill-44" fill="url(#linearGradient-1)"/>
                            <path d="M207.351071,333.367796 C210.717392,334.470156 214.297817,335.098564 218.009673,335.094333 C222.531311,335.090101 226.866403,334.195095 230.824161,332.603973 C232.062153,336.145912 231.814131,339.622259 226.389437,339.419137 C220.426301,339.194857 208.856164,338.854204 206.797791,338.65743 C201.650797,338.166552 195.70038,338.342168 195.774575,336.021076 C195.816972,334.734637 201.61476,334.089302 207.351071,333.367796" id="Fill-46" fill="url(#linearGradient-14)"/>
                            <g id="Group-50" transform="translate(211.984917, 141.762195)">
                                <mask id="mask-17" fill="white">
                                    <use xlink:href="#path-16"/>
                                </mask>
                                <g id="Clip-49"/>
                                <path d="M5.08163528,175.441114 C6.09280333,175.487662 16.4864238,175.210486 17.5696667,175.428418 C21.0610583,151.936095 20.7091633,100.431986 20.3318302,93.5279551 C20.2915531,92.7831746 20.1368041,92.3875099 20.1346842,91.3338148 C20.124085,81.1227051 23.9313341,69.1067721 26.167775,59.4246258 C31.255413,37.4197478 34.6068945,20.8695404 35.0287445,14.3505953 C35.863965,1.41426605 28.3215417,-2.3688803 18.2522582,-3.01844737 C8.18085476,-3.66589859 5.12615211,-13.2337888 1.77891027,17.1498697 C-1.64252628,48.2571502 -1.49413684,174.099662 5.08163528,175.441114" id="Fill-48" fill="url(#linearGradient-18)" mask="url(#mask-17)"/>
                            </g>
                            <path d="M186.651023,55.2657301 C187.806396,49.7521973 194.241755,46.3702786 197.703613,45.4528809 C201.165471,44.5354832 205.907733,50.3823398 205.797501,55.6613947 C205.695748,60.6103764 205.301456,64.8145776 204.705779,69.3276935 C204.275449,72.3237423 203.711569,75.3049801 203.084094,78.2777545 C201.146552,77.5647118 185.125887,78.3052606 185.130127,78.2777545 C186.106919,63.1136327 186.613885,55.4429579 186.651023,55.2657301 Z" id="Fill-51" fill="url(#linearGradient-19)"/>
                            <path d="M229.034864,94.7295746 C236.096081,95.6182331 242.213966,89.8461843 241.73276,82.7559587 C240.935697,71.040477 240.33578,60.3723429 239.962686,53.241916 C239.697705,48.1998368 235.466486,44.2918551 230.408526,44.408227 C217.013057,44.7537903 206.966456,45.0129628 200.268722,45.1857445 C200.150548,45.188793 199.973287,45.1933658 199.736938,45.1994629 C195.032993,45.3073714 191.365144,48.8938368 191.087444,53.5804526 C190.705871,60.0105319 190.979331,69.7011417 190.917856,80.3206112 C190.886058,85.9995624 195.057921,90.8787209 200.70308,91.6065746 C208.109833,92.5608246 215.601379,93.0432392 222.999653,93.9699831 C225.01139,94.2217697 227.021007,94.4756721 229.034864,94.7295746 Z" id="Fill-53" fill="#F9D3CC"/>
                            <path d="M205.879847,52.5419917 C206.903056,54.3009655 207.916163,54.29868 213.58252,54.1696129 C219.259476,54.03843 222.385836,48.6223755 224.016,44.5535889 L231.186087,44.3917234 C235.811597,44.2838148 239.682442,47.8849978 239.924105,52.5419917 C240.54946,64.6785282 241.874366,88.0650587 243.748313,109.191858 C245.442072,128.317059 249.147569,144.623943 245.721892,149.928388 C245.721892,149.928388 199.042814,156.015699 185.581771,143.312114 C187.169538,130.502736 187.525673,114.119681 188.528362,97.1801563 C189.175621,86.2551013 189.827334,75.1842206 190.361069,66.091638 C190.650663,61.1581819 190.905525,56.8071237 191.106098,53.3777539 C191.373199,48.8096258 195.070216,45.2253697 199.610933,45.119577 L206.928627,44.9238818 C205.547301,48.8299725 205.197707,51.3693424 205.879847,52.5419917 Z" id="Fill-55" fill="url(#linearGradient-20)"/>
                            <path d="M213.193231,35.6932374 L214.278594,35.7503654 C218.456816,35.9682984 222.026642,32.7648959 222.247107,28.5903167 L222.90002,16.1892984 L214.244676,15.7365057 L213.193231,35.6932374 Z" id="Fill-57" fill="#00558C"/>
                            <path d="M212.385992,48.1486331 L223.608474,44.9536941 L214.041594,30.352188 L204.290288,35.3413709 L207.688407,45.6603892 C208.330721,47.615438 210.403933,48.713566 212.385992,48.1486331" id="Fill-59" fill="url(#linearGradient-21)"/>
                            <path d="M219.802931,21.5686024 C221.240833,21.8948714 222.542388,22.9805068 222.414575,25.4241532 C222.277294,27.9787606 220.628563,31.1594545 219.068205,31.7814827 C217.655012,37.9515156 211.965189,42.3992455 205.415716,42.0551862 C201.680542,41.8605276 198.979854,38.8348569 198.042881,32.9358569 C196.79641,25.0754606 197.402686,13.5567532 197.402686,13.5567532 L220.161387,14.7522106 L219.802931,21.5686024 Z" id="Combined-Shape" fill="url(#linearGradient-22)"/>
                            <g id="Group-71" transform="translate(191.928627, 0.000000)" fill="url(#linearGradient-23)">
                                <path d="M0.253294872,11.5041636 C0.117624526,8.64987702 2.20779581,-1.85322054 3.70016962,0.607517266 C5.81365924,4.0986758 12.8112813,6.8154319 15.3445011,7.50731605 C17.1972493,8.01512092 23.0247146,7.90721239 23.0247146,7.90721239 C27.6417461,8.1484197 31.1861339,12.0796758 30.9444711,16.6858892 L30.8511978,18.4737856 C30.4945633,20.8160105 30.3162461,22.4501556 30.3162461,23.3762207 C30.1185177,22.918831 29.2815171,21.4607415 28.0554581,21.6083679 C27.594248,21.663901 27.3608134,21.6769231 26.9010323,21.987123 C25.8936745,22.6667558 25.4664671,23.7250478 25.61941,25.161999 L25.3205113,25.1450721 C23.8535757,25.0689014 22.7152167,23.8649807 22.6982579,22.4219685 C22.6749395,20.0374014 21.1338092,17.9638648 18.7510987,17.8390295 L11.9315439,17.4814502 C7.78299912,17.2635173 5.50840096,19.3730234 5.34517257,22.472749 L5.4193673,25.1048709 C5.4193673,25.1048709 4.43787713,20.7271697 3.57509852,19.5422917 C2.12088199,17.5533892 0.363527029,13.9056575 0.253294872,11.5041636 Z" id="Fill-69"/>
                            </g>
                        </g>
                        <g id="Group-7" transform="translate(90.000000, 0.000000)" fill="#FF8056">
                            <path d="M51,7.99990073 C51,7.79103848 50.8618208,7.60739059 50.6611036,7.54981449 C45.8452805,6.16580427 44.8343487,5.15504597 43.4503729,0.339103352 C43.3925997,0.13818263 43.2087578,0 42.9999007,0 C42.7908451,0 42.6074003,0.13818263 42.5498257,0.338706275 C41.1654527,5.15504597 40.1547195,6.16580427 35.3388964,7.54981449 C35.1379807,7.60758913 35,7.79103848 35,7.99990073 C35,8.20896152 35.1383777,8.39260941 35.3388964,8.45018551 C40.1547195,9.83419573 41.1656513,10.844954 42.5498257,15.6610952 C42.6077974,15.8620159 42.7908451,16 42.9999007,16 C43.2087578,16 43.3925997,15.8618174 43.4499758,15.6610952 C44.8339517,10.8451526 45.8446849,9.83419573 50.6609051,8.45018551 C50.8618208,8.39260941 51,8.20896152 51,7.99990073" id="Fill-1"/>
                            <path d="M11.490528,32.3226361 C8.24114613,31.3889644 7.61201801,30.7588539 6.67775686,27.5098649 C6.59091281,27.2076791 6.31485878,27 6.00068768,27 C5.6863201,27 5.41006959,27.2082685 5.32342202,27.5098649 C4.38876791,30.7588539 3.75905035,31.3885714 0.50966844,32.3226361 C0.207875563,32.4090872 0,32.6855342 0,32.9997053 C0,33.3142693 0.207875563,33.5905199 0.50966844,33.6771674 C3.75905035,34.6110356 4.38876791,35.2409497 5.32283258,38.4903316 C5.41006959,38.7925174 5.68573066,39 6.00029472,39 C6.31446582,39 6.59091281,38.7921244 6.6773639,38.4903316 C7.61103561,35.2409497 8.24114613,34.6110356 11.4901351,33.6775604 C11.7923209,33.5905199 12,33.3146623 12,33.0002947 C12,32.6859271 11.7923209,32.4090872 11.490528,32.3226361" id="Fill-3"/>
                            <path d="M66.5857295,55.9492928 C63.5241041,55.0696782 62.9306785,54.4760254 62.0506867,51.414491 C61.9799676,51.1689122 61.7557162,51 61.5003075,51 C61.2446937,51 61.0202374,51.1693222 60.9499283,51.414491 C60.0699365,54.4760254 59.4767158,55.0696782 56.4148855,55.9492928 C56.1695209,56.0200145 56,56.2444792 56,56.5001025 C56,56.7555208 56.1695209,56.9799855 56.4146805,57.0502972 C59.4765108,57.9303218 60.0697315,58.5239746 60.9495183,61.585509 C61.0202374,61.8310878 61.2442838,62 61.4998975,62 C61.7555112,62 61.9799676,61.8306778 62.0502767,61.585509 C62.9302685,58.5239746 63.5236942,57.9303218 66.5853195,57.0502972 C66.8308891,56.9799855 67,56.7555208 67,56.5001025 C67,56.2444792 66.8308891,56.0200145 66.5857295,55.9492928" id="Fill-5"/>
                        </g>
                        <g id="Group-86" transform="translate(16.000000, 28.000000)">
                            <path d="M10.6591981,37.210766 C7.98466981,34.8895319 6,30.8452766 6,28.1111915 L6,13 L29.4488208,13 C29.4488208,13 31.2084906,21.0232128 29.5018868,28.9874468 C28.2198113,34.9611489 24.2908019,42.8032128 21.8306604,42.8032128 C18.7018868,42.8032128 15.3183962,41.2508085 10.6591981,37.210766 Z" id="Fill-76" fill="url(#linearGradient-9)" transform="translate(18.123430, 27.901606) rotate(-7.000000) translate(-18.123430, -27.901606) "/>
                            <path d="M10.0645516,5.67909917 L17.9629007,5.18199278 C20.2213913,5.03875874 22.3758724,4.314163 24.2268158,3.10931193 C26.9119573,1.36522683 30.4695045,1.66433321 32.5348346,4.10141832 C34.7678535,6.7386098 35.8949762,10.3868651 30.904646,14.1467587 C28.4254007,16.0172268 24.515495,14.367929 22.0468629,15.3452907 C21.8897875,15.3495034 21.7475705,15.3326524 21.5862497,15.3431843 L14.5772875,15.7876311 C12.1256365,15.9435034 10.5676177,18.0835885 10.5676177,20.5206736 C10.5676177,21.9993545 9.52752333,23.8972055 9.52752333,23.8972055 L6.25228748,19.8824396 L3.18082521,17.4158651 C2.51431578,16.8808438 2.10464597,16.0930566 2.05157993,15.2462907 L2.01761767,14.7491843 C1.71620257,10.0393119 5.31832521,5.97820555 10.0645516,5.67909917" id="Fill-78" fill="url(#linearGradient-24)" transform="translate(18.215904, 12.948603) rotate(-7.000000) translate(-18.215904, -12.948603) "/>
                            <path d="M103.843892,38.9970532 C103.843892,38.9970532 104.937052,47.119266 107.545778,47.6121596 C110.156627,48.1029468 111.996958,47.9576064 112.860873,44.2166702 C113.722665,40.4736277 113.109222,34.931734 112.069127,31.6815851 C111.031156,28.4314362 109.093184,23.8395213 108.322665,23.6183511 C105.518656,22.8158191 105.902854,28.3829894 106.981156,31.197117 C108.057335,34.0112447 108.991297,37.2972021 107.479976,37.4277979 C105.968656,37.5583936 104.315118,32.0165 102.532099,31.5973298 C100.751203,31.180266 103.843892,38.9970532 103.843892,38.9970532" id="Fill-80" fill="url(#linearGradient-25)" transform="translate(107.624592, 35.677441) rotate(-6.000000) translate(-107.624592, -35.677441) "/>
                            <path d="M152.961604,80.521234 C146.493915,77.6818298 126.438911,71.6281339 113.006836,45.6606445 C111.934902,42.4905381 107.804809,43.4314361 108.329102,46.6984361 C118.976271,113.156925 209.573091,103.996188 222.916016,65.2324219 C223.856346,62.367741 222.828987,54.3174187 222.916016,49.8876953 C223.02427,44.4953549 222.567287,40.1419117 217.432617,40.0302734 C212.30007,39.9186351 212.307617,47.4384766 210.055664,55.8287324 C209.079173,59.4669101 199.772217,71.7734255 193.094387,76.7297447 C185.002877,82.7350426 164.03967,85.382766 152.961604,80.521234 Z" id="Fill-82" fill="url(#linearGradient-26)"/>
                            <path d="M208.723386,38.5612161 C210.358918,35.5338183 212.519669,33.275909 217.650443,34.8165169 C225.416677,37.1484698 227.329374,45.3981682 227.326953,46.5965093 C227.324532,47.7948504 227.324532,54.4395078 224.065344,73.6154504 C224.065344,73.6154504 202.606007,67.1500366 203.00551,65.5553753 C205.84803,54.1887228 206.222886,43.1558589 208.723386,38.5612161 Z" id="Fill-84" fill="url(#linearGradient-27)"/>
                        </g>
                    </g>
                </g>
            </g>
        </g>
    </g>
</svg>