<svg width="213px" height="379px" viewBox="0 0 213 379" version="1.1" xmlns="http://www.w3.org/2000/svg" xmlns:xlink="http://www.w3.org/1999/xlink">
    <!-- Generator: Sketch 52.2 (67145) - http://www.bohemiancoding.com/sketch -->
    <title>Group 34</title>
    <desc>Created with Sketch.</desc>
    <defs>
        <linearGradient x1="50%" y1="0%" x2="50%" y2="100%" id="linearGradient-1">
            <stop stop-color="#FDC7C0" offset="0%"/>
            <stop stop-color="#FA968C" offset="100%"/>
        </linearGradient>
        <linearGradient x1="247.036396%" y1="71.6399551%" x2="118.799809%" y2="36.8295218%" id="linearGradient-2">
            <stop stop-color="#8EA2A7" offset="0%"/>
            <stop stop-color="#55696E" offset="100%"/>
        </linearGradient>
        <linearGradient x1="81.6771465%" y1="2.15735208%" x2="15.2730416%" y2="87.5507907%" id="linearGradient-3">
            <stop stop-color="#4CDFE8" offset="0%"/>
            <stop stop-color="#32C7D6" offset="46.1614884%"/>
            <stop stop-color="#25BBCC" offset="100%"/>
        </linearGradient>
        <radialGradient cx="37.0458217%" cy="50%" fx="37.0458217%" fy="50%" r="56.7645929%" gradientTransform="translate(0.370458,0.500000),scale(0.831816,1.000000),rotate(61.742742),translate(-0.370458,-0.500000)" id="radialGradient-4">
            <stop stop-color="#FA968C" offset="0%"/>
            <stop stop-color="#FAB9AF" offset="100%"/>
        </radialGradient>
        <linearGradient x1="39.0494461%" y1="-13.169384%" x2="50%" y2="54.6990872%" id="linearGradient-5">
            <stop stop-color="#008EC0" offset="0%"/>
            <stop stop-color="#00558C" offset="100%"/>
        </linearGradient>
        <polygon id="path-6" points="0.360708596 0.0163787631 74.0320479 0.0163787631 74.0320479 148.276788 0.360708596 148.276788"/>
        <polygon id="path-8" points="0 148.276788 77.1664711 148.276788 77.1664711 0 0 0"/>
        <linearGradient x1="21.9224388%" y1="58.6076328%" x2="80.2162535%" y2="50%" id="linearGradient-10">
            <stop stop-color="#FDDDD8" offset="0%"/>
            <stop stop-color="#FAB9AF" offset="100%"/>
        </linearGradient>
        <polygon id="path-11" points="0 0 21.7735304 0 21.7735304 11.5986283 0 11.5986283"/>
        <linearGradient x1="50%" y1="0%" x2="50%" y2="100%" id="linearGradient-13">
            <stop stop-color="#FFE5E1" offset="0%"/>
            <stop stop-color="#FDC7BF" offset="100%"/>
        </linearGradient>
        <linearGradient x1="78.0414584%" y1="87.9075291%" x2="0%" y2="50%" id="linearGradient-14">
            <stop stop-color="#88EAF0" offset="0%"/>
            <stop stop-color="#50D1DD" offset="100%"/>
        </linearGradient>
        <polygon id="path-15" points="0 0 21.443662 0 21.443662 11.3427762 0 11.3427762"/>
    </defs>
    <g id="Desktop_illustration" stroke="none" stroke-width="1" fill="none" fill-rule="evenodd">
        <g id="Group-34" transform="translate(-6.000000, 0.000000)">
            <g id="Group-23" transform="translate(6.000000, 0.000000)">
                <polygon id="Fill-1" fill-opacity="0.455502717" fill="#69CFEB" points="92 54.5 136 54.5 136 0.5 92 0.5"/>
                <polygon id="Fill-2" fill-opacity="0.463654891" fill="#4A90E2" points="140 77.5 164 77.5 164 53.5 140 53.5"/>
                <polygon id="Fill-3" fill-opacity="0.0929291214" fill="#4A90E2" points="140 45.5 156 45.5 156 29.5 140 29.5"/>
                <polygon id="Fill-4" fill="#EEF4FC" points="113 107.5 153 107.5 153 91.5 113 91.5"/>
                <polygon id="Fill-5" fill-opacity="0.485931839" fill="#02A8CA" points="63 46.5 87 46.5 87 5.5 63 5.5"/>
                <polygon id="Fill-6" fill="#F6F8F9" points="75 83.5 137 83.5 137 59.5 75 59.5"/>
                <polygon id="Fill-7" fill-opacity="0.463654891" fill="#4A90E2" points="0 141.5 213 141.5 213 137.5 0 137.5"/>
            </g>
            <path d="M94.7955523,378.729233 C85.9652232,378.062441 76.9066234,375.56804 73.7976377,372.447369 C71.5217647,370.164528 68.1613334,368.098623 63.7260621,366.679267 C55.6785151,364.104892 50.9025302,361.239569 51.0015089,358.518347 C51.1795316,353.623969 67.0588935,350.638927 89.2176965,350.682617 C94.977985,350.693607 100.411518,349.829739 104.414329,348.093158 C110.036605,345.653177 118.975504,344.470588 128.98346,345.226305 C143.731879,346.339982 156.6112,351.484614 158.615241,357.318238 C159.325747,359.384898 161.407306,361.358241 164.228741,363.093964 C166.523187,364.504865 167.755226,365.936638 167.704517,367.330781 C167.520501,372.389934 150.560412,375.409161 127.230377,375.15233 C121.958983,375.094085 117.007182,375.797927 113.021297,377.198206 C108.894671,378.648426 102.250735,379.292186 94.7955523,378.729233 Z" id="Fill-1-Copy" fill-opacity="0.310000002" fill="#4A90E2"/>
            <g id="Group" transform="translate(0.000000, 86.000000)">
                <path d="M159.772136,257.504249 C159.772136,257.504249 159.255342,272.233237 160.445815,275.040085 C161.633651,277.846932 162.079254,281.162384 158.137379,280.993826 C154.427533,280.835529 147.233281,280.590754 145.95316,280.452977 C142.752199,280.109999 139.051583,280.227256 139.099043,278.619365 C139.146504,277.014405 150.849523,276.857573 152.956251,275.239422 C155.062979,273.621271 153.50996,258.288408 153.50996,258.288408 L159.772136,257.504249 Z" id="Fill-38" fill="url(#linearGradient-1)" transform="translate(150.190141, 269.252125) scale(-1, 1) translate(-150.190141, -269.252125) "/>
                <g id="Group-2" transform="translate(120.873239, 264.390935) rotate(2.000000) translate(-120.873239, -264.390935) translate(109.781690, 252.643059)">
                    <path d="M20.6735447,0 C20.6735447,0 20.1567503,14.7289877 21.347223,17.5358353 C22.5350591,20.3426829 22.9806624,23.6581343 19.038787,23.4895768 C15.3289417,23.3312794 8.13468961,23.0865047 6.85456888,22.9487274 C3.65360789,22.6057496 -0.047008888,22.723007 0.000451818723,21.1151157 C0.0479125255,19.5101558 11.7509318,19.3533241 13.8576598,17.7351728 C15.9643879,16.1170215 14.4113681,0.784158468 14.4113681,0.784158468 L20.6735447,0 Z" id="Fill-38-Copy" fill="url(#linearGradient-1)"/>
                    <path d="M7.20247321,19.1637607 C9.29636003,19.9507758 11.5221037,20.4015756 13.8309172,20.4015756 C16.6434239,20.4015756 19.3398965,19.7653297 21.8029825,18.6345609 C22.571708,21.1614522 22.4147983,23.6385898 19.0419,23.4893283 C15.3314482,23.3264976 8.13601972,23.0747131 6.85437111,22.93299 C3.65420529,22.5801902 -0.0470165742,22.7008055 0.000451892938,21.0468677 C0.0281418321,20.1316988 3.63442676,19.6733605 7.20247321,19.1637607" id="Fill-40-Copy" fill="#415050"/>
                </g>
                <path d="M146.301065,276.66801 C148.394952,277.455025 150.620695,277.905825 152.929509,277.905825 C155.742015,277.905825 158.438488,277.269579 160.901574,276.13881 C161.6703,278.665702 161.51339,281.142839 158.140492,280.993578 C154.43004,280.830747 147.234611,280.578962 145.952963,280.437239 C142.752797,280.084439 139.051575,280.205055 139.099043,278.551117 C139.126733,277.635948 142.733018,277.17761 146.301065,276.66801" id="Fill-40" fill="#415050" transform="translate(150.190141, 278.569405) scale(-1, 1) translate(-150.190141, -278.569405) "/>
                <path d="M122.820025,263.009138 C125.823017,244.435505 126.07167,203.794774 125.845666,198.350373 C125.820901,197.763057 125.702267,197.454103 125.712293,196.622591 C125.809451,188.564605 128.941296,179.044307 130.812069,171.382001 C135.059871,153.967266 137.881096,140.876791 138.280082,135.728 C139.077085,125.510564 133.148481,122.598647 125.191823,122.182527 C117.235145,121.768077 114.915528,114.247746 111.960982,138.25643 C108.932474,162.838706 107.75689,262.145673 112.942628,263.139168 C113.743488,263.167022 121.965474,262.846766 122.820025,263.009138 Z" id="Fill-42" fill="url(#linearGradient-2)" transform="translate(123.861480, 191.943640) rotate(-8.000000) translate(-123.861480, -191.943640) "/>
                <path d="M138.263528,263.170874 C135.489186,244.60242 135.730142,203.889637 136.021297,198.432164 C136.05309,197.843433 136.175241,197.532342 136.175241,196.699421 C136.175241,188.62778 133.163289,179.131141 131.387911,171.479305 C127.356915,154.088314 124.698031,141.010784 124.361696,135.857711 C123.689027,125.631849 129.642652,122.636343 137.590859,122.114513 C145.539066,121.594356 147.945281,114.029492 150.605838,138.043711 C153.333328,162.631609 153.311575,262.107143 148.122651,263.170874 C147.32281,263.209342 139.118588,262.99693 138.263528,263.170874 Z" id="Fill-42-Copy" fill="url(#linearGradient-2)"/>
                <path d="M135.71492,76.6553654 C139.853782,77.4914903 143.730198,74.0925164 143.760024,69.6089517 C143.807832,62.1965579 143.926234,55.4524109 144.022851,50.9464316 C144.090682,47.7597849 140.893276,44.8428005 137.895787,44.7189711 L121.133819,44.0642141 C118.346583,43.9487326 115.466233,46.313498 115.093075,49.2544789 C114.581034,53.2909988 114.312499,59.4064836 113.806027,66.0922265 C113.534681,69.6707368 115.786779,72.9052317 119.094594,73.5834279 C123.433087,74.4731231 127.84463,75.069456 132.17978,75.9420896 C133.357397,76.1794466 134.537311,76.4167881 135.71492,76.6553654 Z" id="Fill-15" fill="#FAB9AF" transform="translate(128.903911, 60.421269) rotate(-4.000000) translate(-128.903911, -60.421269) "/>
                <path d="M123.620876,43.7724937 C124.766294,47.1113243 127.408283,49.7621728 131.701609,49.9348247 C136.00227,50.1090081 138.894725,47.6841156 140.360832,44.4524012 C142.999103,44.2411664 145.32044,44.6925208 147.324843,45.8064644 C150.331449,47.4773798 150.239949,48.5232284 150.568772,52.2559703 C151.507745,62.9150126 151.529527,65.5467166 151.691386,85.1025441 C151.823432,101.056453 151.114362,118.174269 150.238566,127.671305 C145.884894,130.195984 116.110768,138.872912 106.664056,127.86027 C106.626014,114.518111 111.108117,100.869667 112.844287,87.1283941 C114.571141,73.452512 111.806379,59.1001073 112.801447,51.1889864 C113.267695,47.4813968 116.426659,43.48241 119.865139,43.6208181 L123.620876,43.7724937 Z" id="Fill-17" fill="url(#linearGradient-3)" transform="translate(129.185545, 88.462058) rotate(-5.000000) translate(-129.185545, -88.462058) "/>
                <g id="Group-25" transform="translate(134.706910, 28.304404) scale(-1, 1) rotate(-30.000000) translate(-134.706910, -28.304404) translate(121.766770, 6.023950)">
                    <path d="M14.8997237,33.4167186 L15.4458172,33.4873213 C19.6088701,34.032531 23.3932981,30.8397201 23.8975245,26.3525264 L25.2518364,14.3500677 L17.1660118,13.2929884 L14.8997237,33.4167186 Z" id="Fill-19" fill="#00558C"/>
                    <polygon id="Fill-21" fill="url(#radialGradient-4)" transform="translate(13.949069, 33.907059) rotate(34.000000) translate(-13.949069, -33.907059) " points="22.0630476 40.3728938 15.5090086 27.1577187 5.83508954 31.3655965 8.51170895 40.6563994"/>
                    <path d="M7.82021241,36.2942961 C13.9123035,37.072757 19.4849506,32.2276511 20.2661568,25.4755308 L21.8438962,11.852758 L2.92454599,9.43742737 C2.92454599,9.43742737 1.69284923,20.0720257 2.2404443,27.4251628 C2.65195118,32.9400101 4.7150335,35.8991887 7.82021241,36.2942961" id="Fill-25" fill="#FAB9AF" transform="translate(11.972007, 22.906910) rotate(-4.000000) translate(-11.972007, -22.906910) "/>
                    <polygon id="Fill-27" fill="#00558C" points="19.2210769 17.036781 22.7266134 17.3796066 22.5333697 18.6571776 19.0294303 18.314352"/>
                    <path d="M17.586459,24.0338549 C17.2506577,26.7108277 18.3028352,29.0402827 19.9333372,29.2321415 C21.5638393,29.4240002 23.8006493,26.1225815 24.1364506,23.4456087 C24.4703864,20.765016 22.7764552,19.7224627 21.1459532,19.5306039 C19.5154511,19.3369352 17.9222604,21.3550722 17.586459,24.0338549" id="Fill-29" fill="#FAB9AF"/>
                    <path d="M0.692034529,14.7651755 C0.404543291,12.7447293 0.518454914,10.6767675 1.02834503,8.71416639 C1.02834503,8.71416639 1.68650108,1.70664749 4.2287192,0.706753869 C6.54492219,-0.200174432 10.1051124,1.86985326 12.4176992,2.79124284 C14.1119086,3.4667908 19.5453121,3.77874108 19.5453121,3.77874108 C23.8287508,4.36958731 26.3032294,8.12097205 25.7842986,13.0150794 L24.9517889,16.3843032 L22.2593018,18.8143315 L20.8616242,22.3573429 L20.5831736,22.3180909 C19.2234666,22.1300944 18.2398488,20.7645372 18.317598,19.2254447 C18.4441665,16.6843928 17.1459356,14.3602599 14.9327955,14.0524414 L8.60618013,13.1744356 C4.75488241,12.6414345 2.50377177,14.7259235 2.15480441,18.0168956 L2.05535776,20.82858 L0.692034529,14.7651755 Z" id="Fill-31" fill="url(#linearGradient-5)"/>
                </g>
                <g id="Group-28" transform="translate(111.236116, 108.153114) scale(-1, 1) rotate(51.000000) translate(-111.236116, -108.153114) translate(42.838229, 21.461896)">
                    <g transform="translate(68.426952, 86.747741) rotate(-30.000000) translate(-68.426952, -86.747741) translate(29.236811, 12.209498)">
                        <g id="Group-3" transform="translate(3.014315, 0.000000)">
                            <mask id="mask-7" fill="white">
                                <use xlink:href="#path-6"/>
                            </mask>
                            <g id="Clip-2"/>
                            <path d="M64.6667618,0.0163787631 L9.72607358,0.0163787631 C4.55367303,0.0163787631 0.360708596,4.56003423 0.360708596,10.1641893 L0.360708596,138.129148 C0.360708596,143.733303 4.55367303,148.276959 9.72607358,148.276959 L64.6667618,148.276959 C69.8391623,148.276959 74.0321267,143.733303 74.0321267,138.128294 L74.0321267,10.1641893 C74.0321267,4.56003423 69.8391623,0.0163787631 64.6667618,0.0163787631" id="Fill-1" fill="#214A81" mask="url(#mask-7)"/>
                        </g>
                        <path d="M39.1860986,143.028052 C35.8617753,143.028052 33.1574681,140.085678 33.1574681,136.467588 C33.1574681,132.848586 35.8617753,129.906212 39.1860986,129.906212 C42.5104219,129.906212 45.2147292,132.848586 45.2147292,136.467588 C45.2147292,140.085678 42.5104219,143.028052 39.1860986,143.028052" id="Fill-4" fill="#FFFFFF"/>
                        <path d="M34.3551498,5.90482784 C34.0271585,5.90482784 33.7603311,6.34601493 33.7603311,6.88833374 C33.7603311,7.43191669 34.0271585,7.87310379 34.3551498,7.87310379 L47.0305982,7.87310379 C47.359354,7.87310379 47.6261814,7.43191669 47.6261814,6.88833374 C47.6261814,6.34601493 47.359354,5.90482784 47.0305982,5.90482784 L34.3551498,5.90482784 Z" id="Fill-6" fill="#FFFFFF"/>
                        <path d="M31.013471,7.58350531 C30.9716539,7.53429249 30.9315792,7.48507968 30.9002164,7.43113486 C30.8679824,7.38192205 30.8357484,7.32229883 30.8139686,7.26456842 C30.7913177,7.2049452 30.7773787,7.14626839 30.7634396,7.08285957 C30.7547277,7.01850435 30.7460158,6.95414913 30.7460158,6.89074031 C30.7460158,6.8225995 30.7547277,6.75824428 30.7634396,6.69483546 C30.7773787,6.63521224 30.7956736,6.57180343 30.8183246,6.51312661 C30.8409755,6.45350339 30.8679824,6.39482658 30.9002164,6.34088176 C30.9315792,6.28693695 30.9716539,6.23677773 31.013471,6.19324332 C31.0535457,6.14876251 31.0988475,6.1052281 31.1485053,6.07021129 C31.1972919,6.03614088 31.2521769,6.00680247 31.3061906,5.98219606 C31.3610756,5.95758966 31.4150893,5.93866165 31.473459,5.92257285 C31.5919407,5.89891284 31.7139073,5.89891284 31.8271619,5.92257285 C31.8855316,5.93866165 31.9439013,5.95758966 31.9987862,5.98219606 C32.0527999,6.00680247 32.1024577,6.03614088 32.1521155,6.07021129 C32.2017733,6.1052281 32.2470752,6.14876251 32.292377,6.19324332 C32.3333229,6.23677773 32.3699129,6.28693695 32.4056316,6.34088176 C32.4369944,6.39482658 32.4648725,6.45350339 32.4866522,6.51312661 C32.5093032,6.57180343 32.5275981,6.63521224 32.53631,6.69483546 C32.5502491,6.75824428 32.554605,6.8225995 32.554605,6.89074031 C32.554605,6.95414913 32.5502491,7.01850435 32.540666,7.08285957 C32.5275981,7.14626839 32.5093032,7.2049452 32.4866522,7.26456842 C32.4648725,7.32229883 32.4369944,7.38192205 32.4056316,7.43113486 C32.3742688,7.48507968 32.3333229,7.53429249 32.292377,7.58350531 C32.2470752,7.62798612 32.2017733,7.67246693 32.1521155,7.70653734 C32.1024577,7.74060775 32.0527999,7.76994616 31.9987862,7.79455257 C31.9439013,7.81915897 31.8855316,7.83903338 31.8271619,7.85322938 C31.7722769,7.86363979 31.7086801,7.87310379 31.6503104,7.87310379 C31.4107333,7.87310379 31.1842241,7.76994616 31.013471,7.58350531 Z" id="Fill-8" fill="#FFFFFF"/>
                        <mask id="mask-9" fill="white">
                            <use xlink:href="#path-8"/>
                        </mask>
                        <g id="Clip-11"/>
                        <polygon id="Fill-10" fill="#FFFFFF" mask="url(#mask-9)" points="9.04294584 124.001385 71.1378406 124.001385 71.1378406 13.1218396 9.04294584 13.1218396"/>
                        <polygon id="Fill-12" fill="#4A90E2" mask="url(#mask-9)" points="9.04294584 24.2754033 71.1378406 24.2754033 71.1378406 13.1218396 9.04294584 13.1218396"/>
                        <path d="M17.4830286,18.6986215 C17.4830286,19.9663414 16.5378774,20.9949434 15.3730079,20.9949434 C14.2072306,20.9949434 13.2629872,19.9663414 13.2629872,18.6986215 C13.2629872,17.4299135 14.2072306,16.4022996 15.3730079,16.4022996 C16.5378774,16.4022996 17.4830286,17.4299135 17.4830286,18.6986215" id="Fill-13" fill="#FFFFFF" mask="url(#mask-9)"/>
                        <path d="M21.4016385,20.9949434 C20.2358611,20.9949434 19.2916178,19.9663414 19.2916178,18.6986215 C19.2916178,17.4299135 20.2358611,16.4022996 21.4016385,16.4022996 C22.5665079,16.4022996 23.5116592,17.4299135 23.5116592,18.6986215 C23.5116592,19.9663414 22.5665079,20.9949434 21.4016385,20.9949434 Z" id="Fill-14" fill="#02A8CA" mask="url(#mask-9)"/>
                        <path d="M28.9374267,18.6986215 C28.9374267,19.9663414 27.9922754,20.9949434 26.827406,20.9949434 C25.6616286,20.9949434 24.7173853,19.9663414 24.7173853,18.6986215 C24.7173853,17.4299135 25.6616286,16.4022996 26.827406,16.4022996 C27.9922754,16.4022996 28.9374267,17.4299135 28.9374267,18.6986215" id="Fill-15" fill="#FFFFFF" mask="url(#mask-9)"/>
                        <path d="M64.1705725,119.69172 L14.6064454,119.69172 C12.9782458,119.69172 11.6568084,118.259859 11.6568084,116.493698 L11.6568084,103.206983 C11.6568084,101.441675 12.9782458,100.008961 14.6064454,100.008961 L64.1705725,100.008961 C65.7995587,100.008961 67.1202095,101.441675 67.1202095,103.206983 L67.1202095,116.493698 C67.1202095,118.259859 65.7995587,119.69172 64.1705725,119.69172" id="Fill-16" fill="#02A8CA" mask="url(#mask-9)"/>
                        <path d="M59.7137236,108.538157 L32.3262816,108.538157 C31.89822,108.538157 31.5512892,108.117721 31.5512892,107.598965 L31.5512892,107.509072 C31.5512892,106.991253 31.89822,106.569881 32.3262816,106.569881 L59.7137236,106.569881 C60.1417851,106.569881 60.4887159,106.991253 60.4887159,107.509072 L60.4887159,107.598965 C60.4887159,108.117721 60.1417851,108.538157 59.7137236,108.538157" id="Fill-17" fill="#EBF5FF" mask="url(#mask-9)"/>
                        <path d="M48.2447516,112.474709 L32.3408555,112.474709 C31.9047441,112.474709 31.5512892,112.054473 31.5512892,111.535963 L31.5512892,111.446114 C31.5512892,110.927604 31.9047441,110.506433 32.3408555,110.506433 L48.2447516,110.506433 C48.680863,110.506433 49.0343179,110.927604 49.0343179,111.446114 L49.0343179,111.535963 C49.0343179,112.054473 48.680863,112.474709 48.2447516,112.474709" id="Fill-18" fill="#EBF5FF" mask="url(#mask-9)"/>
                        <path d="M27.3312479,109.522295 C27.3312479,112.603233 25.0371244,115.099076 22.2069119,115.099076 C19.3774674,115.099076 17.0825759,112.603233 17.0825759,109.522295 C17.0825759,106.442193 19.3774674,103.945513 22.2069119,103.945513 C25.0371244,103.945513 27.3312479,106.442193 27.3312479,109.522295" id="Fill-19" fill="#EBF5FF" mask="url(#mask-9)"/>
                        <path d="M65.174633,53.1434506 L15.609803,53.1434506 C13.9807937,53.1434506 12.6601242,51.7115895 12.6601242,49.9462814 L12.6601242,36.6587131 C12.6601242,34.893405 13.9807937,33.4606911 15.609803,33.4606911 L65.174633,33.4606911 C66.8028558,33.4606911 68.1235253,34.893405 68.1235253,36.6587131 L68.1235253,49.9462814 C68.1235253,51.7115895 66.8028558,53.1434506 65.174633,53.1434506" id="Fill-20" fill-opacity="0.485931839" fill="#02A8CA" mask="url(#mask-9)"/>
                        <path d="M60.7162667,41.9898869 L33.3295974,41.9898869 C32.9015358,41.9898869 32.554605,41.5694511 32.554605,41.0506953 L32.554605,40.9608025 C32.554605,40.4420466 32.9015358,40.0216109 33.3295974,40.0216109 L60.7162667,40.0216109 C61.1451009,40.0216109 61.4920317,40.4420466 61.4920317,40.9608025 L61.4920317,41.0506953 C61.4920317,41.5694511 61.1451009,41.9898869 60.7162667,41.9898869" id="Fill-21" fill="#FFFFFF" mask="url(#mask-9)"/>
                        <path d="M49.2480673,45.9264388 L33.3441713,45.9264388 C32.9080599,45.9264388 32.554605,45.506003 32.554605,44.9872471 L32.554605,44.8973544 C32.554605,44.3785985 32.9080599,43.9581628 33.3441713,43.9581628 L49.2480673,43.9581628 C49.6841787,43.9581628 50.0376336,44.3785985 50.0376336,44.8973544 L50.0376336,44.9872471 C50.0376336,45.506003 49.6841787,45.9264388 49.2480673,45.9264388" id="Fill-22" fill="#FFFFFF" mask="url(#mask-9)"/>
                        <path d="M28.3237065,42.2922745 C28.3237065,45.3726074 26.0294111,47.8686384 23.1997545,47.8686384 C20.3693299,47.8686384 18.0750345,45.3726074 18.0750345,42.2922745 C18.0750345,39.2119415 20.3693299,36.7150747 23.1997545,36.7150747 C26.0294111,36.7150747 28.3237065,39.2119415 28.3237065,42.2922745" id="Fill-23" fill="#FFFFFF" mask="url(#mask-9)"/>
                        <path d="M64.5710252,85.2919577 L15.0068981,85.2919577 C13.3779119,85.2919577 12.0572611,83.8600346 12.0572611,82.09465 L12.0572611,68.806506 C12.0572611,67.0411213 13.3779119,65.6091982 15.0068981,65.6091982 L64.5710252,65.6091982 C66.1992249,65.6091982 67.5206622,67.0411213 67.5206622,68.806506 L67.5206622,82.09465 C67.5206622,83.8600346 66.1992249,85.2919577 64.5710252,85.2919577" id="Fill-24" fill-opacity="0.310000002" fill="#4A90E2" mask="url(#mask-9)"/>
                        <path d="M60.7170393,73.482302 L33.3295974,73.482302 C32.9015358,73.482302 32.554605,73.0618663 32.554605,72.5431104 L32.554605,72.4532177 C32.554605,71.9353982 32.9015358,71.5140261 33.3295974,71.5140261 L60.7170393,71.5140261 C61.1451009,71.5140261 61.4920317,71.9353982 61.4920317,72.4532177 L61.4920317,72.5431104 C61.4920317,73.0618663 61.1451009,73.482302 60.7170393,73.482302" id="Fill-25" fill="#EBF5FF" mask="url(#mask-9)"/>
                        <path d="M49.2480673,78.0749459 L33.3441713,78.0749459 C32.9080599,78.0749459 32.554605,77.6545102 32.554605,77.1357543 L32.554605,77.0458616 C32.554605,76.5271057 32.9080599,76.1066699 33.3441713,76.1066699 L49.2480673,76.1066699 C49.6841787,76.1066699 50.0376336,76.5271057 50.0376336,77.0458616 L50.0376336,77.1357543 C50.0376336,77.6545102 49.6841787,78.0749459 49.2480673,78.0749459" id="Fill-26" fill="#EBF5FF" mask="url(#mask-9)"/>
                        <path d="M28.3345636,75.1229499 C28.3345636,78.2032829 26.0402683,80.6993138 23.2106117,80.6993138 C20.380187,80.6993138 18.0858917,78.2032829 18.0858917,75.1229499 C18.0858917,72.0417811 20.380187,69.5457501 23.2106117,69.5457501 C26.0402683,69.5457501 28.3345636,72.0417811 28.3345636,75.1229499" id="Fill-27" fill="#EBF5FF" mask="url(#mask-9)"/>
                    </g>
                </g>
                <path d="M103.767061,97.3796663 C103.200264,96.8194854 101.836736,94.4055816 102.969133,92.9992614 C104.101529,91.5929412 105.954848,92.4697566 106.661132,92.8328679 C123.97788,101.735671 133.684922,114.874739 146.544714,104.121483 C156.406769,95.874911 163.702113,85.2175727 167.122671,71.8625698 C168.260915,67.4143952 172.211935,65.2932406 175.790478,65.8137928 C179.479783,66.3495656 181.377964,69.7636868 180.636078,73.295219 C177.860145,86.3919083 172.596059,98.8556554 153.384137,111.969262 C132.148135,126.48021 125.54399,118.902396 103.767061,97.3796663 Z" id="Fill-33" fill="url(#linearGradient-10)" transform="translate(141.663766, 92.586973) rotate(-50.000000) translate(-141.663766, -92.586973) "/>
                <g id="Group-27" transform="translate(79.786929, 92.053394) rotate(16.000000) translate(-79.786929, -92.053394) translate(47.621436, 64.506652)">
                    <path d="M11.9727044,30.7755397 C9.70245271,27.7390052 1.94747473,15.6437169 3.07987131,14.2373967 C4.21226789,12.8310765 6.24950826,13.6152279 6.7718704,14.0710032 C21.6759269,27.0752027 25.2055023,35.3473633 39.9337722,33.8780524 C42.620914,33.6099797 44.5031167,33.4341231 45.5803803,33.3504827 C44.5877781,34.9183989 43.2594029,36.4285018 41.5952546,37.8807916 C39.0990321,40.0592262 25.2892883,48.5868975 11.9727044,30.7755397 Z" id="Fill-33-Copy" fill="url(#linearGradient-10)" transform="translate(24.274000, 27.635795) scale(-1, 1) rotate(-50.000000) translate(-24.274000, -27.635795) "/>
                    <g id="Group-41-Copy" transform="translate(53.108116, 32.829044) scale(-1, -1) translate(-53.108116, -32.829044) translate(42.016567, 26.752556)">
                        <mask id="mask-12" fill="white">
                            <use xlink:href="#path-11"/>
                        </mask>
                        <g id="Clip-40"/>
                        <path d="M13.4482932,9.86817604 C13.4482932,9.86817604 20.9972807,8.99991762 21.5300858,6.28007195 C22.0628908,3.55813409 21.9823292,1.62285929 18.5456449,0.587225743 C15.1089606,-0.446315611 9.96400431,0.00978158582 6.92463512,0.986833838 C4.62130593,1.72956092 1.4794038,4.26947834 0,5.79886848 L7.72109632,5.79886848 C10.8886317,5.80096067 12.0421272,4.68373176 12.1062103,5.99762644 C12.18311,7.58978225 7.00336576,9.13381771 6.56393889,10.9895893 C6.12451202,12.845361 13.4482932,9.86817604 13.4482932,9.86817604" id="Fill-39" fill="url(#linearGradient-13)" mask="url(#mask-12)"/>
                    </g>
                </g>
                <path d="M146.459506,50.7536888 L146.530388,50.6134427 C146.64704,50.388956 146.774445,50.1658886 146.912495,49.947699 C149.521056,45.8025092 156.463504,45.8285746 159.185996,46.5412588 C161.908489,47.2539431 163.242617,51.7925558 161.092991,57.4663499 C159.471681,61.7456883 157.241818,65.2057576 154.609428,68.5448079 C152.832397,70.7484395 150.960347,72.8822335 149.035331,74.9829927 C147.832047,73.6198077 133.978565,67.4795162 133.995411,67.4583011 C136.24883,64.6242312 145.010993,53.5681352 146.459506,50.7536888 Z" id="Fill-13" fill="url(#linearGradient-14)" transform="translate(148.077669, 60.581118) rotate(-70.000000) translate(-148.077669, -60.581118) "/>
                <g id="Group-41" transform="translate(112.848592, 120.580737) scale(1, -1) translate(-112.848592, -120.580737) translate(102.126761, 114.909348)">
                    <mask id="mask-16" fill="white">
                        <use xlink:href="#path-15"/>
                    </mask>
                    <g id="Clip-40"/>
                    <path d="M13.2445519,9.65049569 C13.2445519,9.65049569 20.6791724,8.80139002 21.2039055,6.14154095 C21.7286386,3.47964584 21.6492975,1.58706092 18.2646789,0.574272234 C14.8800602,-0.436470414 9.8130499,0.00956581554 6.81972707,0.965065444 C4.55129326,1.69140885 1.45699087,4.17529867 0,5.67095227 L7.60412191,5.67095227 C10.7236692,5.67299831 11.8596893,4.58041415 11.9228015,5.86532585 C11.9985362,7.42236058 6.89726495,8.93233644 6.46449539,10.7471719 C6.03172582,12.5620074 13.2445519,9.65049569 13.2445519,9.65049569" id="Fill-39" fill="url(#linearGradient-13)" mask="url(#mask-16)"/>
                </g>
            </g>
        </g>
    </g>
</svg>