<svg width="1139px" height="418px" viewBox="0 0 1139 418" version="1.1" xmlns="http://www.w3.org/2000/svg" xmlns:xlink="http://www.w3.org/1999/xlink">
    <!-- Generator: Sketch 52.2 (67145) - http://www.bohemiancoding.com/sketch -->
    <title>Path 2</title>
    <desc>Created with Sketch.</desc>
    <g id="Desktop_illustration" stroke="none" stroke-width="1" fill="none" fill-rule="evenodd">
        <path d="M-1.90686005,196.532315 C203.394441,246.020171 311.845873,267.269571 323.447435,260.280515 C340.849779,249.796931 282.930046,195.36691 403.002123,193.894326 C523.0742,192.421741 712.099886,268.307552 741.49958,259.935001 C794.914759,244.723234 639.156058,154.822873 798.598857,113.510919 C904.894057,85.9696159 1028.7469,81.9764152 1170.15737,101.531317 L1150.53734,212.802077 C1001.98097,194.607972 907.464576,190.28561 866.988139,199.834993 C806.273483,214.159067 955.320498,342.85277 853.916185,373.894326 C806.215966,388.49616 598.002123,301.331861 527.002123,302.421759 C456.002123,303.511656 575.607592,373.894326 421.607592,373.894326 C318.940925,373.894326 171.002055,353.153407 -22.2090169,311.671569 L-1.90686005,196.532315 Z" id="Path-2" fill="#EEF4FC" fill-rule="nonzero" transform="translate(573.974178, 232.448095) rotate(-10.000000) translate(-573.974178, -232.448095) "/>
    </g>
</svg>