<svg width="73px" height="72px" viewBox="0 0 73 72" version="1.1" xmlns="http://www.w3.org/2000/svg" xmlns:xlink="http://www.w3.org/1999/xlink">
    <!-- Generator: Sketch 57.1 (83088) - https://sketch.com -->
    <title>sme</title>
    <desc>Created with Sketch.</desc>
    <g id="Modal" stroke="none" stroke-width="1" fill="none" fill-rule="evenodd">
        <g id="sme" fill-rule="nonzero">
            <path d="M53.62,11.9 L69.5,11.9 C70.3301289,11.9026479 71.1252056,12.234957 71.71032,12.8238222 C72.2954344,13.4126873 72.6226564,14.2098711 72.620016,15.04 L72.620016,71.9 L53.62,71.9 L53.62,11.9 Z" id="Fill-6-2" fill="#E4E7E7"/>
            <path d="M53.62,23.6099133 L62.27,23.6099133 C62.8879612,23.6046728 63.4827261,23.8450598 63.9234416,24.2782737 C64.3641571,24.7114876 64.6147184,25.3020384 64.62,25.92 L64.62,34.31 C64.6147184,34.9279616 64.3641571,35.5185124 63.9234416,35.9517263 C63.4827261,36.3849402 62.8879612,36.6253272 62.27,36.6200867 L53.62,36.6200867 L53.62,23.6099133 Z" id="Fill-10" fill="#ACB2BA"/>
            <path d="M53.62,50.61 L62.29,50.61 C62.9034494,50.6019922 63.4946745,50.8393999 63.9322252,51.269439 C64.3697759,51.6994781 64.6173849,52.2865039 64.62,52.9 L64.62,61.31 C64.6173633,61.924396 64.3700736,62.5124291 63.9328202,62.9440526 C63.4955668,63.3756761 62.9043786,63.6153252 62.29,63.6100869 L53.62,63.6100869 L53.62,50.61 Z" id="Fill-12" fill="#ACB2BA"/>
            <path d="M4.39,0.9 L50.72,0.9 C51.7375198,0.902642827 52.7121654,1.31007529 53.4288432,2.03238152 C54.1455211,2.75468774 54.5453169,3.7324907 54.5400524,4.75 L54.5400524,71.9 L0.539947639,71.9 L0.539947639,4.75 C0.534683131,3.7324907 0.934478899,2.75468774 1.65115676,2.03238152 C2.36783463,1.31007529 3.34248024,0.902642827 4.36,0.9" id="Fill-14" fill="#FFFFFF"/>
            <path d="M21.92,58.9 L33.21,58.9 C34.4010752,58.8662614 35.3965495,59.7992395 35.44,60.99 L35.44,71.86 L19.72,71.86 L19.72,60.99 C19.7634505,59.7992395 20.7589248,58.8662614 21.95,58.9" id="Fill-16" fill="#ACB2BA"/>
            <path d="M13.22,9.86 L19.92,9.86 C21.3246224,9.81475472 22.505109,10.906148 22.57,12.31 L22.57,15.38 C22.5157796,16.790283 21.3304155,17.8906588 19.92,17.84 L13.22,17.84 C11.8095845,17.8906588 10.6242204,16.790283 10.57,15.38 L10.57,12.31 C10.6242557,10.8982304 11.8079058,9.79497926 13.22,9.84" id="Fill-19-2" fill="#5D9CEC"/>
            <path d="M35.22,9.86 L41.92,9.86 C43.3246224,9.81475472 44.505109,10.906148 44.57,12.31 L44.57,15.38 C44.5157796,16.790283 43.3304155,17.8906588 41.92,17.84 L35.22,17.84 C33.8095845,17.8906588 32.6242204,16.790283 32.57,15.38 L32.57,12.31 C32.6242557,10.8982304 33.8079058,9.79497926 35.22,9.84" id="Fill-21-2" fill="#5D9CEC"/>
            <path d="M13.22,25.86 L19.92,25.86 C21.3246224,25.8147547 22.505109,26.906148 22.57,28.31 L22.57,31.38 C22.5157796,32.790283 21.3304155,33.8906588 19.92,33.84 L13.22,33.84 C11.8095845,33.8906588 10.6242204,32.790283 10.57,31.38 L10.57,28.31 C10.6242557,26.8982304 11.8079058,25.7949793 13.22,25.84" id="Fill-23-2" fill="#5D9CEC"/>
            <path d="M35.22,24.86 L41.92,24.86 C43.3246224,24.8147547 44.505109,25.906148 44.57,27.31 L44.57,30.38 C44.5157796,31.790283 43.3304155,32.8906588 41.92,32.84 L35.22,32.84 C33.8095845,32.8906588 32.6242204,31.790283 32.57,30.38 L32.57,27.31 C32.6242557,25.8982304 33.8079058,24.7949793 35.22,24.84" id="Fill-25-2" fill="#5D9CEC"/>
            <path d="M13.22,39.86 L19.92,39.86 C21.3246224,39.8147547 22.505109,40.906148 22.57,42.31 L22.57,45.38 C22.5157796,46.790283 21.3304155,47.8906588 19.92,47.84 L13.22,47.84 C11.8095845,47.8906588 10.6242204,46.790283 10.57,45.38 L10.57,42.31 C10.6242557,40.8982304 11.8079058,39.7949793 13.22,39.84" id="Fill-27" fill="#5D9CEC"/>
            <path d="M35.22,39.86 L41.92,39.86 C43.3246224,39.8147547 44.505109,40.906148 44.57,42.31 L44.57,45.38 C44.5157796,46.790283 43.3304155,47.8906588 41.92,47.84 L35.22,47.84 C33.8095845,47.8906588 32.6242204,46.790283 32.57,45.38 L32.57,42.31 C32.6242557,40.8982304 33.8079058,39.7949793 35.22,39.84" id="Fill-29" fill="#5D9CEC"/>
        </g>
    </g>
</svg>