<svg width="80px" height="63px" viewBox="0 0 80 63" version="1.1" xmlns="http://www.w3.org/2000/svg" xmlns:xlink="http://www.w3.org/1999/xlink">
    <!-- Generator: Sketch 57.1 (83088) - https://sketch.com -->
    <title>Startup</title>
    <desc>Created with Sketch.</desc>
    <g id="Modal" stroke="none" stroke-width="1" fill="none" fill-rule="evenodd">
        <g id="Artboard" transform="translate(0.000000, -0.000000)">
            <g id="book" transform="translate(-3.000000, 0.000000)">
                <g id="Startup">
                    <path d="M11.0962704,25.5385252 C11.0962704,25.5072949 11.0962704,25.1198902 11.1338103,24.4685148 C11.353404,20.2856026 12.2888062,16.1727579 13.8985097,12.3124832 C16.3695151,6.69920432 22.3457119,5.16520058 24.229329,4.81348765 C24.385627,3.74295624 24.6437108,2.69013683 25,1.66963508 C24.2473792,1.22035359 23.3869333,0.988836681 22.512801,1.00041386 C19.8136122,1.00041386 19.2151829,4.26770056 19.1901563,4.40674986 C19.1428253,4.6816776 18.9471016,4.90669038 18.6832944,4.98946108 C18.4194871,5.07223177 18.1320129,4.99882445 17.938828,4.79935964 C17.7371433,4.59487538 15.8778167,2.83854147 13.5385688,4.84620513 C11.3737709,6.70515296 12.3608481,9.46234438 12.4035405,9.5790863 C12.4952767,9.82565231 12.4510374,10.102846 12.2872405,10.3077939 C12.1249088,10.5136105 11.8661651,10.6162353 11.608579,10.5769695 C9.19351637,10.2511112 6.92357553,11.8163826 6.34416719,14.2071228 C5.13700342,18.563753 7.42030953,21.0287178 7.51747149,21.1313317 C7.71045885,21.3317593 7.77583243,21.6246094 7.68667684,21.8893111 C7.59752124,22.1540127 7.36890927,22.345815 7.09496417,22.3857497 C6.93081934,22.4110314 3,23.0780219 3,27.9031068 C2.99364276,28.634111 3.16877792,29.3550876 3.50954055,30 L11.0962704,30 L11.0962704,25.5385252 Z" id="Shape" fill="#69CFEB" fill-rule="nonzero"/>
                    <path d="M33,1.29683264 C32.4726325,1.05202837 31.8802808,0.9554931 31.2951059,1.01898687 C30.8160957,1.07397955 30.3653655,1.26026438 30,1.55424858 C30.2960112,2.01812138 30.5557547,2.50129166 30.7772096,3 C31.3805698,2.49470205 32.1307524,1.90768475 33,1.29683264 L33,1.29683264 Z" id="Shape" fill="#69CFEB" fill-rule="nonzero"/>
                    <path d="M36.7238401,9.81013999 C38.3903222,10.1377118 39.7056804,10.0424053 40.6249585,9.51645493 C41.264985,9.12581096 41.7477257,8.55575895 42,7.89271545 C40.1597317,7.83132151 38.4079218,7.1579864 37.0757391,6 C36.4385688,6.79518398 35.7451868,7.55170785 35,8.26476359 C35.5573026,8.74764959 36.1409589,9.26724622 36.7238401,9.81013999 L36.7238401,9.81013999 Z" id="Shape" fill="#69CFEB" fill-rule="nonzero"/>
                    <path d="M38.2660083,2.76279042 C38.5339334,2.18147234 38.7578709,1.63309014 38.943419,1.12752456 C39.0662717,0.809286382 38.9849773,0.445985731 38.7392634,0.215163706 C38.4935495,-0.015658327 38.1347187,-0.0658083903 37.8381278,0.0892213099 C36.7843954,0.658165248 35.766168,1.2942397 34.7893795,1.99373789 C34.5158559,2.1913531 34.2551287,2.38896831 34,2.58493673 C35.3750675,3.06939814 36.8573946,3.13119768 38.2660083,2.76279042 L38.2660083,2.76279042 Z" id="Shape" fill="#13A8CA" fill-rule="nonzero"/>
                    <path d="M36.0916549,3.87579618 C34.8237163,3.88594721 33.5713976,3.58586479 32.4367389,3 C31.8814255,3.47770701 31.3968722,3.92117834 31,4.30334395 C31.1815152,4.88694268 31.3161133,5.3933121 31.3976413,5.72929936 C31.8591206,6.12022293 32.7913088,6.93312102 33.927317,8 C34.8393419,7.01435191 35.6672003,5.94880048 36.4016152,4.81528662 C36.6162031,4.48089172 36.81387,4.15286624 37,3.82882166 C36.6869632,3.85509554 36.3816177,3.87579618 36.0916549,3.87579618 Z" id="Shape" fill="#13A8CA" fill-rule="nonzero"/>
                    <path d="M29.9553123,6.93994456 C29.8301765,6.83693109 29.7423829,6.69547452 29.7055031,6.53744231 C29.2169382,4.47618768 28.0106324,1.39944572 26.8507514,1.01097566 C26.5191462,0.905364977 26.1669079,1.58924953 26.0298445,1.88983378 C25.5398844,3.11538989 25.2138036,4.40050718 25.0600837,5.7117588 C25.0214924,6.05201766 24.7545757,6.32105555 24.4152959,6.36167069 C24.3416059,6.37053312 17.2253599,7.29074928 14.6778956,13.0328685 C13.1377071,16.7029152 12.2438822,20.6127413 12.0361081,24.588745 C12,25.1869593 12,25.5407182 12,25.5687826 L12,30 L32.3472906,30 C32.2131747,29.8847883 32.085691,29.7695767 31.9478906,29.6521494 C30.9651556,28.8613563 30.0656391,27.9719686 29.2633629,26.9978502 C28.170862,25.746036 27.4105739,24.2385933 27.0526621,22.6146376 C23.2340448,22.5946972 22.2215438,19.2291875 22.2215438,17.444884 C22.2215438,17.0370017 22.5514653,16.7063477 22.9584441,16.7063477 C23.3654228,16.7063477 23.6953444,17.0370017 23.6953444,17.444884 C23.6953444,17.8207989 23.8132484,21.1375652 27.0850857,21.1375652 C27.2921546,21.1375652 27.4859594,21.1375652 27.6746059,21.1309183 C28.6286942,21.120705 29.5811885,21.0501576 30.52641,20.919697 C31.3340811,20.720237 32.1867347,20.8253796 32.9220728,21.2151115 C33.4365243,21.4932616 33.9136722,21.8357245 34.3420796,22.2342915 C34.9537375,22.9111175 35.8104795,23.3141057 36.7207937,23.3531739 C38.9882359,23.3531739 40,22.7136015 40,18.9219565 C40,15.8112418 32.7489012,9.21759032 29.9553123,6.93994456 L29.9553123,6.93994456 Z M31.6759744,13.5358117 C31.3883845,13.8231399 30.9230611,13.8231399 30.6354712,13.5358117 C30.199496,13.0637953 29.5868069,12.7954618 28.945022,12.7954618 C28.303237,12.7954618 27.690548,13.0637953 27.2545727,13.5358117 C26.9654286,13.8156964 26.5058196,13.8116937 26.2215722,13.5268153 C25.9373249,13.2419369 25.933331,12.7813075 26.2125957,12.4915214 C26.9175137,11.7294817 27.9074418,11.2963772 28.9442851,11.2963772 C29.9811284,11.2963772 30.9710565,11.7294817 31.6759744,12.4915214 C31.963647,12.7799198 31.963647,13.2474134 31.6759744,13.5358117 L31.6759744,13.5358117 Z M38.5239887,21.1375652 C38.11701,21.1375652 37.7870885,20.8069112 37.7870885,20.3990289 C37.7870885,19.9911467 38.11701,19.6604927 38.5239887,19.6604927 C38.9309675,19.6604927 39.260889,19.9911467 39.260889,20.3990289 C39.260889,20.8069112 38.9309675,21.1375652 38.5239887,21.1375652 Z" id="Shape" fill="#FFFFFF" fill-rule="nonzero"/>
                    <path d="M6,63 L77.7625648,63 C78.4460655,63 79,62.6292129 79,62.1718827 L79,38.828508 C79,38.3711778 78.4458727,38 77.762372,38 L6,38" id="Fill-1" fill="#E4E7E7" fill-rule="nonzero"/>
                    <path d="M3,44 L77,44 L77,39.3845823 C77,38.6202894 76.447645,38 75.7663303,38 L4.23347748,38" id="Fill-3" fill="#B7BBBD" fill-rule="nonzero"/>
                    <path d="M64.6813909,25 L55.3186091,25 C54.5904772,25 54,25.5522852 54,26.2332137 L54,31.7667863 C54,32.4479062 54.5902717,33 55.3186091,33 L64.6813909,33 C65.4095228,33 66,32.4479062 66,31.7667863 L66,26.2332137 C66,25.5522852 65.4097283,25 64.6813909,25" id="Fill-5" fill="#B7BBBD" fill-rule="nonzero"/>
                    <path d="M74.8034276,4 L44.1967588,4 C43.5359123,4 43,4.5424484 43,5.2112487 L43,25.7887513 C43,26.4575516 43.5357258,27 44.1967588,27 L74.8032412,27 C75.4640877,27 76,26.4575516 76,25.7887513 L76,5.2112487 C76,4.5424484 75.4642742,4 74.8034276,4" id="Fill-7" fill="#E4E7E7" fill-rule="nonzero"/>
                    <path d="M75.1818298,4 L73,4 L73,27 L75.1818298,27 C75.6336209,27 76,26.4575516 76,25.7887513 L76,5.2112487 C75.9998725,4.5424484 75.6336209,4 75.1818298,4" id="Fill-9" fill="#B7BBBD" fill-rule="nonzero"/>
                    <path d="M0,40 L81.7694289,40 C82.4490323,40 83,39.5228512 83,38.9338737 L83,32.0659338 C83,31.4775337 82.449224,31 81.7696206,31 L0,31" id="Fill-11" fill="#E4E7E7" fill-rule="nonzero"/>
                    <circle id="Oval" fill="#B7BBBD" cx="38" cy="20" r="1"/>
                    <ellipse id="Oval" fill="#FFFFFF" cx="29" cy="13.5" rx="6" ry="3.5"/>
                    <path d="M26.3834897,1 C25.4611632,3.17162048 25,4.81154489 25,5.91977324 C25.603053,6.02674225 26.2697197,6.02674225 27,5.91977324 L26.3834897,1 Z" id="Path-2" fill="#E4E7E7"/>
                    <path d="M37.1208759,23.820585 C37.1208759,23.820585 40.0570073,23.1103695 38.5889416,22.2895407 C37.1208759,21.4687119 23.2302526,21.6407648 22.0798833,17 C21.2939296,22.4137811 26.3075938,24.6873094 37.1208759,23.820585 Z" id="Path-3" fill="#E4E7E7"/>
                </g>
            </g>
        </g>
    </g>
</svg>