<svg width="196px" height="288px" viewBox="0 0 196 288" version="1.1" xmlns="http://www.w3.org/2000/svg" xmlns:xlink="http://www.w3.org/1999/xlink">
    <!-- Generator: Sketch 52.2 (67145) - http://www.bohemiancoding.com/sketch -->
    <title>Group 46</title>
    <desc>Created with Sketch.</desc>
    <defs>
        <linearGradient x1="50%" y1="0%" x2="50%" y2="99.2955202%" id="linearGradient-1">
            <stop stop-color="#00E1E8" offset="0%"/>
            <stop stop-color="#03B2BE" offset="100%"/>
        </linearGradient>
        <linearGradient x1="50%" y1="0%" x2="50%" y2="100%" id="linearGradient-2">
            <stop stop-color="#00E1E8" offset="0%"/>
            <stop stop-color="#00C0CD" offset="100%"/>
        </linearGradient>
    </defs>
    <g id="Desktop_illustration" stroke="none" stroke-width="1" fill="none" fill-rule="evenodd">
        <g id="Group-46">
            <g id="Group-4">
                <path d="M73.0382211,287.102746 C58.2087486,286.349283 43.0510021,282.511758 37.9176369,277.361238 C34.1598076,273.593582 28.5715019,270.239249 21.1559919,268.025067 C7.70094245,264.009195 -0.243545255,259.36177 0.00569562445,254.7511 C0.453979367,246.458365 27.2487502,240.730455 64.5113645,239.86269 C74.1979732,239.636489 83.3617021,237.943221 90.1459694,234.833435 C99.6750552,230.464112 114.743372,228.082343 131.550527,228.936289 C156.318717,230.194723 177.821051,238.356163 181.013717,248.146109 C182.145682,251.61434 185.586155,254.866337 190.278088,257.684649 C194.09368,259.975501 196.12201,262.346835 195.994318,264.708985 C195.530943,273.280903 166.917698,279.112612 127.691936,279.669348 C118.828927,279.794779 110.480185,281.196685 103.734613,283.736461 C96.7508398,286.366759 85.5583016,287.738872 73.0382211,287.102746 Z" id="Fill-1-Copy-7" fill-opacity="0.310000002" fill="#4A90E2" transform="translate(98.000000, 258.010635) scale(-1, 1) translate(-98.000000, -258.010635) "/>
                <g id="Group-7-Copy-4" transform="translate(24.000000, 0.000000)">
                    <path d="M10.491786,126.806349 C19.7453322,117.111111 15.3940753,106.403175 13.7156429,103.142857 C13.7124761,103.136508 13.7093092,103.130159 13.7061424,103.126984 C13.3831233,102.498413 13.1487761,102.12381 13.1487761,102.12381 L13.2342812,102.139683 C10.5487893,96.8380952 9.00653164,90.8571429 9.00653164,84.5047619 C9.00653164,73.7111111 13.3736227,63.9396825 20.4262057,56.8666667 C26.9119219,48.2634921 22.0032988,36.8253968 22.0032988,36.8253968 L22.0191331,36.8253968 C21.0057399,33.9460317 20.4262057,30.8634921 20.4262057,27.6412698 C20.4262057,12.3746032 32.770601,0 48,0 C63.229399,0 75.5706274,12.3746032 75.5706274,27.6412698 C75.5706274,30.8634921 74.9942601,33.9460317 73.9777001,36.8253968 L73.9935343,36.8253968 C73.9935343,36.8253968 69.0849113,48.2634921 75.5706274,56.8666667 C82.6263773,63.9396825 86.9934684,73.7111111 86.9934684,84.5047619 C86.9934684,90.8539683 85.4480438,96.8285714 82.7720525,102.130159 L82.8005542,102.12381 C82.8005542,102.12381 82.7498845,102.2 82.6770469,102.32381 C82.458534,102.752381 82.2400211,103.184127 82.0025071,103.606349 C80.2702382,107.196825 76.9323745,116.771429 84.5613248,125.749206 C84.795672,126.025397 85.0395197,126.298413 85.2675332,126.580952 C85.3372039,126.653968 85.3878736,126.733333 85.4575444,126.806349 L85.4353764,126.806349 C92.0319324,135.047619 96,145.495238 96,156.88254 C96,183.457143 74.5065646,205 48,205 C21.4902685,205 0,183.457143 0,156.88254 C0,145.492063 3.96806756,135.044444 10.5646236,126.803175 L10.491786,126.806349 Z" id="Fill-1" fill="url(#linearGradient-1)"/>
                    <path d="M34.087703,146.640666 L45.2644015,158.241279 L45.2644015,117.479638 L31.5381033,103.235488 C30.8277072,102.493277 30.8186767,101.293104 31.5230525,100.544576 C32.2304385,99.7960473 33.3773068,99.7928889 34.087703,100.528784 L45.2644015,112.129397 L45.2644015,55.9013255 C45.2644015,54.852754 46.0711225,54 47.0735035,54 C48.0758844,54 48.8886258,54.852754 48.8886258,55.9013255 L48.8886258,89.7872422 L59.7552785,78.4487726 C60.4626645,77.7097191 61.612543,77.7097191 62.3169188,78.4582476 C63.0212946,79.2004594 63.0212946,80.40379 62.3108985,81.1460018 L48.8886258,95.1501172 L48.8886258,136.088625 L60.8991367,123.357324 C61.6005023,122.611954 62.7473707,122.608796 63.460777,123.344691 C64.1741833,124.080586 64.1802036,125.283916 63.4758277,126.032445 L48.8886258,141.495717 L48.8886258,250.098674 C48.8886258,251.150404 48.0758844,252 47.0735035,252 C46.0711225,252 45.2644015,251.150404 45.2644015,250.098674 L45.2644015,163.59152 L31.5381033,149.344212 C30.8277072,148.605159 30.8186767,147.401828 31.5230525,146.656458 C32.2304385,145.907929 33.3773068,145.904771 34.087703,146.640666" id="Fill-3" fill="#009DB0"/>
                    <path d="M66.182398,255 L4.81760204,255 C3.80994898,255 3,254.553024 3,254.000876 C3,253.446976 3.80994898,253 4.81760204,253 L66.182398,253 C67.1868622,253 68,253.446976 68,254.000876 C68,254.553024 67.1868622,255 66.182398,255" id="Fill-5" fill="#FFFFFF"/>
                    <path d="M132.021291,261 L98.9787088,261 C98.4361264,261 98,260.553024 98,260.000876 C98,259.446976 98.4361264,259 98.9787088,259 L132.021291,259 C132.562157,259 133,259.446976 133,260.000876 C133,260.553024 132.562157,261 132.021291,261" id="Fill-5-Copy" fill="#FFFFFF"/>
                </g>
                <g id="Group-7-Copy-3" transform="translate(126.000000, 145.000000)">
                    <path d="M4.6994458,56.2896477 C8.84426338,51.9859079 6.89526291,47.2326287 6.14346507,45.7853659 C6.14204658,45.7825474 6.14062809,45.779729 6.13920961,45.7783198 C5.99452398,45.4992954 5.88955598,45.3330081 5.88955598,45.3330081 L5.92785512,45.3400542 C4.72497856,42.9866667 4.03417563,40.3317073 4.03417563,37.5118699 C4.03417563,32.720542 5.99026852,28.382981 9.14923798,25.243252 C12.0542983,21.4242818 9.85564426,16.3468835 9.85564426,16.3468835 C9.40882101,15.0687263 9.14923798,13.7003794 9.14923798,12.2700271 C9.14923798,5.49311653 14.6784984,0 21.5,0 C28.3215016,0 33.8493435,5.49311653 33.8493435,12.2700271 C33.8493435,13.7003794 33.591179,15.0687263 33.1358448,16.3468835 C33.1429373,16.3468835 30.9442832,21.4242818 33.8493435,25.243252 C37.0097315,28.382981 38.9658244,32.720542 38.9658244,37.5118699 C38.9658244,40.3302981 38.273603,42.982439 37.0749819,45.3358266 L37.0877482,45.3330081 C37.0877482,45.3330081 37.0650525,45.3668293 37.0324273,45.4217886 C36.9345517,45.6120325 36.8366761,45.8036856 36.7302896,45.9911111 C35.9543775,47.5849322 34.4592927,51.835122 37.8764267,55.8203794 C37.9813947,55.942981 38.0906182,56.0641734 38.1927492,56.1895935 C38.2239559,56.2220054 38.2466517,56.2572358 38.2778584,56.2896477 L38.267929,56.2896477 C41.2226364,59.9479675 43,64.5856911 43,69.640542 C43,81.4370732 33.3727321,91 21.5,91 C9.62584944,91 0,81.4370732 0,69.640542 C0,64.5842818 1.77736359,59.9465583 4.73207099,56.2882385 L4.6994458,56.2896477 Z" id="Fill-1" fill="url(#linearGradient-2)"/>
                    <path d="M14.4035014,66.1736294 L19.4838188,71.3294572 L19.4838188,53.2131725 L13.2445924,46.8824393 C12.9216851,46.5525674 12.9175803,46.0191575 13.2377511,45.6864781 C13.5592902,45.3537988 14.080594,45.3523951 14.4035014,45.6794596 L19.4838188,50.8352874 L19.4838188,25.8450336 C19.4838188,25.3790018 19.8505102,25 20.3061379,25 C20.7617657,25 21.1311935,25.3790018 21.1311935,25.8450336 L21.1311935,40.905441 L26.0705811,35.8661211 C26.3921202,35.5376529 26.9147923,35.5376529 27.2349631,35.8703323 C27.5551339,36.2002042 27.5551339,36.7350178 27.2322266,37.0648897 L21.1311935,43.288941 L21.1311935,61.4838334 L26.5905167,55.8254773 C26.9093192,55.4942017 27.430623,55.492798 27.7548986,55.8198625 C28.0791742,56.146927 28.0819107,56.6817406 27.7617399,57.0144199 L21.1311935,63.8869854 L21.1311935,112.154966 C21.1311935,112.622402 20.7617657,113 20.3061379,113 C19.8505102,113 19.4838188,112.622402 19.4838188,112.154966 L19.4838188,73.7073424 L13.2445924,67.3752054 C12.9216851,67.0467372 12.9175803,66.5119236 13.2377511,66.1806479 C13.5592902,65.8479686 14.080594,65.8465649 14.4035014,66.1736294" id="Fill-3" fill="#009DB0"/>
                </g>
            </g>
        </g>
    </g>
</svg>