<svg width="220px" height="252px" viewBox="0 0 220 252" version="1.1" xmlns="http://www.w3.org/2000/svg" xmlns:xlink="http://www.w3.org/1999/xlink">
    <!-- Generator: Sketch 52.2 (67145) - http://www.bohemiancoding.com/sketch -->
    <title>Group 39</title>
    <desc>Created with Sketch.</desc>
    <defs>
        <linearGradient x1="80.1658652%" y1="82.5195488%" x2="80.1658652%" y2="7.38356791%" id="linearGradient-1">
            <stop stop-color="#FDC7C0" offset="0%"/>
            <stop stop-color="#FA968C" offset="100%"/>
        </linearGradient>
        <linearGradient x1="7.06654176%" y1="0%" x2="26.9115337%" y2="157.852749%" id="linearGradient-2">
            <stop stop-color="#768888" offset="0%"/>
            <stop stop-color="#415050" offset="100%"/>
        </linearGradient>
        <linearGradient x1="50%" y1="0%" x2="50%" y2="100%" id="linearGradient-3">
            <stop stop-color="#455455" offset="0%"/>
            <stop stop-color="#55696E" offset="100%"/>
        </linearGradient>
        <linearGradient x1="40.1945401%" y1="0%" x2="59.153439%" y2="78.5850007%" id="linearGradient-4">
            <stop stop-color="#FDDDD8" offset="0%"/>
            <stop stop-color="#FAB9AF" offset="100%"/>
        </linearGradient>
        <linearGradient x1="50%" y1="0%" x2="50%" y2="100%" id="linearGradient-5">
            <stop stop-color="#768888" offset="0%"/>
            <stop stop-color="#415050" offset="100%"/>
        </linearGradient>
        <linearGradient x1="116.472565%" y1="66.4554763%" x2="6.29190459%" y2="24.4631889%" id="linearGradient-6">
            <stop stop-color="#8EA2A7" offset="0%"/>
            <stop stop-color="#475758" offset="100%"/>
        </linearGradient>
        <linearGradient x1="34.8737514%" y1="62.5304319%" x2="71.2043037%" y2="62.5304319%" id="linearGradient-7">
            <stop stop-color="#FDDDD8" offset="0%"/>
            <stop stop-color="#FAB9AF" offset="100%"/>
        </linearGradient>
        <linearGradient x1="113.079227%" y1="-53.2199117%" x2="43.9631457%" y2="50%" id="linearGradient-8">
            <stop stop-color="#BDECF6" offset="0%"/>
            <stop stop-color="#88D4EA" offset="100%"/>
        </linearGradient>
        <linearGradient x1="10.1822391%" y1="3.81676546%" x2="50%" y2="100%" id="linearGradient-9">
            <stop stop-color="#FDDDD8" offset="0%"/>
            <stop stop-color="#FAB9AF" offset="100%"/>
        </linearGradient>
        <linearGradient x1="50%" y1="0%" x2="50%" y2="100%" id="linearGradient-10">
            <stop stop-color="#9BE0F0" offset="0%"/>
            <stop stop-color="#62BDDD" offset="100%"/>
        </linearGradient>
        <linearGradient x1="39.2345769%" y1="13.5358525%" x2="50%" y2="100%" id="linearGradient-11">
            <stop stop-color="#FDDDD8" offset="0%"/>
            <stop stop-color="#FAB9AF" offset="100%"/>
        </linearGradient>
        <linearGradient x1="50%" y1="0%" x2="-112.321467%" y2="164.037352%" id="linearGradient-12">
            <stop stop-color="#FDDDD8" offset="0%"/>
            <stop stop-color="#FAB9AF" offset="100%"/>
        </linearGradient>
        <linearGradient x1="0%" y1="18.7626147%" x2="75.9466667%" y2="50.0146071%" id="linearGradient-13">
            <stop stop-color="#1F3972" offset="0%"/>
            <stop stop-color="#00558C" offset="100%"/>
        </linearGradient>
        <path d="M8.84906153,0.409450458 C8.87947339,0.579606311 8.9504344,1.6713362 8.27268436,2.62396057 C7.8121619,3.27104962 7.27778206,3.58527904 6.87808332,3.71444844 C6.0917195,3.97030323 5.55299511,3.91689665 4.94765426,3.86349007 C4.53926642,3.82747168 4.10046672,3.79145328 3.53567502,3.84982792 C3.22576368,3.88336228 0.970941438,4.12803895 0.177336694,5.38495663 C-0.477242402,6.4195539 1.20989177,9.31468742 1.75151253,9.9369362 C2.38871342,10.6709662 3.11280534,11.5006312 4.43065263,11.9216738 C7.01131623,12.7426447 9.45729874,11.2273882 9.90623573,10.9342731 C10.0438132,10.8448481 12.5665494,9.15074164 12.4593838,6.77725379 C12.4420056,6.37732544 12.3971119,5.37502053 11.6092999,4.64347456 C11.1893266,4.25472433 11.0358191,4.12058687 10.6419131,3.69581824 C10.3160718,3.3430864 10.136497,3.11952397 9.55432706,1.68872439 C9.38199318,1.26271375 9.03732543,0.686419474 9.00836175,0.408208445 C8.99532809,0.270344944 8.9504344,0.210728295 8.91133343,0.210728295 C8.86643973,0.210728295 8.82878695,0.286491119 8.84906153,0.409450458 Z" id="path-14"/>
        <linearGradient x1="24.2570732%" y1="37.13636%" x2="61.0675274%" y2="60.1121976%" id="linearGradient-16">
            <stop stop-color="#1E3A73" offset="0%"/>
            <stop stop-color="#00558C" offset="100%"/>
        </linearGradient>
        <linearGradient x1="24.5898103%" y1="100%" x2="71.5048416%" y2="65.0398312%" id="linearGradient-17">
            <stop stop-color="#FDDDD8" offset="0%"/>
            <stop stop-color="#FAB9AF" offset="100%"/>
        </linearGradient>
        <linearGradient x1="50%" y1="100%" x2="76.1236659%" y2="20.7692793%" id="linearGradient-18">
            <stop stop-color="#74C8E3" offset="0%"/>
            <stop stop-color="#91D9ED" offset="97.4214234%"/>
        </linearGradient>
        <linearGradient x1="50%" y1="0%" x2="50%" y2="99.2955202%" id="linearGradient-19">
            <stop stop-color="#00E1E8" offset="0%"/>
            <stop stop-color="#06B5C1" offset="100%"/>
        </linearGradient>
    </defs>
    <g id="Desktop_illustration" stroke="none" stroke-width="1" fill="none" fill-rule="evenodd">
        <g id="Group-39" transform="translate(-1.000000, 0.000000)">
            <path d="M116.667179,216.911038 C116.667179,203.896664 118.172289,190.449076 120.571578,185.712688 C122.326614,182.245591 123.833204,177.196019 124.734789,170.601224 C126.36986,158.635394 128.452206,151.462519 130.720793,151.462519 C134.801066,151.462519 138.279665,174.642261 139.634448,207.213377 C139.986936,215.680378 141.046252,223.620346 142.741306,229.410798 C145.122822,237.543919 146.667179,250.618999 146.667179,265.368991 C146.667179,287.105603 143.198577,306.310532 138.474422,309.567919 C136.800843,310.722698 135.29092,313.887648 134.024999,318.127357 C132.996045,321.575138 131.883041,323.462519 130.720793,323.462519 C126.503154,323.462519 122.928287,298.696164 121.677176,264.392188 C121.394667,256.641234 120.498637,249.400755 119.084241,243.617202 C117.61949,237.629459 116.667179,227.898686 116.667179,216.911038" id="Fill-1-Copy-8" fill-opacity="0.310000002" fill="#4A90E2" transform="translate(131.667179, 237.462519) rotate(-87.000000) translate(-131.667179, -237.462519) "/>
            <g id="Group-38">
                <g id="Group-12">
                    <g id="Group-11" transform="translate(0.000000, 60.000000)">
                        <g id="Group-2" transform="translate(3.000000, 0.000000)">
                            <path d="M191.651047,58.9578083 C188.473303,58.7517073 185.225215,57.7019971 184.125208,56.2931323 C183.319959,55.2625339 182.122465,54.3449949 180.533427,53.7393313 C177.650202,52.6408363 175.947812,51.3695872 176.00122,50.1083921 C176.097281,47.8400111 181.839018,46.2732078 189.823864,46.035841 C191.899566,45.9739662 193.863222,45.5107923 195.316993,44.6601468 C197.35894,43.4649693 200.587865,42.8134639 204.189399,43.047051 C209.496868,43.391281 214.104511,45.6237479 214.788654,48.3016738 C215.031218,49.2503681 215.768462,50.139914 216.773876,50.9108302 C217.591503,51.5374662 218.026145,52.1861172 217.998783,52.8322558 C217.899488,55.1770042 211.768078,56.7722002 203.362558,56.9244889 C201.463342,56.9587992 199.674325,57.342274 198.228846,58.0370004 C196.732323,58.7564877 194.333922,59.1318133 191.651047,58.9578083 Z" id="Fill-1-Copy-4" fill-opacity="0.310000002" fill="#4A90E2"/>
                            <g id="Group-49" transform="translate(1.000000, 0.000000)">
                                <g id="Group-45">
                                    <path d="M96.2604484,161.743413 C96.2604484,161.743413 95.782939,173.370219 96.8831654,175.585542 C97.984788,177.800865 98.398071,180.418252 94.7455427,180.285994 C91.3094295,180.160348 84.6438446,179.965929 83.4584484,179.857477 C80.4928635,179.586348 77.0637314,179.680252 77.1084107,178.411897 C77.1516937,177.143542 87.994788,177.020542 89.9467126,175.742929 C91.8972409,174.465316 90.4591276,162.363703 90.4591276,162.363703 L96.2604484,161.743413 Z" id="Fill-1" fill="url(#linearGradient-1)"/>
                                    <path d="M83.7885289,176.959331 C85.7285033,177.565354 87.7942685,177.91488 89.9355083,177.91488 C92.5421742,177.91488 95.0426168,177.42448 97.3278172,176.55 C98.040632,178.499639 97.893876,180.409408 94.7658769,180.295114 C91.326196,180.168859 84.6536904,179.974826 83.4670634,179.865848 C80.4983993,179.592074 77.0657069,179.686433 77.1104325,178.411925 C77.134193,177.706228 80.4788319,177.352714 83.7885289,176.959331" id="Fill-3" fill="url(#linearGradient-2)"/>
                                    <path d="M90.3030642,164.463746 C90.8852906,164.49152 96.8737057,164.343391 97.4978189,164.463746 C99.5237434,151.620165 99.3492151,123.45581 99.1355925,119.682488 C99.1132528,119.275133 99.0224981,119.05823 99.0224981,118.481584 C99.0224981,112.898972 101.221555,106.329714 102.517253,101.036746 C105.459102,89.0065522 107.399857,79.958778 107.646989,76.3957458 C108.135668,69.3212619 103.792008,67.248778 97.9906868,66.8890361 C92.189366,66.5292942 90.4329132,61.2958426 88.489366,77.908778 C86.4997434,94.9158426 86.5164981,163.727068 90.3030642,164.463746" id="Fill-5" fill="url(#linearGradient-3)"/>
                                    <path d="M206.114181,80.3920555 C202.746483,79.8564103 199.283842,80.0891845 195.939879,80.721378 C195.782106,80.7517974 195.639691,80.8430555 195.553125,80.9713458 C195.220823,81.465991 194.990445,81.8971522 194.884332,82.1034748 C194.838257,82.1934103 194.769842,82.2687974 194.683275,82.3243458 C190.877162,84.8015393 185.942898,86.4137651 180.701464,87.7376684 C180.198823,87.8633135 180.096898,88.4941845 180.538106,88.7520877 L185.25037,91.5083458 C185.415125,91.6062168 185.62037,91.61812 185.799087,91.5440555 C187.348898,90.8920232 194.880143,87.7363458 199.402521,86.0130232 C203.024332,84.6335716 206.090445,83.2673458 208.595275,82.0426361 C209.054634,81.81912 209.014143,81.1842813 208.529653,81.0136684 C207.760332,80.7412168 206.957502,80.5282813 206.114181,80.3920555" id="Fill-27" fill="url(#linearGradient-4)"/>
                                    <path d="M204.481434,78.8046942 L199.122717,78.4806619 C196.803585,78.3801458 195.093208,81.6773393 194.85166,82.1693393 C194.945208,82.1256942 195.03317,82.072791 195.129509,82.0304684 C198.93283,80.3798877 203.255547,80.6840813 206.758679,82.4695651 C207.130075,82.6573716 207.574075,82.6904361 207.965019,82.5423071 C211.962415,81.0107587 214.821887,79.8323393 216.35634,79.1855974 C217.205245,78.8285006 217.092151,77.6209845 216.180415,77.4530168 C213.149208,76.8869522 206.373321,79.0123393 204.481434,78.8046942" id="Fill-28" fill="url(#linearGradient-5)"/>
                                    <path d="M141.785981,89.9354006 C135.470849,81.9933039 124.817642,71.4311748 121.719415,69.1259168 C115.654208,64.6132716 106.997604,65.463691 102.383075,71.0277877 C97.7685472,76.5918845 101.305189,80.8876264 107.369,85.4015942 C112.058925,88.8905619 130.669226,102.165304 141.005491,105.440014 C141.064132,105.45853 141.12417,105.475723 141.182811,105.495562 C144.127453,106.402852 144.854887,106.174046 147.407189,105.238981 C147.409981,105.237659 147.409981,105.233691 147.412774,105.231046 C154.505604,103.498465 191.85166,90.9354006 191.85166,89.9354006 C191.85166,88.9354006 189.879,85.2956587 189.105491,84.178078 C178.720358,87.5493361 161.33734,90.8294651 150.435604,90.9921426 C147.788358,91.03182 143.377679,91.9391103 141.785981,89.9354006 Z" id="Fill-29" fill="url(#linearGradient-6)"/>
                                    <path d="M77.6729396,35.144009 C63.2303736,49.8653087 31.8697321,57.0930481 1.47527925,36.1307886 C0.772977358,35.647124 0.626373585,34.7251788 1.14716604,34.0742413 C1.60792075,33.4972152 2.43727925,33.327349 3.10746792,33.626884 C26.3741849,44.0250256 51.3526755,45.3230104 69.424034,28.3584403 C72.0363736,25.9064032 75.4347887,26.1942679 77.4746755,28.0679822 C79.5787887,30.0013441 79.6444113,33.1289557 77.6729396,35.144009" id="Fill-30" fill="url(#linearGradient-7)"/>
                                    <path d="M73.3297601,24.2966805 C76.4484837,21.4874826 78.5681538,21.5244816 79.6887702,24.4076774 C81.3696949,28.7324711 82.2417844,30.1090221 80.0687495,32.4240007 C78.0302357,34.5968064 76.4739361,36.6153176 74.3851582,38.3989393 C72.9808133,39.5707871 71.2065985,40.3899862 69.7209481,41.472795 C69.1192845,40.398586 61.0301544,34.2835996 61.0434587,34.2721108 C62.8291939,32.75991 71.4347124,25.7533637 73.3297601,24.2966805 Z" id="Fill-32" fill="url(#linearGradient-8)" transform="translate(71.202226, 31.844983) rotate(-1.000000) translate(-71.202226, -31.844983) "/>
                                    <path d="M79.7743112,21.1735568 L76.1986642,16.81 L80.5255698,12.4534194 L88.3374019,18.0692715 L92.1321208,16.6936129 C94.8547623,15.7069677 97.9083094,16.9435806 99.028083,19.4921935 C100.6128,23.0975484 103.007328,28.4817742 105.710423,34.3699032 C107.345404,37.9316129 105.143555,42.0276452 101.139177,42.8635161 C99.9984604,43.1029032 98.8577434,43.3396452 97.7170264,43.5790323 C93.5227623,44.4572258 89.3620075,45.5814194 85.1579698,46.4463871 C81.9536302,47.1063548 78.7437057,45.3592258 77.660234,42.4270645 C75.6357057,36.9462903 73.6083849,32.005129 72.5681962,28.6219677 C71.8114415,26.158 73.1797434,23.5644194 75.7111019,22.6465484 L79.7743112,21.1735568 Z" id="Combined-Shape" fill="url(#linearGradient-9)"/>
                                    <path d="M78.2229132,21.7363484 C79.9751774,23.4371871 82.5763472,24.2981871 85.6271019,23.1925097 C88.6820453,22.0841871 88.5469786,20.2950785 88.6516956,17.9210462 L91.6525485,16.5047923 C94.1434165,15.6014698 97.831517,16.7660903 98.8549509,19.0964774 C101.52314,25.1710903 106.726875,36.8547677 111.795177,47.2872839 C116.381781,56.7305097 121.519894,64.3670903 120.676574,67.6999935 C120.676574,67.6999935 96.5148755,79.3651548 86.7734038,75.3550903 C85.177517,68.5305742 82.230083,60.1097032 79.5255925,51.2867677 C76.8350642,42.5088 74.0831019,33.5522839 72.523517,28.4748968 C71.7918943,26.0955742 73.1113283,23.5892839 75.5547245,22.7031548 L78.2229132,21.7363484 Z" id="Fill-34" fill="url(#linearGradient-10)"/>
                                    <path d="M81.0994189,15.3592613 C83.7424755,14.6133258 85.2462113,11.9774226 84.4573434,9.4751 L82.5864,3.53539032 L77.8015321,4.88706774 L81.0994189,15.3592613 Z" id="Fill-35" fill="#00558C"/>
                                    <path d="M78.1119132,20.0606387 C82.1637623,18.9166065 84.4689321,14.8761226 83.2611962,11.0393161 L80.8219887,3.29560645 L68.2391962,6.85202581 C68.2391962,6.85202581 70.1422528,12.8948968 72.3427057,16.7158323 C73.9944415,19.5818645 76.0468943,20.6438968 78.1119132,20.0606387" id="Fill-38" fill="url(#linearGradient-11)"/>
                                    <polygon id="Fill-39" fill="#00558C" transform="translate(81.406309, 6.918948) rotate(9.000000) translate(-81.406309, -6.918948) " points="80.0638653 6.7444613 82.4290937 6.07638225 82.7487537 7.09211289 80.3835251 7.76151454"/>
                                    <path d="M80.6657509,10.1773903 C81.1418642,11.6877774 82.2909585,12.6955839 83.2320151,12.4297452 C84.1730717,12.1639065 84.5891472,9.89039032 84.113034,8.38132581 C83.6369208,6.86961613 82.4515245,6.6937129 81.5090717,6.95955161 C80.5680151,7.2267129 80.1896377,8.66568065 80.6657509,10.1773903" id="Fill-40" fill="url(#linearGradient-12)"/>
                                    <path d="M65.006234,6.75071613 C64.3821208,5.30513548 63.4815547,-0.487767742 64.766083,0.506812903 C66.5895547,1.91800645 70.9150642,2.03439355 72.4229887,1.92726452 C73.5274038,1.84790968 76.6689132,0.72503871 76.6689132,0.72503871 C79.2212151,0.00423225806 81.9075547,1.37839355 82.6684981,3.79607097 L82.9644981,4.73378065 L81.4481962,7.14749032 L81.4230642,9.13665161 L81.255517,9.18294194 C80.4457057,9.41174839 79.5954038,9.00174839 79.3049887,8.26110323 C78.8302717,7.03771613 77.5932151,6.25078065 76.2751774,6.62374839 L72.505366,7.68842581 C70.2099698,8.33649032 69.3861962,9.8415871 69.8972151,11.4670387 L70.4473283,12.8081355 C70.4473283,12.8081355 69.0664604,10.734329 68.3683472,10.2820065 C67.1941208,9.52416774 65.5340075,7.96749032 65.006234,6.75071613 Z" id="Fill-41" fill="url(#linearGradient-13)"/>
                                </g>
                                <g id="Group-48" transform="translate(72.975207, 11.003195)">
                                    <mask id="mask-15" fill="white">
                                        <use xlink:href="#path-14"/>
                                    </mask>
                                    <g id="Clip-47"/>
                                    <polygon id="Fill-46" fill="url(#linearGradient-16)" mask="url(#mask-15)" points="16.4000369 7.73646084 4.95504 14.919025 -2.63633969 6.02124016 8.8086572 -1.16132405"/>
                                </g>
                                <path d="M97.4187925,24.7571885 C90.9123774,44.1118337 68.2580453,61.1727935 31.2161585,53.7636968 C30.3602717,53.5917613 29.8143472,52.7955677 29.9944604,51.9861484 C30.1536302,51.2706323 30.8308,50.7839226 31.5749887,50.7958258 C57.3912151,51.2336 79.754539,44.3939819 88.5521616,21.52524 C89.8227276,18.2187884 93.0410295,17.1408852 95.7371427,18.0733045 C98.5184258,19.0321755 99.4611552,19.3585833 98.5759476,22.0063898 L97.4187925,24.7571885 Z" id="Fill-42" fill="url(#linearGradient-17)"/>
                                <path d="M88.9857006,20.4729449 C89.8360025,18.5036223 90.4792896,17.2730225 90.4792896,17.2730225 C90.4792896,17.2730225 93.4917386,15.0561906 97.1389876,17.4217252 C100.499887,19.601539 99.2266481,24.0128934 99.2266481,24.0128934 C99.0172142,24.5683773 98.7700821,29.032087 91.6995915,36.3856354 C91.6995915,36.3856354 82.6171387,29.9578934 83.0834783,29.2807321 C85.3016167,26.058044 87.2690241,23.1221149 88.9857006,20.4729449 Z" id="Fill-43" fill="url(#linearGradient-18)"/>
                            </g>
                            <g id="Group-10" transform="translate(0.000000, 19.000000)">
                                <g id="Group-9" fill="#55696E">
                                    <g id="Group-3">
                                        <path d="M6.08485213,0 C2.72429073,0 0,2.71835897 0,6.07261538 L0,25.7066667 C0,29.0609231 2.72429073,31.7792821 6.08485213,31.7792821 L25.7558095,31.7792821 C29.1163709,31.7792821 31.8398396,29.0609231 31.8398396,25.7066667 L31.8398396,6.07261538 C31.8398396,2.71835897 29.1163709,0 25.7558095,0 L6.08485213,0 Z" id="Fill-1"/>
                                    </g>
                                </g>
                                <g id="Fill-2" transform="translate(7.578947, 5.052632)" fill="#FFFFFF">
                                    <path d="M12.4318205,8.32526725 C12.3640532,7.9188532 12.2463219,7.51702493 12.0901126,7.12035564 C11.9321803,6.72425958 11.703035,6.37459447 11.4118654,6.06792096 C11.1201216,5.76869933 10.756016,5.5250802 10.3195488,5.3439422 C9.88193294,5.1628042 9.36104375,5.06650299 8.75630692,5.06650299 C8.12802382,5.06650299 7.59622296,5.1679632 7.17066741,5.36056562 C6.74511186,5.55316805 6.39708667,5.80194618 6.11682876,6.10174103 C5.83714516,6.4021091 5.62982322,6.74661522 5.49543726,7.13124685 C5.36047699,7.52218392 5.28179803,7.91827998 5.25940037,8.32526725 L12.4318205,8.32526725 Z M15.1034593,17.1970165 C14.301738,18.0407985 13.2881002,18.7034426 12.0671406,19.1901077 C10.8456066,19.6704673 9.41158207,19.9135132 7.76391827,19.9135132 C7.11438611,19.9135132 6.46485395,19.8739609 5.8141732,19.812053 C5.16464104,19.7386806 4.55416121,19.6475384 3.98215942,19.5512372 C3.41073193,19.449777 2.89558573,19.3253879 2.43097785,19.1838022 C1.97096436,19.0479487 1.59652142,18.906363 1.31626351,18.7653505 L2.004848,14.6633774 C2.60384185,14.9230468 3.37799688,15.1385781 4.32386732,15.3082516 C5.27088635,15.4836574 6.23513436,15.5684942 7.21546273,15.5684942 C8.74998963,15.5684942 9.97726657,15.2463437 10.884659,14.5905783 C11.7977944,13.9388255 12.3135149,13.0560643 12.4318205,11.9474539 L0.346846817,11.9474539 C0.323874857,11.6751737 0.300902898,11.3587555 0.279653835,11.0022117 C0.256681875,10.6462411 0.240601504,10.3183584 0.240601504,10.0185636 C0.240601504,6.96787872 0.995804675,4.65435673 2.50276522,3.0808637 C4.01604306,1.50851711 6.07260774,0.722057202 8.67188497,0.722057202 C9.78659931,0.722057202 10.8737473,0.931283051 11.9275859,1.34400253 C12.9854447,1.76302746 13.921552,2.37350836 14.7347594,3.18347035 C15.5519869,3.99171267 16.207262,5.00516829 16.7069021,6.21466567 C17.2053937,7.42588271 17.4511936,8.8411666 17.4511936,10.4536387 C17.4506193,11.8007092 17.2599521,13.0445999 16.8791918,14.199068 C16.4984316,15.3535361 15.9046064,16.3543809 15.1034593,17.1970165 Z" id="Fill-1"/>
                                </g>
                            </g>
                            <path d="M33.0210296,51.9615158 C32.725219,53.3643747 32.2575564,54.2574699 30.1009559,53.9239042 C27.9429468,53.5889935 24.9215608,51.8575905 23.4270127,50.6739703 C21.9324646,49.4903502 27.5845227,51.0341205 27.974711,50.3051181 C28.3648994,49.5761156 26.4634899,48.2865917 26.6212556,47.3114501 C26.7804299,46.3349635 29.2628258,48.3487843 29.2628258,48.3487843 C29.2628258,48.3487843 33.3168403,50.5559669 33.0210296,51.9615158 Z" id="Fill-44" fill="#FDDED8" transform="translate(28.106250, 50.519036) rotate(-4.000000) translate(-28.106250, -50.519036) "/>
                        </g>
                        <path d="M1.86538412,33.6426504 C1.03323318,32.0000052 0.864289782,28.6882633 1.09327091,28.323231 C1.92681808,26.9900697 3.10523318,30.1166504 3.75447846,31.603231 C4.40372374,33.0911342 2.69753507,35.2866181 1.86538412,33.6426504 Z" id="Fill-31" fill="#FAB9AF" transform="translate(2.449320, 31.113398) scale(-1, 1) rotate(14.000000) translate(-2.449320, -31.113398) "/>
                    </g>
                    <g id="Group-7-Copy-2" transform="translate(179.000000, 0.000000)">
                        <path d="M4.62202283,55.096953 L4.59015636,55.0983324 C8.63858283,50.885677 6.73490796,46.2329964 6.00059379,44.8163634 C5.99920829,44.8136046 5.99782279,44.8108458 5.99643729,44.8094665 C5.85511645,44.5363473 5.75258956,44.3735794 5.75258956,44.3735794 L5.78999802,44.3804763 C4.61509534,42.0768959 3.94035759,39.4781262 3.94035759,36.7179679 C3.94035759,32.0280438 5.85095995,27.782283 8.936465,24.7090033 C11.7739658,20.9708579 9.62644323,16.0009177 9.62644323,16.0009177 L9.63337072,16.0009177 C9.19001122,14.7498114 8.936465,13.4104243 8.936465,12.010344 C8.936465,5.3768601 14.337138,0 21,0 C27.662862,0 33.0621495,5.3768601 33.0621495,12.010344 C33.0621495,13.4104243 32.8099888,14.7498114 32.3652438,16.0009177 L32.3721713,16.0009177 C32.3721713,16.0009177 30.2246487,20.9708579 33.0621495,24.7090033 C36.14904,27.782283 38.0596424,32.0280438 38.0596424,36.7179679 C38.0596424,39.4767468 37.3835192,42.0727578 36.212773,44.3763382 L36.2252425,44.3735794 C36.2252425,44.3735794 36.2030745,44.4066847 36.171208,44.4604809 C36.0756086,44.6466985 35.9800092,44.8342955 35.8760969,45.0177543 C35.1182292,46.5778437 33.6579138,50.7380823 36.9955796,54.6389957 C37.0981065,54.7590026 37.2047899,54.8776301 37.3045458,55.0003957 C37.3350267,55.0321217 37.3571947,55.0666064 37.3876757,55.0983324 L37.3779772,55.0983324 C40.2639704,58.6792274 42,63.2187981 42,68.1666681 C42,79.7135372 32.596622,89.0740741 21,89.0740741 C9.40199248,89.0740741 0,79.7135372 0,68.1666681 C0,63.2174187 1.73602956,58.677848 4.62202283,55.096953" id="Fill-1" fill="url(#linearGradient-19)"/>
                        <path d="M15.1233751,63.6901221 L20.020468,68.7483016 L20.020468,50.9751285 L14.0062628,44.7642954 C13.6950013,44.4406711 13.6910446,43.9173636 13.9996683,43.5909851 C14.3096109,43.2646065 14.8121136,43.2632293 15.1233751,43.5840994 L20.020468,48.642279 L20.020468,24.1253254 C20.020468,23.66812 20.3739344,23.2962963 20.8131297,23.2962963 C21.2523249,23.2962963 21.6084292,23.66812 21.6084292,24.1253254 L21.6084292,38.9004979 L26.3696749,33.9566197 C26.6796175,33.6343725 27.1834391,33.6343725 27.4920628,33.9607511 C27.8006865,34.2843754 27.8006865,34.80906 27.489425,35.1326843 L21.6084292,41.2388558 L21.6084292,59.089148 L26.8708587,53.5379578 C27.1781635,53.2129563 27.6806661,53.2115792 27.9932465,53.5324493 C28.3058269,53.8533194 28.3084647,54.3780039 27.9998411,54.7043825 L21.6084292,61.4467857 L21.6084292,108.8006 C21.6084292,109.259183 21.2523249,109.62963 20.8131297,109.62963 C20.3739344,109.62963 20.020468,109.259183 20.020468,108.8006 L20.020468,71.0811511 L14.0062628,64.868941 C13.6950013,64.5466937 13.6910446,64.0220092 13.9996683,63.6970077 C14.3096109,63.3706291 14.8121136,63.369252 15.1233751,63.6901221" id="Fill-3" fill="#009DB0"/>
                    </g>
                    <path d="M206.929025,111 L184.054582,111 C183.678967,111 183.377049,110.846869 183.377049,110.657708 C183.377049,110.467946 183.678967,110.314815 184.054582,110.314815 L206.929025,110.314815 C207.303451,110.314815 207.606557,110.467946 207.606557,110.657708 C207.606557,110.846869 207.303451,111 206.929025,111" id="Fill-5" fill="#FFFFFF"/>
                </g>
            </g>
        </g>
    </g>
</svg>