<svg width="186px" height="414px" viewBox="0 0 186 414" version="1.1" xmlns="http://www.w3.org/2000/svg" xmlns:xlink="http://www.w3.org/1999/xlink">
    <!-- Generator: Sketch 52.2 (67145) - http://www.bohemiancoding.com/sketch -->
    <title>Group 47</title>
    <desc>Created with Sketch.</desc>
    <defs>
        <polygon id="path-1" points="0 0.439794872 62.5665923 0.439794872 62.5665923 63.9995077 0 63.9995077"/>
        <linearGradient x1="50%" y1="0%" x2="50%" y2="99.2955202%" id="linearGradient-3">
            <stop stop-color="#00E1E8" offset="0%"/>
            <stop stop-color="#06B5C1" offset="100%"/>
        </linearGradient>
        <polygon id="path-4" points="0 0.52 29.9677 0.52 29.9677 33.9997 0 33.9997"/>
        <linearGradient x1="50%" y1="100%" x2="34.0538358%" y2="50%" id="linearGradient-6">
            <stop stop-color="#FDDDD8" offset="0%"/>
            <stop stop-color="#FFA092" offset="100%"/>
        </linearGradient>
        <linearGradient x1="50%" y1="0%" x2="50%" y2="100%" id="linearGradient-7">
            <stop stop-color="#FDDDD8" offset="0%"/>
            <stop stop-color="#FAB9AF" offset="100%"/>
        </linearGradient>
        <linearGradient x1="0%" y1="96.4925983%" x2="50%" y2="96.4925983%" id="linearGradient-8">
            <stop stop-color="#00ABD5" offset="0%"/>
            <stop stop-color="#0073AA" offset="100%"/>
        </linearGradient>
        <linearGradient x1="100%" y1="12.887321%" x2="62.3123584%" y2="34.3848958%" id="linearGradient-9">
            <stop stop-color="#4581B7" offset="0%"/>
            <stop stop-color="#214A81" offset="100%"/>
        </linearGradient>
        <linearGradient x1="-8.52029588%" y1="100%" x2="40.2062099%" y2="72.3905546%" id="linearGradient-10">
            <stop stop-color="#4581B7" offset="0%"/>
            <stop stop-color="#214A81" offset="100%"/>
        </linearGradient>
        <linearGradient x1="52.4587577%" y1="63.366828%" x2="50%" y2="31.3847636%" id="linearGradient-11">
            <stop stop-color="#F6F4F4" offset="0%"/>
            <stop stop-color="#FFFFFF" offset="100%"/>
        </linearGradient>
        <linearGradient x1="21.4365434%" y1="28.3954778%" x2="63.3673469%" y2="0%" id="linearGradient-12">
            <stop stop-color="#FDDDD8" offset="0%"/>
            <stop stop-color="#FAB9AF" offset="100%"/>
        </linearGradient>
        <linearGradient x1="50%" y1="0%" x2="50%" y2="100%" id="linearGradient-13">
            <stop stop-color="#F6F4F4" offset="0%"/>
            <stop stop-color="#FFFFFF" offset="100%"/>
        </linearGradient>
        <linearGradient x1="36.0908612%" y1="-4.26888653%" x2="71.4462888%" y2="91.0646894%" id="linearGradient-14">
            <stop stop-color="#4A25BA" offset="0%"/>
            <stop stop-color="#241084" offset="100%"/>
        </linearGradient>
    </defs>
    <g id="Desktop_illustration" stroke="none" stroke-width="1" fill="none" fill-rule="evenodd">
        <g id="Group-47" transform="translate(0.000000, -1.000000)">
            <g id="Group-37">
                <g id="Group-15" transform="translate(0.000000, 0.931604)">
                    <path d="M84.0149006,373.514834 C84.0149006,361.332774 86.1722244,348.745206 89.6112054,344.311726 C92.1267564,341.066363 94.2862029,336.339729 95.5784744,330.166693 C97.9220763,318.966121 100.906772,312.251976 104.158414,312.251976 C110.006804,312.251976 114.992796,333.949292 116.934653,364.437372 C117.439886,372.362878 118.958238,379.795058 121.387815,385.21519 C124.801322,392.82817 127.014901,405.067053 127.014901,418.873731 C127.014901,439.220211 122.043238,457.196918 115.271948,460.245984 C112.873152,461.326911 110.70893,464.289451 108.894442,468.258016 C107.419608,471.485299 105.824303,473.251976 104.158414,473.251976 C98.1131308,473.251976 92.9891551,450.069515 91.1958964,417.959399 C90.790967,410.704145 89.5066561,403.92672 87.4793556,398.513045 C85.3798789,392.908239 84.0149006,383.799783 84.0149006,373.514834" id="Fill-1" fill-opacity="0.310000002" fill="#4A90E2" transform="translate(105.514901, 392.751976) rotate(-87.000000) translate(-105.514901, -392.751976) "/>
                    <g id="Group-14">
                        <path d="M19.0048432,327.944623 C15.146154,327.674116 11.2020465,326.296371 9.86632388,324.447236 C8.88852137,323.094576 7.4344214,321.890306 5.50487543,321.095372 C2.00381666,319.653598 -0.0633714694,317.985083 0.00148202473,316.329765 C0.118127284,313.352515 7.09023603,311.296085 16.7861204,310.984541 C19.3066155,310.903331 21.6910551,310.295415 23.4563492,309.178943 C25.9358562,307.610272 29.8566937,306.755171 34.229984,307.061754 C40.6747682,307.513556 46.2697631,310.443669 47.100508,313.958447 C47.39505,315.203608 48.2902749,316.371137 49.5111352,317.382965 C50.5039678,318.205424 51.0317475,319.056779 50.9985216,319.904836 C50.8779494,322.982318 43.4326664,325.076013 33.2259629,325.275892 C30.919772,325.320924 28.7473951,325.824235 26.9921697,326.736063 C25.1749634,327.68039 22.2626193,328.173005 19.0048432,327.944623 Z" id="Fill-1-Copy-4" fill-opacity="0.310000002" fill="#4A90E2"/>
                        <g id="Group-4" transform="translate(16.000000, 213.000000)" fill="#009DB0">
                            <g id="Group-7-Copy-2">
                                <path d="M1.94857798,49.3330811 L7.94617502,55.4941719 L7.94617502,33.8456452 L0.580421591,26.2805704 C0.199211545,25.8863813 0.194365654,25.2489693 0.572345107,24.8514254 C0.951939856,24.4538816 1.56736794,24.4522042 1.94857798,24.8430384 L7.94617502,31.0041293 L7.94617502,1.14137386 C7.94617502,0.584476996 8.37907456,0.131578947 8.9169684,0.131578947 C9.45486224,0.131578947 9.89099237,0.584476996 9.89099237,1.14137386 L9.89099237,19.1382004 L15.7222138,13.1163337 C16.1018086,12.7238221 16.718852,12.7238221 17.0968314,13.1213659 C17.4748109,13.515555 17.4748109,14.1546445 17.0936008,14.5488335 L9.89099237,21.9864259 L9.89099237,43.728887 L16.3360266,36.9672869 C16.7123908,36.5714205 17.3278189,36.5697431 17.7106442,36.9605773 C18.0934695,37.3514116 18.0967001,37.990501 17.7187207,38.3880449 L9.89099237,46.6005962 L9.89099237,104.279679 C9.89099237,104.838253 9.45486224,105.289474 8.9169684,105.289474 C8.37907456,105.289474 7.94617502,104.838253 7.94617502,104.279679 L7.94617502,58.3356878 L0.580421591,50.7689356 C0.199211545,50.376424 0.194365654,49.7373345 0.572345107,49.3414681 C0.951939856,48.9439242 1.56736794,48.9422468 1.94857798,49.3330811" id="Fill-3"/>
                            </g>
                        </g>
                        <g id="Group-13">
                            <g id="Group-7">
                                <g id="Group-8" transform="translate(41.000000, 0.000000)">
                                    <g id="Group-3">
                                        <mask id="mask-2" fill="white">
                                            <use xlink:href="#path-1"/>
                                        </mask>
                                        <g id="Clip-2"/>
                                        <path d="M50.6111308,0.439302564 L11.9565923,0.439302564 C5.3529,0.439302564 -0.000484615385,5.87766154 -0.000484615385,12.5861744 L-0.000484615385,51.8542769 C-0.000484615385,58.5611487 5.3529,63.9995077 11.9565923,63.9995077 L50.6111308,63.9995077 C57.2148231,63.9995077 62.5665923,58.5611487 62.5665923,51.8542769 L62.5665923,12.5861744 C62.5665923,5.87766154 57.2148231,0.439302564 50.6111308,0.439302564" id="Fill-1" fill="#0A5DE2" mask="url(#mask-2)"/>
                                    </g>
                                </g>
                                <g id="Group-4" transform="translate(0.000000, 184.000000)">
                                    <g id="Group-7-Copy-2">
                                        <path d="M5.61245629,67.2431212 L5.5737613,67.2448047 C10.4897077,62.103466 8.17810253,56.4250981 7.28643531,54.6961672 C7.28475292,54.6928003 7.28307053,54.6894333 7.28138814,54.6877499 C7.10978426,54.3544214 6.98528733,54.1557711 6.98528733,54.1557711 L7.03071188,54.1641885 C5.60404434,51.352782 4.78471993,48.1811113 4.78471993,44.8124739 C4.78471993,39.0886521 7.10473709,33.90691 10.8514218,30.1561232 C14.2969585,25.5939006 11.6892525,19.528333 11.6892525,19.528333 L11.6976644,19.528333 C11.1592993,18.0014194 10.8514218,16.3667632 10.8514218,14.6580341 C10.8514218,6.56219329 17.4093818,0 25.5,0 C33.5906182,0 40.1468958,6.56219329 40.1468958,14.6580341 C40.1468958,16.3667632 39.8407007,18.0014194 39.3006532,19.528333 L39.3090651,19.528333 C39.3090651,19.528333 36.7013591,25.5939006 40.1468958,30.1561232 C43.8952629,33.90691 46.2152801,39.0886521 46.2152801,44.8124739 C46.2152801,48.1794278 45.3942733,51.3477315 43.9726529,54.1591381 L43.9877944,54.1557711 C43.9877944,54.1557711 43.9608762,54.1961746 43.9221812,54.2618302 C43.8060962,54.4890996 43.6900112,54.7180524 43.5638319,54.9419549 C42.643564,56.8459674 40.8703239,61.9233339 44.9232038,66.6842069 C45.0477007,66.8306694 45.1772448,66.9754484 45.298377,67.1252778 C45.3353896,67.1639978 45.3623078,67.2060847 45.3993204,67.2448047 L45.3875437,67.2448047 C48.8919641,71.6151109 51,77.1554337 51,83.1940657 C51,97.2864515 39.5816125,108.710526 25.5,108.710526 C11.4167052,108.710526 0,97.2864515 0,83.1940657 C0,77.1537502 2.10803589,71.6134275 5.61245629,67.2431212" id="Fill-1" fill="url(#linearGradient-3)"/>
                                        <path d="M17.948578,78.3330811 L23.946175,84.4941719 L23.946175,62.8456452 L16.5804216,55.2805704 C16.1992115,54.8863813 16.1943657,54.2489693 16.5723451,53.8514254 C16.9519399,53.4538816 17.5673679,53.4522042 17.948578,53.8430384 L23.946175,60.0041293 L23.946175,30.1413739 C23.946175,29.584477 24.3790746,29.1315789 24.9169684,29.1315789 C25.4548622,29.1315789 25.8909924,29.584477 25.8909924,30.1413739 L25.8909924,48.1382004 L31.7222138,42.1163337 C32.1018086,41.7238221 32.718852,41.7238221 33.0968314,42.1213659 C33.4748109,42.515555 33.4748109,43.1546445 33.0936008,43.5488335 L25.8909924,50.9864259 L25.8909924,72.728887 L32.3360266,65.9672869 C32.7123908,65.5714205 33.3278189,65.5697431 33.7106442,65.9605773 C34.0934695,66.3514116 34.0967001,66.990501 33.7187207,67.3880449 L25.8909924,75.6005962 L25.8909924,133.279679 C25.8909924,133.838253 25.4548622,134.289474 24.9169684,134.289474 C24.3790746,134.289474 23.946175,133.838253 23.946175,133.279679 L23.946175,87.3356878 L16.5804216,79.7689356 C16.1992115,79.376424 16.1943657,78.7373345 16.5723451,78.3414681 C16.9519399,77.9439242 17.5673679,77.9422468 17.948578,78.3330811" id="Fill-3" fill="#009DB0"/>
                                        <path d="M9.50444793,136 C9.13239142,136 8.83333333,135.841206 8.83333333,135.645048 C8.83333333,135.448268 9.13239142,135.289474 9.50444793,135.289474 L32.1622187,135.289474 C32.5330979,135.289474 32.8333333,135.448268 32.8333333,135.645048 C32.8333333,135.841206 32.5330979,136 32.1622187,136 L9.50444793,136 Z" id="Fill-5" fill="#FFFFFF"/>
                                    </g>
                                </g>
                                <g id="Group-6" transform="translate(58.000000, 14.000000)">
                                    <mask id="mask-5" fill="white">
                                        <use xlink:href="#path-4"/>
                                    </mask>
                                    <g id="Clip-5"/>
                                    <path d="M8.7397,13.7837 L21.2287,13.7837 C21.1897,13.0747 21.0527,12.3827 20.8177,11.7017 C20.5827,11.0297 20.2227,10.4287 19.7357,9.9057 C19.2477,9.3817 18.6417,8.9487 17.9007,8.6127 C17.1597,8.2767 16.2337,8.0997 15.1397,8.0997 C14.0867,8.0997 13.1797,8.2677 12.4177,8.5827 C11.6577,8.8997 11.0237,9.3237 10.5157,9.8457 C10.0087,10.3807 9.6097,10.9917 9.3347,11.6817 C9.0627,12.3737 8.8577,13.0747 8.7397,13.7837 Z M0.9947,24.0307 C0.3327,22.0167 0.0007,19.8467 -0.0003,17.4977 C-0.0003,14.6847 0.4277,12.2157 1.2957,10.1027 C2.1657,7.9917 3.3067,6.2237 4.7297,4.8137 C6.1457,3.4017 7.7757,2.3367 9.6177,1.6047 C11.4527,0.8847 13.3457,0.5197 15.2867,0.5197 C19.8127,0.5197 23.3937,1.8927 26.0277,4.6357 C28.6527,7.3797 29.9677,11.4157 29.9677,16.7377 C29.9677,17.2617 29.9387,17.8337 29.8997,18.4547 C29.8627,19.0757 29.8227,19.6287 29.7827,20.1037 L8.7397,20.1037 C8.9457,22.0377 9.8437,23.5777 11.4327,24.7137 C13.0137,25.8587 15.1507,26.4197 17.8227,26.4197 C19.5297,26.4197 21.2087,26.2717 22.8577,25.9667 C24.5047,25.6707 25.8527,25.2947 26.8957,24.8417 L28.0947,31.9977 C27.6067,32.2427 26.9547,32.4907 26.1537,32.7267 C25.3447,32.9747 24.4477,33.1907 23.4527,33.3677 C22.4567,33.5357 21.3937,33.6947 20.2627,33.8237 C19.1297,33.9307 17.9987,33.9997 16.8677,33.9997 C13.9987,33.9997 11.5017,33.5757 9.3747,32.7377 C7.2487,31.8887 5.4837,30.7337 4.0867,29.2617 C2.6927,27.7907 1.6587,26.0447 0.9947,24.0307 Z" id="Fill-4" fill="#FFFFFF" mask="url(#mask-5)"/>
                                </g>
                                <g id="Group-43" transform="translate(91.500000, 231.500000) scale(-1, 1) translate(-91.500000, -231.500000) translate(22.000000, 57.000000)">
                                    <path d="M27.8205128,318.191127 C27.8205128,318.191127 22.6757112,333.068032 22.9456435,336.341561 C23.219151,339.617 22.6059936,343.157757 18.826942,341.636472 C15.2695566,340.206808 8.34606229,337.494455 7.14477436,336.918008 C4.13976689,335.471165 0.503725737,334.323998 1.05610367,332.69964 C1.60848161,331.073374 13.0403809,334.917624 15.6002683,333.982329 C18.1601557,333.050853 21.4815738,316.851175 21.4815738,316.851175 L27.8205128,318.191127 Z" id="Fill-1" fill="#FA968C"/>
                                    <path d="M73.2628205,101.594675 L85.1538462,101.127039 L78.9729403,77.3446475 L68.1025641,79.9753358 L68.9742539,91.1837075 C69.1379256,93.3057712 71.1626734,101.678514 73.2628205,101.594675" id="Fill-5" fill="url(#linearGradient-6)"/>
                                    <path d="M66.9239469,87.547753 C73.9935345,89.6965153 81.4439875,85.6359056 83.565952,78.4788743 L87.8461538,64.0399264 L73.9627025,53.9921671 L65.8937966,57.3659075 C65.8937966,57.3659075 62.5530628,68.6368085 61.8965233,76.7304797 C61.4050256,82.8021106 63.3220482,86.4531699 66.9239469,87.547753" id="Fill-9" fill="url(#linearGradient-7)"/>
                                    <path d="M81.9148969,71.9254197 C81.1083027,74.8614539 81.7399307,77.6653378 83.3251245,78.1881932 C84.9103183,78.7072181 87.7132769,75.4302746 88.5181214,72.4942404 C89.3247156,69.556291 87.8270049,68.0681641 86.2435608,67.5491391 C84.6566173,67.0262837 82.7197414,68.9874703 81.9148969,71.9254197" id="Fill-11" fill="url(#linearGradient-7)"/>
                                    <path d="M27.4822016,321.64752 C35.47115,301.59271 42.7598071,272.186925 43.8717949,266 C43.99186,265.334342 44.1952664,255.451747 44.2654583,254.797183 C45.222285,245.816341 52.6164492,236.535692 56.6136942,228.438697 C65.6980059,210.033241 74.1561319,189.734357 75.8906111,184.055921 C79.3318622,172.785953 75.0316837,161.479005 66.2854014,158.801579 C57.5391192,156.126002 48.3642968,162.296286 44.2654583,173.346216 C39.3865105,186.501148 29.9467238,224.04487 26.8205128,257 C24.6386719,280 19.6691022,318.614732 19.6410256,318.851754 C20.5239661,319.106923 26.573401,321.225936 27.4822016,321.64752 Z" id="Fill-13" fill="url(#linearGradient-8)"/>
                                    <path d="M100.773542,310.462141 C100.773542,310.462141 106.910086,324.434806 109.312794,326.516036 C111.715501,328.595433 113.63433,331.487151 109.781841,333.113628 C106.153678,334.644753 99.1476354,337.672164 97.8610003,338.12325 C94.6369969,339.250965 91.144172,341.035138 90.4656296,339.515015 C89.7870872,337.994892 100.934834,332.552521 102.225177,330.089884 C103.51552,327.625414 95.1245834,314.026821 95.1245834,314.026821 L100.773542,310.462141 Z" id="Fill-15" fill="#FA968C"/>
                                    <path d="M103.438764,332.596747 C106.13276,331.228084 108.43925,329.298172 110.304466,327 C112.147433,329.085487 113.080042,331.574681 109.783466,333.069379 C106.155009,334.713743 99.1465416,337.965055 97.8598018,338.449503 C94.6373903,339.660622 91.1424272,341.576749 90.4656837,339.944201 C90.089303,339.038323 93.3450883,336.840586 96.5433966,334.60937 C98.892531,334.359269 101.224979,333.717278 103.438764,332.596747 Z" id="Fill-17" fill="url(#linearGradient-9)" transform="translate(101.205128, 333.787206) rotate(2.000000) translate(-101.205128, -333.787206) "/>
                                    <path d="M14.3963067,335.069511 C17.0903021,333.801675 19.3967923,332.013935 21.2620087,329.885065 C23.104976,331.816919 24.0375842,334.122738 20.7410089,335.507324 C17.1125512,337.030552 10.1040841,340.042346 8.81734439,340.491106 C5.5949328,341.613004 2.09505297,343.570783 1.4232262,341.875692 C1.08828793,341.030607 4.20852697,338.909839 7.40683536,336.842993 C9.7559697,336.611316 12.182521,336.107494 14.3963067,335.069511 Z" id="Fill-17-Copy" fill="url(#linearGradient-10)" transform="translate(12.165189, 336.212008) rotate(46.000000) translate(-12.165189, -336.212008) "/>
                                    <path d="M102.205128,313.565813 C102.205128,313.565813 82.1319012,271.711406 79.5997367,266.273417 C78.3468037,263.583978 75.3074549,257.601082 75.3769579,256.949041 C76.3537573,247.975622 83.3115743,238.885832 87.3821978,230.799041 C96.629858,212.416277 99.0943979,192.89752 99.7481021,186.999593 C100.300369,182.017849 92.3507254,161.497941 92.3507254,161.497941 C83.4580942,158.819584 74.1240249,164.979805 69.9519645,176.012788 C59.8815388,202.648586 58.8382908,261.537679 59.1501152,261.447169 C59.5427134,263.268451 60.1588484,265.152537 61.0342109,267.02554 C64.8493638,275.215771 96.4814596,317.156658 96.4814596,317.156658 L102.205128,313.565813 Z" id="Fill-21" fill="#0091C8"/>
                                    <path d="M92.1790396,139.298251 C94.6201059,130.556286 100.080335,110.134392 100.268553,101.777886 C100.362662,97.6448175 97.0131575,94.2070491 92.7091216,93.9986436 L92.4786512,93.9875778 C91.1745725,93.9248717 92.2193719,93.4250674 88.8295355,95.0388267 C85.0114082,96.8573029 82.4666302,99.6108374 77.8975533,99.6255918 C73.7529261,99.6403461 68.9956316,97.1099715 64.0059461,92.613577 C67.8375176,101.648785 61.9970119,101.932806 54.255125,108.369401 C55.9049094,115.278135 59.3312369,126.747814 61.5821651,134.113934 C62.9265761,138.507047 62.1045648,143.237668 59.3811722,146.992655 C53.0048227,155.784416 42.1093316,171.671184 44.1144246,174.981696 C50.049039,184.782287 100.704526,189.616188 100.704526,189.616188 C103.570042,186.005056 95.4690054,157.999416 92.2616248,147.413155 C91.46074,144.762901 91.4338517,141.965103 92.1790396,139.298251 Z" id="Fill-23" fill="url(#linearGradient-11)"/>
                                    <path d="M51.2475735,1.90014818 C52.1230416,0.859638827 53.7882819,0.703361623 54.955029,1.45757688 C55.9855,2.11958978 56.2841872,3.30900014 55.7353494,4.26237248 C52.5148989,9.86897677 49.7625889,15.3825608 47.5311869,20.6897624 C35,50.4941336 38.7877049,70.2087439 63.9735171,91.8232598 C68.3567524,95.5832717 68.1943412,107.682065 64.7930402,110.57353 C61.283465,113.559043 61.7613646,112.52822 58.1565829,109.688388 C31.8310356,88.8820047 16.2539062,43.4907407 51.2475735,1.90014818 Z" id="Fill-25" fill="url(#linearGradient-12)"/>
                                    <path d="M91.7484062,94.6802075 C86.5738078,97.6796765 85.764164,105.628269 88.4517316,109.031371 C91.223637,112.540009 92.0595193,113.358382 96.2595464,111.142108 C126.943546,94.8912813 154.330872,52.8228032 126.653049,4.06847165 C126.013955,2.9408935 124.424655,2.47616096 123.103361,3.02976665 C121.937624,3.518569 121.371623,4.64059258 121.693981,5.67003996 C125.455451,17.7216101 127.316507,29.758368 126.761751,41.2137473 C125.667233,63.7301314 115.48109,80.9344929 91.7484062,94.6802075 Z" id="Fill-29" fill="url(#linearGradient-12)"/>
                                    <path d="M42.9213854,34.7976049 C38.3559441,55.3027952 43.6004343,74.0030552 63.984925,91.6066723 C68.3531631,95.3774229 69.3424379,109.246375 65.9527744,112.147948 C62.4552074,115.140138 60.7682796,112.760972 57.1758317,109.911179 C37.2471409,94.0625609 22.702471,64.5142267 33.0333168,32.4360313" id="Fill-33" fill="url(#linearGradient-13)"/>
                                    <path d="M125.312952,48.6031332 C122.269272,67.5929865 110.197276,83.2415824 89.0969649,95.5620019 C83.7838411,98.6640642 84.5181289,106.301491 87.327826,109.842701 C90.2269311,113.492295 93.2515881,114.26968 97.5621998,111.97677 C118.268735,100.930812 138.5035,79.5527446 139,49.8308771" id="Fill-35" fill="url(#linearGradient-13)"/>
                                    <path d="M127.333333,40.5195822 C127.193891,43.6114334 126.898917,46.6028135 126.435897,49.5013055" id="Fill-37" fill="#FAB9AF"/>
                                </g>
                                <path d="M44.1464423,58.7906101 C44.1464423,58.7906101 40.0528892,64.1178771 37.840125,63.3977271 C35.6256826,62.6770913 34.2587199,61.818061 35.0874905,58.8037054 C35.9152438,55.7929317 37.8955321,51.9527364 39.9995154,50.0693359 C42.1001424,48.1849637 40.8445929,55.4718721 41.9607004,56.1846166 C43.0762992,56.8991521 46.5706699,53.6370739 48.1169581,54.0692789 C49.6610595,54.5027889 44.1464423,58.7906101 44.1464423,58.7906101 Z" id="Fill-31" fill="#FAB9AF"/>
                                <path d="M100.528279,57.9195759 C100.528279,57.9195759 95.1409235,53.2538836 96.7599958,52.9963792 C98.3772771,52.7388748 101.75512,56.2178857 102.951515,55.6470542 C104.147909,55.0798242 102.263427,46.9813813 104.299805,49 C106.336182,51.016818 109.194973,55.8865514 109.845109,58.8577564 C110.495245,61.8253599 109.031991,62.5078367 106.70547,62.9724251 C104.378949,63.4352128 100.528279,57.9195759 100.528279,57.9195759 Z" id="Fill-27" fill="#FAB9AF"/>
                            </g>
                        </g>
                        <g id="Fill-45" transform="translate(65.000000, 107.000000)" fill="url(#linearGradient-14)">
                            <path d="M19.5172418,23.8019772 C20.0235618,23.9629632 21.3752976,20.0271277 21.6703,19.7282904 C22.8255675,18.5495433 24.8087449,18.9037208 25.6423645,20.2780034 C26.474081,21.6504413 26.2000142,23.6924961 25.1912963,25.0298852 C24.1844817,26.369119 22.5819526,27.0295125 21.0650693,27.0184444 C19.3616684,30.7575998 18.7570589,34.4754279 16.3998812,38.6132453 C18.7579971,39.2367453 22.340241,40.1119448 24.7002601,40.7354448 C25.1589412,40.8553486 31.4277253,32.8283651 32.3882845,26.2362922 C33.3488437,19.6442192 33.3488437,13.9179248 30.9880109,8.79454163 C28.6271781,3.67115848 16.3998812,-6.49808282 3.47080403,5.93062811 C-9.45827312,18.3593391 23.6182406,11.8312384 19.8059501,20.2780034 C19.0109218,23.2431641 19.0109218,23.6409912 19.5172418,23.8019772 Z" id="Fill-39" transform="translate(16.723410, 20.368386) scale(-1, 1) translate(-16.723410, -20.368386) "/>
                        </g>
                    </g>
                </g>
            </g>
        </g>
    </g>
</svg>