<svg version="1.1" id="Livello_1" xmlns="http://www.w3.org/2000/svg" xmlns:xlink="http://www.w3.org/1999/xlink" x="0px" y="0px" viewBox="0 0 226 647" style="enable-background:new 0 0 226 647;" xml:space="preserve">
<style type="text/css">
	.st0{fill:#EEF4FC;}
	.st1{fill-rule:evenodd;clip-rule:evenodd;fill:#4A90E2;fill-opacity:0.31;}
	.st2{fill:url(#Shape_1_);}
	.st3{fill:#00C8E7;}
	.st4{fill:#001F8E;}
	.st5{fill:#FF9700;}
	.st6{fill:url(#SVGID_1_);}
	.st7{fill-rule:evenodd;clip-rule:evenodd;fill:#FAB9AF;}
	.st8{fill-rule:evenodd;clip-rule:evenodd;fill:url(#Combined-Shape_1_);}
	.st9{fill-rule:evenodd;clip-rule:evenodd;fill:url(#Fill-5_1_);}
	.st10{fill-rule:evenodd;clip-rule:evenodd;fill:#495959;}
	.st11{fill-rule:evenodd;clip-rule:evenodd;fill:url(#Fill-9_1_);}
	.st12{fill-rule:evenodd;clip-rule:evenodd;fill:url(#Fill-13_1_);}
	.st13{fill-rule:evenodd;clip-rule:evenodd;fill:url(#Fill-15_1_);}
	.st14{fill-rule:evenodd;clip-rule:evenodd;fill:url(#SVGID_2_);}
	.st15{fill-rule:evenodd;clip-rule:evenodd;fill:#00558C;}
	.st16{fill-rule:evenodd;clip-rule:evenodd;fill:url(#Fill-33_1_);}
	.st17{fill-rule:evenodd;clip-rule:evenodd;fill:url(#Fill-38_1_);}
	.st18{fill-rule:evenodd;clip-rule:evenodd;fill:#707987;}
	.st19{fill-rule:evenodd;clip-rule:evenodd;fill:#D8D8D8;}
	.st20{fill-rule:evenodd;clip-rule:evenodd;fill:url(#Fill-48_1_);}
	.st21{fill-rule:evenodd;clip-rule:evenodd;fill:url(#Fill-50_1_);}
	.st22{fill-rule:evenodd;clip-rule:evenodd;fill:url(#Fill-52_1_);}
	.st23{fill-rule:evenodd;clip-rule:evenodd;fill:#FDDED8;}
	.st24{fill-rule:evenodd;clip-rule:evenodd;fill:#A0A0A0;}
	.st25{fill-rule:evenodd;clip-rule:evenodd;fill:url(#Fill-58_1_);}
	.st26{fill-rule:evenodd;clip-rule:evenodd;fill:#FFFFFF;}
	.st27{fill-rule:evenodd;clip-rule:evenodd;fill:url(#Fill-62_1_);}
</style>
<g id="Desktop_illustration">
	<path class="st0" d="M116,172.1C46,171.4,8.9,208.7,4.7,283.8v206.4c2.2-0.2,4.4-0.3,6.7-0.3c68.4-0.8,67.7,70.5,120.9,72.2   c52.7,1.7,33.1-26.1,90.3-27.6V288.8C221.5,211.7,186,172.8,116,172.1z"/>
	<path id="Fill-1-Copy-5" class="st1" d="M100.9,643.3c-14-0.7-28.3-4.3-33.1-9.2c-3.5-3.6-8.8-6.7-15.8-8.8   c-12.7-3.8-20.2-8.2-20-12.5c0.4-7.8,25.7-13.2,60.9-14.1c9.1-0.2,17.8-1.8,24.2-4.7c9-4.1,23.2-6.4,39.1-5.6   c23.4,1.2,43.7,8.9,46.7,18.1c1.1,3.3,4.3,6.3,8.7,9c3.6,2.2,5.5,4.4,5.4,6.6c-0.4,8.1-27.4,13.6-64.5,14.1   c-8.4,0.1-16.2,1.4-22.6,3.8C123.3,642.6,112.8,643.9,100.9,643.3z"/>
	<g id="Risorsa-1" transform="translate(42.000000, 0.000000)">
		
			<linearGradient id="Shape_1_" gradientUnits="userSpaceOnUse" x1="-2639.5383" y1="851.5753" x2="-2638.9285" y2="851.5753" gradientTransform="matrix(86.8932 0 0 -54.1016 229374.9219 46290.6172)">
			<stop offset="0" style="stop-color:#488EFF"/>
			<stop offset="1" style="stop-color:#001F8E"/>
		</linearGradient>
		<path id="Shape" class="st2" d="M90,243.5c0-0.1,0-0.2-0.1-0.3c-0.7-1.6-1.7-3.2-2.7-4.6c-0.5-0.7-1.1-1.4-1.7-2    c-3.7-4-8.5-6.8-13.3-9.6c-1.7-1-3.3-1.9-4.9-2.9l-0.7-0.6l-1.4-0.9c-0.5-0.3-0.9-0.6-1.4-1L63,221l-1-0.8l-0.8-0.7    c-0.4-0.3-0.7-0.7-1-1l-0.5-0.5c-8.4-9.1-5.2-24.4-4.8-26.1H40.1c0,0.2,3.8,16.5-5,26l-0.5,0.5c-0.3,0.3-0.7,0.7-1,1l-0.6,0.7    c-0.3,0.3-0.6,0.5-1,0.8l-0.8,0.6l-1.3,0.9l-1.5,1l-0.6,0.4c-1.5,1-3.2,2-4.9,3c-3.2,1.8-6.4,3.8-9.4,5.9c-1.4,1-2.7,2.2-3.9,3.5    l-0.2,0.2c-0.6,0.6-1.1,1.3-1.6,1.9l-0.1,0.2c-0.5,0.7-1,1.4-1.4,2.1l-0.1,0.2c-0.4,0.7-0.8,1.5-1.2,2.3v0.4    c-0.4,0.8-0.7,1.7-1,2.6c0.2-0.1,21.2-8.4,40.7-9.3l2.7-0.1c0.8,0,1.6,0,2.5,0c19.6,0.8,40.8,9.2,41,9.3    C90.7,245.2,90.4,244.3,90,243.5z"/>
		<path class="st3" d="M53.3,244.2c1.3,1.7,1.9,3.8,1.9,5.9c12-0.3,24-1.7,35.8-4.1c0,0-21.2-8.1-41-8.9    C50.6,239.7,51.8,242.1,53.3,244.2z"/>
		<polygon class="st4" points="48,186.1 47,185.8 47,-2.9 48,-2.9   "/>
		<path class="st5" d="M40,192c0-3.2,1.8-6.1,4.5-7.3c0.9-0.4,1.9-0.6,2.9-0.6c1.1,0,2.2,0.2,3.2,0.8c0.8,0.4,1.5,0.9,2.1,1.6    c1.4,1.5,2.2,3.5,2.2,5.6L40,192L40,192z"/>
		
			<linearGradient id="SVGID_1_" gradientUnits="userSpaceOnUse" x1="-2498.6995" y1="834.9506" x2="-2498.6995" y2="835.9507" gradientTransform="matrix(15 0 0 -23 37528 19464)">
			<stop offset="0" style="stop-color:#FE9902"/>
			<stop offset="6.000000e-02" style="stop-color:#FBA00B"/>
			<stop offset="0.26" style="stop-color:#F3B21F"/>
			<stop offset="0.45" style="stop-color:#EEBC2C"/>
			<stop offset="0.63" style="stop-color:#ECC030"/>
			<stop offset="0.83" style="stop-color:#F0D56C"/>
			<stop offset="0.86" style="stop-color:#EFD263"/>
		</linearGradient>
		<path class="st6" d="M47.4,260.1c-5.2,0-7.5-4.7-7.4-9.4c-0.1-2.1,0.5-4.2,1.7-6c1.5-2.3,2.6-4.8,3.1-7.5h0.1l2.5-0.1    c0.8,0,1.6,0,2.4,0c0.6,2.7,1.7,5.2,3.3,7.4c1.2,1.8,1.9,3.9,1.9,6.1c0,4.5-2.2,9.2-7.3,9.4h-0.3L47.4,260.1L47.4,260.1z"/>
		<path class="st3" d="M40,250.1c-12.1-0.4-24.1-1.7-36-4.1c0.2-0.1,21.4-8.1,41-8.9c-0.6,2.6-1.7,5.1-3.2,7.3    C40.6,246,39.9,248,40,250.1L40,250.1z"/>
	</g>
	
		<g id="Group-64" transform="translate(121.500000, 480.500000) scale(-1, 1) translate(-121.500000, -480.500000) translate(29.000000, 332.000000)">
		<path id="Fill-1" class="st7" d="M77,101.7c13.5-2.9,21.3-13.6,23.4-36.3c0.5-4.9,5.1-6.4,7.9-4.2c5,3.8,3.4,5.6,3.3,6.9    c-1.8,29.2-16.1,57.9-53.1,37.1c-0.9-0.5-1.6-1.9-1.6-3.1c0-1.1,0.5-1.7,1.2-1.5C66.6,102.8,70.2,103.2,77,101.7"/>
		
			<linearGradient id="Combined-Shape_1_" gradientUnits="userSpaceOnUse" x1="1138.6687" y1="515.2825" x2="1138.2552" y2="515.7316" gradientTransform="matrix(-31 0 0 -40 35425.9844 20664.9961)">
			<stop offset="0" style="stop-color:#F9D3CC"/>
			<stop offset="1" style="stop-color:#FF8572"/>
		</linearGradient>
		<path id="Combined-Shape" class="st8" d="M118.7,41.3l-0.7-8.4l11.6-2.7l3.8,10.4l4.7-0.2c3-0.1,3.2,1.7,3.4,4.8    c0.3,4.3,0.8,10.6,1.5,17.6c0.4,4.2-3.2,7.8-7.5,7.3c-1.2-0.1-2.4-0.2-3.6-0.4c-4.5-0.5-9-0.6-13.5-1.1c-3.4-0.4-6-3.2-6.1-6.6    c-0.1-6.4-0.4-12.2-0.3-16c0.1-2.8,0.1-4.4,2.9-4.5L118.7,41.3z"/>
		
			<linearGradient id="Fill-5_1_" gradientUnits="userSpaceOnUse" x1="1177.7443" y1="503.1478" x2="1178.0056" y2="503.7597" gradientTransform="matrix(-21 0 0 -23 24849.9922 11845.9834)">
			<stop offset="0" style="stop-color:#FDC7C0"/>
			<stop offset="1" style="stop-color:#FA968C"/>
		</linearGradient>
		<path id="Fill-5" class="st9" d="M124.5,255.2c0,0,0.2,14,1.5,16.6c1.3,2.6,1.7,5.6-2,5.8c-3.6,0.2-12.4,0.6-13.6,0.6    c-2.3,0-4.4-0.1-4.5-1.6c0-1.5,10.7-2.5,12.7-4.2c2-1.7-0.3-16.1-0.3-16.1L124.5,255.2z"/>
		<path id="Fill-7" class="st10" d="M111.3,274.8c2.1,0.6,4.3,0.9,6.6,0.8c3.1-0.1,6-1,8.6-2.4c0.9,2.2,0.8,4.3-2.4,4.4    c-3.6,0.1-12.4,0.6-13.6,0.6c-2.3,0-4.4-0.1-4.5-1.5C106,276,108.5,275.4,111.3,274.8"/>
		
			<linearGradient id="Fill-9_1_" gradientUnits="userSpaceOnUse" x1="1177.7838" y1="502.9485" x2="1177.7838" y2="503.9486" gradientTransform="matrix(-21 0 0 -23 24885.9844 11846)">
			<stop offset="0" style="stop-color:#FDC7C0"/>
			<stop offset="1" style="stop-color:#FA968C"/>
		</linearGradient>
		<path id="Fill-9" class="st11" d="M160.6,255.2c0,0,0.2,14.3,1.5,17c1.3,2.7,1.8,5.9-1.9,5.9c-3.5,0-10.3,0.2-11.6,0.1    c-3-0.2-6.5,0.1-6.6-1.4c0-1.6,11-2.3,13-4c1.9-1.7-0.3-16.5-0.3-16.5L160.6,255.2z"/>
		<path id="Fill-11" class="st10" d="M148.7,274.5c2,0.7,4.1,1,6.3,0.9c2.7-0.1,5.2-0.9,7.5-2.1c0.8,2.4,0.8,4.8-2.4,4.9    c-3.5,0-10.3,0.2-11.6,0.1c-3-0.2-6.5,0.1-6.6-1.5C142,275.8,145.4,275.2,148.7,274.5"/>
		
			<linearGradient id="Fill-13_1_" gradientUnits="userSpaceOnUse" x1="1109.791" y1="527.229" x2="1109.5925" y2="527.8986" gradientTransform="matrix(-47.6839 0 0 -159 53048.1719 84048)">
			<stop offset="0" style="stop-color:#768888"/>
			<stop offset="1" style="stop-color:#415050"/>
		</linearGradient>
		<path id="Fill-13" class="st12" d="M127,163.6c8.4-11.7,16.1-25,18.3-30.2c4.4-10.6-0.2-22.6-10.3-26.9s-15.2,2.6-19.6,13.2    c-3.5,8.2-15.3,53.5-15.8,56.6c-0.5,3.1-0.8,5.3,2.2,17.3c2.8,11.3,17.1,70.6,17.1,70.6l7.1-0.4c0,0,4.4-50.9-5.7-80.8    C119.2,179.7,125,166.4,127,163.6z"/>
		
			<linearGradient id="Fill-15_1_" gradientUnits="userSpaceOnUse" x1="1126.2224" y1="527.4528" x2="1125.1975" y2="528.3568" gradientTransform="matrix(-36.4595 0 0 -157 41210.2539 82984)">
			<stop offset="0" style="stop-color:#8EA2A7"/>
			<stop offset="1" style="stop-color:#55696E"/>
		</linearGradient>
		<path id="Fill-15" class="st13" d="M150.6,163.3c4.5-14,7.8-29.4,8.3-35.1c1-11.7-7.2-21.9-18.3-22.9c-11.1-1-13.9,7.3-14.9,18.9    c-0.8,9.1,1.3,53.3,2.3,59.2c1,5.8,0.9,6.2,7.6,16.9c5.6,9.1,17.5,61.9,17.5,61.9l8.1-0.4c0,0,5.3-48.9-11.2-78.4    C148.3,180.3,149.5,166.7,150.6,163.3z"/>
		
			<linearGradient id="SVGID_2_" gradientUnits="userSpaceOnUse" x1="1098.3959" y1="524.7452" x2="1098.8262" y2="524.4155" gradientTransform="matrix(-60.8198 0 0 -95.6379 66932.4844 50274.375)">
			<stop offset="0" style="stop-color:#88EAF0"/>
			<stop offset="1" style="stop-color:#50D1DD"/>
		</linearGradient>
		<path class="st14" d="M109.3,41.8L109.3,41.8L109.3,41.8c0.1,0,0.1,0,0.1,0l0,0l5.5-0.3c1.7,3.6,2.9,6.9,8,6.7    c5.2-0.2,11-4.1,12.4-7.8l6.8-0.2c4.2-0.2,7.8,3,8.1,7.3c0.7,11,2.2,32.2,4.2,51.3c1.8,17.3,7.3,34.4,4.6,35.4c-2.7,1-39,4-53-2    c1.3-11.6,1.6-24.6,2.3-40c0.5-12.1,0-19.6-0.1-26.5c-3.7-0.8-9.2-1.7-9.2-1.8c0.6-4.1,4.1-16.3,4.1-16.5    C103.8,43.9,107.4,42,109.3,41.8z"/>
		<path id="Fill-23" class="st15" d="M128,31.7l4.4,1.3c2.2,0.7,4.5-0.6,5.1-2.8l3.8-12.7l-7.6-5.3L128,31.7z"/>
		<path id="Fill-29" class="st7" d="M117.5,37.6c7.6,2.3,15.6-2.1,17.9-9.8l4.6-15.5l-23.7-7.1c0,0-3.6,12.1-4.2,20.8    C111.6,32.5,113.6,36.4,117.5,37.6"/>
		<path id="Fill-31" class="st7" d="M132.4,22.7c-0.9,3-0.2,5.9,1.6,6.4c1.8,0.5,4.9-2.8,5.8-5.8s-0.8-4.5-2.6-5    C135.4,17.7,133.3,19.7,132.4,22.7"/>
		<g id="Group-35" transform="translate(117.000000, 0.000000)">
			<g id="Clip-34">
			</g>
			
				<linearGradient id="Fill-33_1_" gradientUnits="userSpaceOnUse" x1="1025.5795" y1="506.1453" x2="1025.5795" y2="505.1449" gradientTransform="matrix(-29.5882 0 0 -24.9527 30355.9688 12626.8311)">
				<stop offset="0" style="stop-color:#008EC0"/>
				<stop offset="1" style="stop-color:#00558C"/>
			</linearGradient>
			<path id="Fill-33" class="st16" d="M-3.9,10.7c0-0.1,0-0.2,0-0.2c0-2,0.5-4,1.4-5.9c0,0,1.9-6.9,5-7.4C5.3-3.3,9-0.5,11.4,0.9     c1.8,1,7.9,2.4,7.9,2.4c4.7,1.4,7.5,6.5,6.1,11.3l-0.9,3.2c-0.2,0.8-1,1.3-1.8,1.3L21,19c-0.6,0-1.2,0.3-1.6,0.8l-1.7,2.3     L17.4,22c-1.4-0.4-2.2-1.7-2.1-3.1c0.2-3-1.4-5.8-4.2-6.7l-5.7-1.7c-4.3-1.3-7.2,0.4-8.1,3.6l-0.6,2.8L-3.9,10.7z"/>
		</g>
		<g id="Group-40" transform="translate(91.000000, 132.000000)">
			<g id="Clip-39">
			</g>
			
				<linearGradient id="Fill-38_1_" gradientUnits="userSpaceOnUse" x1="1283.8771" y1="395.9373" x2="1283.8771" y2="394.9926" gradientTransform="matrix(-8 0 0 -161 10271 63752)">
				<stop offset="0" style="stop-color:#9C9A9A"/>
				<stop offset="1" style="stop-color:#D8D8D8"/>
			</linearGradient>
			<polygon id="Fill-38" class="st17" points="4,158.1 -2.4,158.2 -4,-2.7 2.4,-2.8    "/>
		</g>
		<g id="Group-45" transform="translate(0.000000, 127.000000)">
			<g id="Clip-44">
			</g>
			<path id="Fill-43" class="st18" d="M180.9,2.6l-0.1-5.2h-2h-4.2L2.2-0.8h-4.3L-4-0.7l0.1,5.2c0,1.3,41.4,2,92.4,1.5     S180.9,4,180.9,2.6C180.9,2.7,180.9,2.6,180.9,2.6"/>
		</g>
		<path id="Fill-46" class="st19" d="M180,124.1c0,1.5-41.2,3.3-92,3.9s-92-0.2-92-1.7s41.2-3.3,92-3.9    C138.8,121.8,180,122.6,180,124.1"/>
		<path id="Fill-46-Copy" class="st19" d="M91,293c-18.2,0.3-28.8-0.3-28.8-2.5c0-2.2,10.6-2.8,28.9-3.1c18.2-0.3,30.1-0.1,30.1,2.6    C121.1,292.7,109.2,292.7,91,293z"/>
		
			<linearGradient id="Fill-48_1_" gradientUnits="userSpaceOnUse" x1="1190.5538" y1="494.0496" x2="1190.5538" y2="493.0495" gradientTransform="matrix(-19 0 0 -17 22648.998 8507.0039)">
			<stop offset="0" style="stop-color:#80C3F3"/>
			<stop offset="1" style="stop-color:#4A90E2"/>
		</linearGradient>
		<path id="Fill-48" class="st20" d="M37.2,108.2c0.5,0,0.9,0.5,0.8,1l-2.5,14.7c-0.1,0.8-0.7,1.3-1.5,1.3H23.2    c-0.8,0-1.4-0.6-1.5-1.3L19,109.2c-0.1-0.5,0.3-1,0.8-1H37.2z"/>
		
			<linearGradient id="Fill-50_1_" gradientUnits="userSpaceOnUse" x1="1339.5029" y1="478.2372" x2="1339.5029" y2="477.2365" gradientTransform="matrix(-9 0 0 -12 12074 5849)">
			<stop offset="0" style="stop-color:#80C3F3"/>
			<stop offset="1" style="stop-color:#4A90E2"/>
		</linearGradient>
		<path id="Fill-50" class="st21" d="M16,120.4c-1.3-1-2-2.5-2-4.2c0-1.9,0.7-3.5,2.1-4.5c2.2-1.7,5.4-1.5,5.5-1.5l-0.2,2.4    c0,0-2.1-0.1-3.4,0.9c-0.8,0.6-1.2,1.5-1.2,2.8c0,1.1,0.4,1.9,1.1,2.5c1.7,1.3,4.8,1.1,4.8,1.1l0.3,2.3c0,0-0.3,0-0.6,0    C21.1,122.2,18.1,122,16,120.4z"/>
		
			<linearGradient id="Fill-52_1_" gradientUnits="userSpaceOnUse" x1="1121.8436" y1="521.7598" x2="1122.4508" y2="522.3973" gradientTransform="matrix(-39 0 0 -67 43894.9844 35047)">
			<stop offset="0" style="stop-color:#FDDDD8"/>
			<stop offset="1" style="stop-color:#FAB9AF"/>
		</linearGradient>
		<path id="Fill-52" class="st22" d="M145.3,99.3c9.3-10.3,9.3-23.5-2.5-43.1c-2.6-4.3,0.4-8.1,3.9-8.1c6.4,0.1,6.1,2.5,6.8,3.6    c15.9,24.6,17.8,58.4-25,63.4c-1,0.1-2.4-0.6-3.1-1.6c-0.7-0.9-0.6-1.7,0.1-1.9C133.8,108.6,140.6,104.5,145.3,99.3"/>
		<path id="Fill-54" class="st23" d="M125.5,118.2c0,0,4.3-1.5,4.4-3.7c0.1-2.2-0.1-3.7-2.1-4.2c-2.1-0.5-5,0.4-6.7,1.5    s-4,4.8-4.1,5.4c-0.3,2.4,2.7-0.1,4.1-1.2c1.5-1.1,3.2-2.1,3.3-0.9c0.2,1.2-2.7,3-2.9,4.5C121.5,121.3,125.5,118.2,125.5,118.2"/>
		<path id="Fill-56" class="st24" d="M157.6,123.9l-37.5,0.3l-0.1-4.7l37.5-0.3c1.4,0,2.5,1,2.5,2.3    C160,122.8,158.9,123.9,157.6,123.9"/>
		
			<linearGradient id="Fill-58_1_" gradientUnits="userSpaceOnUse" x1="1089.1541" y1="520.0527" x2="1089.1541" y2="519.0526" gradientTransform="matrix(-78 0 0 -54 85042 28154)">
			<stop offset="0" style="stop-color:#E2E3E4"/>
			<stop offset="1" style="stop-color:#C1C3C5"/>
		</linearGradient>
		<path id="Fill-58" class="st25" d="M127,124.6l-59,0.6c-3.1,0-5.8-2-6.6-4.9L49.2,78.2c-0.9-3.2,1.4-6.4,4.8-6.4l55.1-0.6    c1.9,0,3.6,1.3,4.2,3.1L127,124.6z"/>
		<path id="Fill-60" class="st26" d="M92,99.6c0,3-2.4,5.5-5.4,5.6c-3,0-5.5-2.4-5.6-5.4c0-3,2.4-5.5,5.4-5.6    C89.5,94.2,92,96.6,92,99.6"/>
		
			<linearGradient id="Fill-62_1_" gradientUnits="userSpaceOnUse" x1="1173.4583" y1="501.9784" x2="1177.3647" y2="500.8751" gradientTransform="matrix(-21.9967 -0.384 0.4014 -22.9965 25721.1289 12034.7832)">
			<stop offset="0" style="stop-color:#88EAF0"/>
			<stop offset="1" style="stop-color:#50D1DD"/>
		</linearGradient>
		<path id="Fill-62" class="st27" d="M140,53.2c0,0-0.6-0.8-0.8-1.1c-1.7-2.1-2.1-4.2-2.1-4.2s-0.7-4.2,4.6-7.1    c4.3-2.3,7.8,1.8,7.8,1.8c0.5,0.6,5.3,3.5,9.4,15.5c0,0-12.2,5.8-12.7,4.9C142.7,56.6,140.1,53.3,140,53.2z"/>
	</g>
</g>
</svg>