<svg version="1.1" id="Livello_1" xmlns="http://www.w3.org/2000/svg" xmlns:xlink="http://www.w3.org/1999/xlink" x="0px" y="0px" viewBox="0 0 270.5 698" style="enable-background:new 0 0 270.5 698;" xml:space="preserve">
<style type="text/css">
	.st0{fill:#EEF4FC;}
	.st1{fill:url(#Shape_1_);}
	.st2{fill:#00C8E7;}
	.st3{fill:#001F8E;}
	.st4{fill:#FF9700;}
	.st5{fill:url(#SVGID_1_);}
	.st6{fill:url(#SVGID_2_);}
	.st7{fill-rule:evenodd;clip-rule:evenodd;fill:#4A90E2;fill-opacity:0.31;}
	.st8{fill-rule:evenodd;clip-rule:evenodd;fill:#FAB9AF;}
	.st9{fill-rule:evenodd;clip-rule:evenodd;fill:url(#Fill-11-Copy_1_);}
	.st10{fill-rule:evenodd;clip-rule:evenodd;fill:url(#SVGID_3_);}
	.st11{fill-rule:evenodd;clip-rule:evenodd;fill:url(#Fill-7_1_);}
	.st12{fill-rule:evenodd;clip-rule:evenodd;fill:url(#Fill-11_1_);}
	.st13{fill-rule:evenodd;clip-rule:evenodd;fill:url(#Fill-13_1_);}
	.st14{fill-rule:evenodd;clip-rule:evenodd;fill:url(#Fill-15_1_);}
	.st15{fill-rule:evenodd;clip-rule:evenodd;fill:url(#Combined-Shape_1_);}
	.st16{fill-rule:evenodd;clip-rule:evenodd;fill:url(#Fill-27_1_);}
	.st17{fill-rule:evenodd;clip-rule:evenodd;fill:url(#Fill-29_1_);}
	.st18{fill-rule:evenodd;clip-rule:evenodd;fill:url(#Fill-31_1_);}
	.st19{fill-rule:evenodd;clip-rule:evenodd;fill:url(#Fill-33_1_);}
	.st20{fill-rule:evenodd;clip-rule:evenodd;fill:url(#Fill-35_1_);}
	.st21{fill-rule:evenodd;clip-rule:evenodd;fill:#FFFFFF;}
	.st22{fill-rule:evenodd;clip-rule:evenodd;fill:#A0A0A0;}
	.st23{fill-rule:evenodd;clip-rule:evenodd;fill:url(#Fill-41_1_);}
</style>
<title>Group 51</title>
<desc>Created with Sketch.</desc>
<g id="Desktop_illustration">
	<g id="Group-51">
		<g id="Group-4">
			<g id="Clip-2">
			</g>
			<g>
				<path class="st0" d="M248.6,212.5c-16.8-42.6-53.5-63.3-98.8-63.9c-9.6-0.1-18.8,0.7-27.5,2.5c14.2,7.1,22.7,18,27,24.9      c13.1-5.1,41.4-11.3,58.8,20.1H57.3c-5.2,8.4-9.5,17.9-12.8,28.5c-4.7,15.2-6.3,42.8-5,82.9v236.1h2.1      c61.6-26.9,123.4-71.7,193.6-70.9c7.3,0.1,14.8,0.8,22.3,1.9V317.9C258.6,265.4,255.6,230.3,248.6,212.5z"/>
			</g>
			<g id="Risorsa-1-Copy" transform="translate(126.000000, 0.000000)">
				
					<linearGradient id="Shape_1_" gradientUnits="userSpaceOnUse" x1="-1881.3087" y1="7.4009" x2="-1880.6991" y2="7.4009" gradientTransform="matrix(87 0 0 54 163692.4688 -39)">
					<stop offset="0" style="stop-color:#488EFF"/>
					<stop offset="1" style="stop-color:#001F8E"/>
				</linearGradient>
				<path id="Shape" class="st1" d="M92.6,387.6c-0.3-0.9-0.6-1.8-1-2.6c0-0.1,0-0.2-0.1-0.3c-0.7-1.6-1.7-3.2-2.7-4.6      c-0.5-0.7-1.1-1.4-1.7-2c-3.7-4-8.5-6.8-13.3-9.6c-1.7-1-3.3-1.9-4.9-2.9l-0.7-0.6l-1.4-0.9c-0.5-0.3-0.9-0.6-1.4-1l-0.8-0.6      l-1-0.8l-0.8-0.7c-0.4-0.3-0.7-0.7-1-1l-0.5-0.5c-8.4-9.1-5.1-24.2-4.7-25.8v-0.1H41.7c0,0.2,2.9,17-5.1,25.9l-0.5,0.5      c-0.3,0.3-0.7,0.7-1,1l-0.6,0.7c-0.3,0.3-0.6,0.5-1,0.8l-0.8,0.6l-1.3,0.9l-1.5,1l-0.6,0.4c-1.5,1-3.2,2-4.9,3      c-3.2,1.8-6.4,3.8-9.4,5.9c-1.4,1-2.7,2.2-3.9,3.5l-0.2,0.2c-0.6,0.6-1.1,1.3-1.6,1.9l-0.1,0.2c-0.5,0.7-1,1.4-1.4,2.1l-0.1,0.2      c-0.4,0.7-0.8,1.5-1.2,2.3L6.4,385c-0.4,0.8-0.7,1.7-1,2.6c0.2-0.1,21.2-8.4,40.7-9.3h0.1l2.6-0.1c0.8,0,1.6,0,2.5,0      c19.6,0.8,40.8,9.2,41,9.3L92.6,387.6z"/>
				<path class="st2" d="M56.9,392.6c0-2.3-0.6-4.5-1.9-6.4c-1.6-2.3-2.7-4.9-3.4-7.6c19.6,0.8,40.8,9.5,41,9.5      C80.8,390.8,68.9,392.3,56.9,392.6z"/>
				<path class="st2" d="M54.9,385.7c1.3,1.7,1.9,3.8,1.9,5.9c12-0.3,24-1.7,35.8-4.1c0,0-21.2-8.1-41-8.9      C52.2,381.2,53.4,383.6,54.9,385.7z"/>
				<path class="st3" d="M49.1,327.3c-0.2,0.1-0.4,1.3-0.5,3.3v-338h1V330C49.5,328.4,49.3,327.5,49.1,327.3L49.1,327.3z"/>
				<path class="st4" d="M41.6,333.5c0-3.2,1.8-6.1,4.5-7.3c0.9-0.4,1.9-0.6,2.9-0.6c1.1,0,2.2,0.2,3.2,0.8c0.8,0.4,1.5,0.9,2.1,1.6      c1.4,1.5,2.2,3.5,2.2,5.6L41.6,333.5L41.6,333.5z"/>
				
					<linearGradient id="SVGID_1_" gradientUnits="userSpaceOnUse" x1="-1789.7012" y1="17.2021" x2="-1789.7012" y2="16.2021" gradientTransform="matrix(15 0 0 23 26894.5879 6)">
					<stop offset="0" style="stop-color:#FE9902"/>
					<stop offset="6.000000e-02" style="stop-color:#FBA00B"/>
					<stop offset="0.26" style="stop-color:#F3B21F"/>
					<stop offset="0.45" style="stop-color:#EEBC2C"/>
					<stop offset="0.63" style="stop-color:#ECC030"/>
					<stop offset="0.83" style="stop-color:#F0D56C"/>
					<stop offset="0.86" style="stop-color:#EFD263"/>
				</linearGradient>
				<path class="st5" d="M49,401.6c-5.2,0-7.5-4.7-7.4-9.4c-0.1-2.1,0.5-4.2,1.7-6c1.5-2.3,2.6-4.8,3.1-7.5h0.1l2.5-0.1      c0.8,0,1.6,0,2.4,0c0.6,2.7,1.7,5.2,3.3,7.4c1.2,1.8,1.9,3.9,1.9,6.1c0,4.5-2.2,9.2-7.3,9.4L49,401.6L49,401.6z"/>
				
					<linearGradient id="SVGID_2_" gradientUnits="userSpaceOnUse" x1="-1789.7008" y1="17.2021" x2="-1789.7008" y2="16.1987" gradientTransform="matrix(15 0 0 23 26894.5879 6)">
					<stop offset="0" style="stop-color:#FE9902"/>
					<stop offset="6.000000e-02" style="stop-color:#FBA00B"/>
					<stop offset="0.26" style="stop-color:#F3B21F"/>
					<stop offset="0.45" style="stop-color:#EEBC2C"/>
					<stop offset="0.63" style="stop-color:#ECC030"/>
					<stop offset="0.83" style="stop-color:#F0D56C"/>
					<stop offset="0.86" style="stop-color:#EFD263"/>
				</linearGradient>
				<path class="st6" d="M51.4,378.6c-0.8,0-1.6,0-2.4,0c-0.8,0-1.7,0-2.5,0h-0.1c-0.6,2.7-1.6,5.3-3.1,7.5c-1.1,1.8-1.7,3.8-1.7,6      c0,4.5,2.2,9.5,7.5,9.5c0.1,0,0.1,0,0.2,0c5.2-0.2,7.4-4.9,7.3-9.5c0-2.2-0.6-4.4-1.9-6.2C53.2,383.8,52.1,381.3,51.4,378.6z"/>
				<path class="st2" d="M41.6,391.6c-12.1-0.4-24.1-1.7-36-4.1c0.2-0.1,21.4-8.1,41-8.9c-0.6,2.6-1.7,5.1-3.2,7.3      C42.2,387.5,41.5,389.5,41.6,391.6L41.6,391.6z"/>
			</g>
			<path id="Fill-1-Copy-4" class="st7" d="M102.8,690.4c-19.7-1.1-39.9-6.4-46.7-13.7c-5-5.3-12.4-10-22.3-13.1     C15.9,658,5.3,651.5,5.7,645c0.6-11.6,36.2-19.7,85.8-20.9c12.9-0.3,25.1-2.7,34.1-7.1c12.7-6.1,32.7-9.5,55.1-8.3     c33,1.8,61.6,13.2,65.8,26.9c1.5,4.9,6.1,9.4,12.3,13.4c5.1,3.2,7.8,6.5,7.6,9.8c-0.6,12-38.7,20.2-90.9,21     c-11.8,0.2-22.9,2.1-31.9,5.7C134.3,689.4,119.4,691.3,102.8,690.4z"/>
			<g id="Group-43" transform="translate(37.000000, 489.000000)">
				<path id="Fill-9-Copy" class="st8" d="M40.6,157.3c0.2-0.1,0.4-0.4,0.5-0.7c0.3-1.2,0.5-2.2,0.6-2.6c0-0.2,0.1-0.4,0.2-0.5      c5.1-6.6,12.3-11.7,20.1-16.4c0.7-0.4,0.7-1.8-0.1-2.2l-8.5-4.2c-0.3-0.1-0.6-0.1-0.9,0.1c-2.2,1.9-13.6,14.8-20.1,20.1      c-5.2,4.2-10.1,3-13.7,6.5c-0.6,0.6,0.9,3.5,1.7,3.7c1.3,0.3,2.7,0.5,4.1,0.5C30.1,161.5,35.5,159.8,40.6,157.3z"/>
				
					<linearGradient id="Fill-11-Copy_1_" gradientUnits="userSpaceOnUse" x1="-1673.1492" y1="30.3098" x2="-1673.1492" y2="31.3098" gradientTransform="matrix(34.187 1.7917 -0.4931 9.4089 57238.1133 2867.9907)">
					<stop offset="0" style="stop-color:#768888"/>
					<stop offset="1" style="stop-color:#415050"/>
				</linearGradient>
				<path id="Fill-11-Copy" class="st9" d="M34.2,163.7c3.7,0.1,6.2-7,6.1-6.9c-6.1,3.7-12.7,2.4-18.3-1.2c-0.6-0.4-1.3-0.4-1.9-0.1      c-6.4,3.4-10.9,3.2-13.4,4.7c-1.4,0.8-1.2,3.3,0.3,3.7c4.9,1.1,15.6-0.9,18.7-0.5L34.2,163.7z"/>
				
					<linearGradient id="SVGID_3_" gradientUnits="userSpaceOnUse" x1="-1698.5352" y1="3.2386" x2="-1698.3762" y2="3.6212" gradientTransform="matrix(70 0 0 118 119051.4766 -372.0039)">
					<stop offset="0" style="stop-color:#455DD9"/>
					<stop offset="1" style="stop-color:#2130B2"/>
				</linearGradient>
				<path class="st10" d="M140.8,52.1c-2.3-7.4,0.6-15.2,5-22c3.1-4.7,3.5-12.6,1.6-17.9c-1.3-3.5-0.8-5.4,1.4-5.7l28.6-5.9l0.4,0.5      c1.4,5.8,6.8,7.3,7.9,12c1.6,6.5,5.8,8.5,10.1,14.6c10.5,15,8.7,34.6-3.8,44.7c7.6,14.8,4.6,32.4-7.9,41.2      c-13.7,9.7-33.7,4.9-44.6-10.7c-9.2-13.2-9-29.8-0.4-40.5C141.4,59.5,141.8,55.6,140.8,52.1z"/>
				
					<linearGradient id="Fill-7_1_" gradientUnits="userSpaceOnUse" x1="-1710.156" y1="4.8397" x2="-1710.156" y2="5.8395" gradientTransform="matrix(140 0 0 77 239528.4062 -286.0039)">
					<stop offset="0" style="stop-color:#00ABD5"/>
					<stop offset="1" style="stop-color:#0073AA"/>
				</linearGradient>
				<path id="Fill-7" class="st11" d="M104.6,118.2c11.4,15.3,33.8,37,39.1,41.1c10.4,8.1,24,4.4,30.3-8.4c6.4-12.8,0-21-10.4-29.1      c-8-6.3-39.8-30-56.7-34.5c-0.1,0-0.2-0.1-0.3-0.1c-4.8-1.2-5.9-0.6-9.8,2l0,0c-7.3,3.5-27.4,21.9-60.2,55.1      c4.6,4.3,7.4,7.2,8.3,8.7c15.9-9.5,34.5-24.8,49.4-34.1C97.9,116.6,101.7,114.3,104.6,118.2z"/>
				<path id="Fill-9" class="st8" d="M42.6,168.4c0.2-0.1,0.4-0.4,0.5-0.7c0.3-1.2,0.5-2.2,0.6-2.6c0-0.2,0.1-0.4,0.2-0.5      C49,158,56.2,152.9,64,148.2c0.7-0.4,0.7-1.8-0.1-2.2l-8.5-4.2c-0.3-0.1-0.6-0.1-0.9,0.1c-2.2,1.9-12.6,15.5-20.1,20.1      c-4.8,3-9.7,3.5-14.8,5.6c-1,0.4,2,4.5,2.9,4.7c1.3,0.3,2.7,0.5,4.1,0.5C32.1,172.6,37.5,170.9,42.6,168.4z"/>
				
					<linearGradient id="Fill-11_1_" gradientUnits="userSpaceOnUse" x1="-1672.8925" y1="24.1005" x2="-1672.8925" y2="25.1005" gradientTransform="matrix(34.1036 2.9837 -0.8212 9.3859 57097.7188 4930.7412)">
					<stop offset="0" style="stop-color:#768888"/>
					<stop offset="1" style="stop-color:#415050"/>
				</linearGradient>
				<path id="Fill-11" class="st12" d="M37,174.2c3.7,0.3,6.5-6.8,6.3-6.7c-6.3,3.4-12.8,2-18.3-1.9c-0.6-0.4-1.3-0.5-1.9-0.2      c-6.6,3.2-11,2.8-13.5,4.2c-1.4,0.7-1.3,3.3,0.1,3.7c4.8,1.2,15.6-0.4,18.7,0.1L37,174.2z"/>
				
					<linearGradient id="Fill-13_1_" gradientUnits="userSpaceOnUse" x1="-1710.0077" y1="5.4007" x2="-1710.0077" y2="6.4007" gradientTransform="matrix(138.2715 0 0 69 236553.8281 -276.9961)">
					<stop offset="0" style="stop-color:#00C4E6"/>
					<stop offset="1" style="stop-color:#0091C8"/>
				</linearGradient>
				<path id="Fill-13" class="st13" d="M105.1,125.5c12.7,13.5,36.4,32.8,42,36.2c11,6.7,24,1.4,28.9-11.8      c5-13.2-2.1-20.5-13.1-27.2c-8.5-5.2-42.1-24.5-59.2-26.9c-0.1,0-0.2,0-0.3,0c-4.9-0.6-5.9,0.1-9.4,3.1l0,0      c-6.8,4.3-25,23.2-54.6,56.7c3.8,3.8,6.2,6.3,7.3,7.6c17.3-9.4,36-22.6,47.2-34.8C96.8,126.2,101.9,122.1,105.1,125.5z"/>
				
					<linearGradient id="Fill-15_1_" gradientUnits="userSpaceOnUse" x1="-1618.4196" y1="14.1485" x2="-1618.8397" y2="13.501" gradientTransform="matrix(16 0 0 28 26062.0723 -350)">
					<stop offset="0" style="stop-color:#F9D3CC"/>
					<stop offset="1" style="stop-color:#FF8572"/>
				</linearGradient>
				<path id="Fill-15" class="st14" d="M160.2,50l12.4,0.6l-4.4-28l-11.5,2l-0.1,13C156.6,40,158,49.9,160.2,50"/>
				
					<linearGradient id="Combined-Shape_1_" gradientUnits="userSpaceOnUse" x1="-1664.6025" y1="9.1859" x2="-1664.8611" y2="10.0054" gradientTransform="matrix(28.8849 0 0 40.714 48250.0625 -373.4305)">
					<stop offset="0" style="stop-color:#FDDDD8"/>
					<stop offset="1" style="stop-color:#FAB9AF"/>
				</linearGradient>
				<path id="Combined-Shape" class="st15" d="M178.1,17.4c1.3,1,2,2.6,1,5.1c-0.4,1.1-1.1,2.2-1.9,3.1c-1,8.7-8.9,15-17.7,14.2      c-4.5-0.4-7.7-4.2-8.5-11.4c-1.1-9.6,0.3-23.4,0.3-23.4l8.8-5.8l18.8,8.4L178.1,17.4z"/>
				<path id="Fill-23" class="st8" d="M101.3,75.4c16.2,0.6,28.6-8.8,38.5-32.4c2.2-5.2,7.9-5.4,10.3-2.4c2.5,3.2,3.1,4.1,1.5,8.3      c-11.7,30.7-42,56.1-77.2,23.6c-0.8-0.8-1.1-2.4-0.8-3.8c0.4-1.2,1.2-1.7,1.9-1.3C84.4,72.2,93,75.1,101.3,75.4"/>
				<path id="Fill-25" class="st8" d="M68.6,72.7c0,0,5.2-0.1,6.2-2.3s1.4-3.7-0.6-4.8s-5.5-1.1-7.8-0.6c-2.2,0.6-6.2,3.5-6.5,4.2      c-1.2,2.3,2.9,0.7,4.9,0.1c2-0.6,4.2-1.1,3.9,0.2s-4.1,2.1-4.9,3.6C63,74.5,68.6,72.7,68.6,72.7"/>
				
					<linearGradient id="Fill-27_1_" gradientUnits="userSpaceOnUse" x1="-1699.949" y1="4.5511" x2="-1700.3511" y2="3.6484" gradientTransform="matrix(76.1659 0 0 104.6702 129646.0469 -334.1277)">
					<stop offset="0" style="stop-color:#E4DDDD"/>
					<stop offset="1" style="stop-color:#FFFFFF"/>
				</linearGradient>
				<path id="Fill-27" class="st16" d="M182.8,55.5c-4-5.4-8.6-6.5-13-6.9c-3.2-0.3-6.2-0.2-8.8-1c-6.2-2-8.3-6.7-11.5-8.3      c-2.7-1.2-3.5-0.9-4.4-0.7s-4.3,1.1-5.6,4c-9.3,20.3-19.3,29.5-32.8,30.8l0.5,14c12.2,1.3,22.8-4,31.2-12.5c0,4.5,0,8.7,0.3,12      c0.3,3.2-2.3,22.9,0.1,27.6c0,0,27.7,14.3,38.7,28.6c1.2-1.4,2.2-8.8,2.6-15.8C175.6,102.8,183,55.9,182.8,55.5z"/>
				
					<linearGradient id="Fill-29_1_" gradientUnits="userSpaceOnUse" x1="-1638.373" y1="14.9767" x2="-1637.5413" y2="16.7154" gradientTransform="matrix(19.7445 0 0 25.0982 32521.2715 -376.9592)">
					<stop offset="0" style="stop-color:#455DD9"/>
					<stop offset="1" style="stop-color:#2130B2"/>
				</linearGradient>
				<path id="Fill-29" class="st17" d="M175.9,19.9c0.3-0.1,0.6-0.5,0.9-0.8c1.1-1.2,3.6-0.8,4.2,0.8c0.6,1.7,6.1,1.4,4.4-7.3      C183.7,4,182.8,2,179.8-1c-3.9-3.9-9.2-4.2-12.2-2.3c-2.5,1.7-1.7,8.7,0,12.8c2.2,5.3,5.9,7.8,7.4,9.8      C175.3,19.7,175.6,20,175.9,19.9z"/>
				
					<linearGradient id="Fill-31_1_" gradientUnits="userSpaceOnUse" x1="-1669.863" y1="10.769" x2="-1670.1244" y2="11.1675" gradientTransform="matrix(31.8473 3.9104 -2.1761 17.7228 53350.6016 6355.6577)">
					<stop offset="0" style="stop-color:#455DD9"/>
					<stop offset="1" style="stop-color:#2130B2"/>
				</linearGradient>
				<path id="Fill-31" class="st18" d="M147.1,10.5c-1.6-2.7,1.5-8.8,5.5-11.9s14.3-5.3,17-2.6c2.8,2.8,19.6,18.9,0,13.1      C165.4,12.4,152,11,147.1,10.5z"/>
				
					<linearGradient id="Fill-33_1_" gradientUnits="userSpaceOnUse" x1="-1700.8307" y1="7.1942" x2="-1700.8589" y2="7.3438" gradientTransform="matrix(78 0 0 58 132804.25 -323.002)">
					<stop offset="0" style="stop-color:#FDDDD8"/>
					<stop offset="1" style="stop-color:#FAB9AF"/>
				</linearGradient>
				<path id="Fill-33" class="st19" d="M134.8,94.6c16.7-1,28.2-12.5,35-39.6c1.5-5.9,7.3-6.7,10.3-3.6c5.3,5.6,3.1,7.4,2.7,9      c-7.7,35-35.3,65.9-75.9,33.7c-0.9-0.7-1.5-2.6-1.3-4.1c0.2-1.3,1-2,1.8-1.6C117,92.8,126.3,95.1,134.8,94.6"/>
				
					<linearGradient id="Fill-35_1_" gradientUnits="userSpaceOnUse" x1="-1616.535" y1="15.2994" x2="-1616.535" y2="16.2994" gradientTransform="matrix(15.8807 1.9499 -1.3406 10.918 25793.3516 3071.7236)">
					<stop offset="0" style="stop-color:#FDDDD8"/>
					<stop offset="1" style="stop-color:#FAB9AF"/>
				</linearGradient>
				<path id="Fill-35" class="st20" d="M101.6,96.2c0,0,5.3,0,6.3-2.5s1.4-4.3-0.6-5.7c-2.1-1.3-5.7-1.5-8-0.9s-6.3,4-6.7,4.7      c-1.3,2.6,2.9,0.9,5,0.2c2-0.7,4.3-1.2,4,0.3s-4.2,2.4-5,4.1C96,98.2,101.6,96.2,101.6,96.2"/>
				<path id="Fill-37" class="st21" d="M133.6,93c16.5-2.6,28.9-14.2,33.8-39.4c1.2-5.9,9.3-5.9,12.4-3c3.1,3,4.8,6.2,3.8,14      c-3.2,24.8-18.7,46.1-45.5,45"/>
				
					<g id="Group" transform="translate(85.000000, 85.000000) rotate(-9.000000) translate(-85.000000, -85.000000) translate(49.000000, 47.000000)">
					<path id="Fill-39" class="st22" d="M74.2,68.2l-26-12.9l1.7-3.5l26,12.9c0.9,0.5,1.3,1.6,0.9,2.6       C76.3,68.3,75.1,68.7,74.2,68.2"/>
					
						<linearGradient id="Fill-41_1_" gradientUnits="userSpaceOnUse" x1="-1818.7891" y1="-138.6052" x2="-1818.4092" y2="-137.9878" gradientTransform="matrix(48.3967 7.6653 -8.9168 56.2982 86817.5703 21736.7754)">
						<stop offset="0" style="stop-color:#E2E3E4"/>
						<stop offset="1" style="stop-color:#C1C3C5"/>
					</linearGradient>
					<path id="Fill-41" class="st23" d="M53.7,57.7L13.3,37c-2.1-1.1-3.2-3.4-2.8-5.7L17.2-2c0.5-2.5,3.3-3.8,5.5-2.7l37.7,19.3       c1.3,0.7,2,2.2,1.7,3.6L53.7,57.7z"/>
				</g>
			</g>
		</g>
	</g>
</g>
</svg>