<svg width="177px" height="534px" viewBox="0 0 177 534" version="1.1" xmlns="http://www.w3.org/2000/svg" xmlns:xlink="http://www.w3.org/1999/xlink">
    <!-- Generator: Sketch 52.2 (67145) - http://www.bohemiancoding.com/sketch -->
    <title>Group 36</title>
    <desc>Created with Sketch.</desc>
    <defs>
        <polygon id="path-1" points="0.000675367315 0.833934066 175.73868 0.833934066 175.73868 123.999864 0.000675367315 123.999864"/>
        <polygon id="path-3" points="0 123.046154 176 123.046154 176 0 0 0"/>
        <linearGradient x1="66.1228851%" y1="17.0092105%" x2="50.1536276%" y2="81.1822921%" id="linearGradient-5">
            <stop stop-color="#195FA0" offset="0%"/>
            <stop stop-color="#0091C8" offset="100%"/>
        </linearGradient>
        <linearGradient x1="50%" y1="0%" x2="50%" y2="100%" id="linearGradient-6">
            <stop stop-color="#E8882D" offset="0%"/>
            <stop stop-color="#CD5014" offset="100%"/>
        </linearGradient>
        <linearGradient x1="0%" y1="5.58961987%" x2="72.9276031%" y2="89.9051636%" id="linearGradient-7">
            <stop stop-color="#FDDFDA" offset="0%"/>
            <stop stop-color="#FABCB3" offset="100%"/>
        </linearGradient>
        <radialGradient cx="49.8395131%" cy="60.5025265%" fx="49.8395131%" fy="60.5025265%" r="36.434218%" gradientTransform="translate(0.498395,0.605025),scale(1.000000,0.585898),rotate(106.718595),scale(1.000000,2.172420),translate(-0.498395,-0.605025)" id="radialGradient-8">
            <stop stop-color="#C7C8C8" offset="0%"/>
            <stop stop-color="#FFFFFF" offset="100%"/>
        </radialGradient>
        <linearGradient x1="90.4179782%" y1="18.1684093%" x2="40.3075491%" y2="86.0811473%" id="linearGradient-9">
            <stop stop-color="#FDDDD8" offset="0%"/>
            <stop stop-color="#FAB9AF" offset="100%"/>
        </linearGradient>
        <polygon id="path-10" points="0.119464138 0.448452675 29.230903 0.448452675 29.230903 20.7177337 0.119464138 20.7177337"/>
        <linearGradient x1="100%" y1="12.887321%" x2="62.3123584%" y2="34.3848958%" id="linearGradient-12">
            <stop stop-color="#4581B7" offset="0%"/>
            <stop stop-color="#214A81" offset="100%"/>
        </linearGradient>
    </defs>
    <g id="Desktop_illustration" stroke="none" stroke-width="1" fill="none" fill-rule="evenodd">
        <g id="Group-36" transform="translate(-1.000000, 0.000000)">
            <g id="Group-32">
                <g id="Group-23-Copy" transform="translate(92.500000, 56.000000) scale(-1, 1) translate(-92.500000, -56.000000) translate(40.000000, 0.000000)">
                    <polygon id="Fill-1" fill-opacity="0.455502717" fill="#69CFEB" points="30 56 76 56 76 0 30 0"/>
                    <polygon id="Fill-2" fill-opacity="0.463654891" fill="#4A90E2" points="80 80 105 80 105 55 80 55"/>
                    <polygon id="Fill-3" fill-opacity="0.0929291214" fill="#4A90E2" points="80 47 97 47 97 30 80 30"/>
                    <polygon id="Fill-4" fill="#EEF4FC" points="53 112 94 112 94 95 53 95"/>
                    <polygon id="Fill-5" fill-opacity="0.485931839" fill="#02A8CA" points="0 48 25 48 25 6 0 6"/>
                    <polygon id="Fill-6" fill="#F6F8F9" points="13 87 77 87 77 62 13 62"/>
                </g>
                <g id="Group-4" transform="translate(0.000000, 105.000000)">
                    <path d="M62.3924699,381.689139 C62.3924699,368.372105 65.1016672,354.611782 69.4203875,349.765246 C72.5794515,346.217519 75.2913147,341.050515 76.9141672,334.302352 C79.8572951,322.058248 83.6055179,314.718562 87.6889746,314.718562 C95.0334651,314.718562 101.294943,338.437367 103.733554,371.765951 C104.368033,380.429859 106.274801,388.554478 109.325897,394.479591 C113.612627,402.801855 116.39247,416.181006 116.39247,431.274021 C116.39247,453.516136 110.148986,473.16769 101.645506,476.500831 C98.6330653,477.682466 95.9152039,480.921019 93.6365457,485.259326 C91.7844278,488.787288 89.7810214,490.718562 87.6889746,490.718562 C80.097224,490.718562 73.662464,465.376244 71.4104645,430.274502 C70.9019485,422.343293 69.2890931,414.934431 66.7431808,409.016377 C64.1066286,402.889383 62.3924699,392.932313 62.3924699,381.689139" id="Fill-1" fill-opacity="0.310000002" fill="#4A90E2" transform="translate(89.392470, 402.718562) rotate(-87.000000) translate(-89.392470, -402.718562) "/>
                    <g id="Group-18" transform="translate(1.000000, 0.000000)">
                        <g id="Group-3">
                            <mask id="mask-2" fill="white">
                                <use xlink:href="#path-1"/>
                            </mask>
                            <g id="Clip-2"/>
                            <path d="M175.739355,115.475204 L175.739355,6.69041319 C175.739355,3.45551209 173.140542,0.833797802 169.935248,0.833797802 L5.80343134,0.833797802 C2.59813806,0.833797802 0.000675367315,3.45551209 0.000675367315,6.69041319 L0.000675367315,115.475204 C0.000675367315,120.183116 3.78273233,123.999864 8.45087121,123.999864 L167.289159,123.999864 C171.955947,123.999864 175.739355,120.183116 175.739355,115.475204" id="Fill-1" fill="#214A81" mask="url(#mask-2)"/>
                        </g>
                        <mask id="mask-4" fill="white">
                            <use xlink:href="#path-3"/>
                        </mask>
                        <g id="Clip-5"/>
                        <polygon id="Fill-4" fill="#FFFFFF" mask="url(#mask-4)" points="17.0322581 110.646154 158.021505 110.646154 158.021505 26.7076923 17.0322581 26.7076923"/>
                        <path d="M25.879081,17.1692308 L18.5926404,17.1692308 C17.7307282,17.1692308 17.0322581,16.4772858 17.0322581,15.6234257 L17.0322581,11.0856505 C17.0322581,10.2304065 17.7307282,9.53846154 18.5926404,9.53846154 L25.879081,9.53846154 C26.7409931,9.53846154 27.4408602,10.2304065 27.4408602,11.0856505 L27.4408602,15.6234257 C27.4408602,16.4772858 26.7409931,17.1692308 25.879081,17.1692308" id="Fill-6" fill="#84D5E5" mask="url(#mask-4)"/>
                        <path d="M41.0188659,17.1692308 L33.7324253,17.1692308 C32.8705132,17.1692308 32.172043,16.4772858 32.172043,15.6234257 L32.172043,11.0856505 C32.172043,10.2304065 32.8705132,9.53846154 33.7324253,9.53846154 L41.0188659,9.53846154 C41.8807781,9.53846154 42.5806452,10.2304065 42.5806452,11.0856505 L42.5806452,15.6234257 C42.5806452,16.4772858 41.8807781,17.1692308 41.0188659,17.1692308" id="Fill-7" fill="#84D5E5" mask="url(#mask-4)"/>
                        <path d="M55.2124143,17.1692308 L47.9259737,17.1692308 C47.0640615,17.1692308 46.3655914,16.4772858 46.3655914,15.6234257 L46.3655914,11.0856505 C46.3655914,10.2304065 47.0640615,9.53846154 47.9259737,9.53846154 L55.2124143,9.53846154 C56.0743265,9.53846154 56.7741935,10.2304065 56.7741935,11.0856505 L56.7741935,15.6234257 C56.7741935,16.4772858 56.0743265,17.1692308 55.2124143,17.1692308" id="Fill-8" fill="#84D5E5" mask="url(#mask-4)"/>
                        <polygon id="Fill-9" fill="#84D5E5" mask="url(#mask-4)" points="67.1827957 15.2615385 158.967742 15.2615385 158.967742 11.4461538 67.1827957 11.4461538"/>
                        <polygon id="Fill-10" fill="#84D5E5" mask="url(#mask-4)" points="60.5591398 46.7384615 139.096774 46.7384615 139.096774 38.1538462 60.5591398 38.1538462"/>
                        <polygon id="Fill-11" fill="#84D5E5" mask="url(#mask-4)" points="60.5591398 62 139.096774 62 139.096774 53.4153846 60.5591398 53.4153846"/>
                        <polygon id="Fill-12" fill="#84D5E5" mask="url(#mask-4)" points="60.5591398 77.2615385 139.096774 77.2615385 139.096774 68.6769231 60.5591398 68.6769231"/>
                        <polygon id="Fill-13" fill="#84D5E5" mask="url(#mask-4)" points="60.5591398 93.4769231 139.096774 93.4769231 139.096774 84.8923077 60.5591398 84.8923077"/>
                        <path d="M44.7427133,46.7384615 L39.4723405,46.7384615 C37.0082701,46.7384615 35.0107527,44.8167333 35.0107527,42.4461538 C35.0107527,40.0755744 37.0082701,38.1538462 39.4723405,38.1538462 L44.7427133,38.1538462 C47.2067837,38.1538462 49.2043011,40.0755744 49.2043011,42.4461538 C49.2043011,44.8167333 47.2067837,46.7384615 44.7427133,46.7384615" id="Fill-14" fill="#84D5E5" mask="url(#mask-4)"/>
                        <path d="M44.7427133,62 L39.4723405,62 C37.0082701,62 35.0107527,60.0782718 35.0107527,57.7090362 C35.0107527,55.3371129 37.0082701,53.4153846 39.4723405,53.4153846 L44.7427133,53.4153846 C47.2067837,53.4153846 49.2043011,55.3371129 49.2043011,57.7090362 C49.2043011,60.0782718 47.2067837,62 44.7427133,62" id="Fill-15" fill="#84D5E5" mask="url(#mask-4)"/>
                        <path d="M44.7427133,77.2615385 L39.4723405,77.2615385 C37.0082701,77.2615385 35.0107527,75.3398102 35.0107527,72.9705746 C35.0107527,70.5986513 37.0082701,68.6769231 39.4723405,68.6769231 L44.7427133,68.6769231 C47.2067837,68.6769231 49.2043011,70.5986513 49.2043011,72.9705746 C49.2043011,75.3398102 47.2067837,77.2615385 44.7427133,77.2615385" id="Fill-16" fill="#84D5E5" mask="url(#mask-4)"/>
                        <path d="M44.7427133,93.4769231 L39.4723405,93.4769231 C37.0082701,93.4769231 35.0107527,91.5551948 35.0107527,89.1859593 C35.0107527,86.8140359 37.0082701,84.8923077 39.4723405,84.8923077 L44.7427133,84.8923077 C47.2067837,84.8923077 49.2043011,86.8140359 49.2043011,89.1859593 C49.2043011,91.5551948 47.2067837,93.4769231 44.7427133,93.4769231" id="Fill-17" fill="#84D5E5" mask="url(#mask-4)"/>
                    </g>
                    <g id="Group-42" transform="translate(10.000000, 100.000000)">
                        <path d="M63.5599693,279 C63.5599693,279 64.1085871,295.148092 62.8439764,298.224845 C61.577506,301.301598 61.2687922,304.77899 65.3025284,304.749818 C69.2562967,304.724535 78.7520354,304.71481 80.1226502,304.670079 C82.66303,304.58645 84.9132932,304.281109 84.8630807,302.521019 C84.8128682,300.758985 73.0650066,300.216372 70.8221823,298.442668 C68.5774983,296.66702 70.2307908,279.857679 70.2307908,279.857679 L63.5599693,279 Z" id="Fill-7" fill="#FA968C"/>
                        <path d="M72.2447973,302.107998 C68.7042249,302.107998 65.3327139,301.14871 62.3129282,299.5 C61.4540188,302.424246 61.6988663,305.25151 65.3482598,305.221993 C69.4815185,305.192477 79.4036714,305.184043 80.8338916,305.135552 C83.4902925,305.044894 85.8416057,304.713887 85.7891383,302.805853 C85.7638763,301.882407 82.8840035,301.268884 79.6543486,300.663795 C77.316638,301.580916 74.8273553,302.107998 72.2447973,302.107998 Z" id="Fill-9" fill="#A03C19"/>
                        <path d="M57.2020135,216.83359 C57.5351209,223.056794 61.3581097,257.414344 64.0190958,279.539151 C65.3631456,290.734373 65.5529394,298.797781 66.5929317,298.501346 C69.2732846,297.733311 77.6474504,225.149161 77.143916,215.774895 C76.6403815,206.402554 71.7677169,199.041734 66.261761,199.332394 C60.7538683,199.626904 56.698479,207.461249 57.2020135,216.83359" id="Fill-1" fill="#FA968C"/>
                        <path d="M63.4669189,281.046296 C60.2413149,258.959073 56.7458132,222.260323 57.0842679,215.765769 C57.1216662,215.067532 57.1833734,214.378861 57.2656497,213.70358 C58.4044281,204.431385 58.4661353,195.048237 56.4036187,185.944383 C51.7157408,165.253632 48.0862351,142.804857 47.6935528,136.673768 C46.9137981,124.507239 53.7726477,114.142734 63.0118996,113.52293 C72.2511515,112.903126 79.8617071,121.295352 81.3389402,133.394927 C84.9029989,162.596508 71.1591209,279.938468 71.1048934,280.422451 C70.1774153,280.468362 64.4617139,280.839695 63.4669189,281.046296 Z" id="Fill-3" fill="url(#linearGradient-5)"/>
                        <path d="M78.1605934,219.694701 C78.4956374,225.917905 82.3166886,260.275455 84.9776741,282.400262 C86.3217235,293.595484 86.5115172,301.658892 87.5515094,301.362457 C90.2337982,300.594422 98.6060255,228.008347 98.1024911,218.636006 C97.5989567,209.263665 92.7262934,201.902845 87.2203387,202.193505 C81.7124474,202.488015 77.657059,210.32236 78.1605934,219.694701" id="Fill-11" fill="#FA968C"/>
                        <path d="M92.0634732,283.28166 C91.1341253,283.327571 85.748769,283.995192 84.753974,284.203704 C81.52837,262.114819 77.7043931,225.120194 78.0428477,218.625714 C78.0802461,217.927486 78.1400833,217.238822 78.2242295,216.563549 C79.363008,207.291459 79.4228453,197.908418 77.3603286,188.804668 C72.6743207,168.114154 69.0448149,145.665634 68.6521327,139.532702 C67.872378,127.368225 74.7312276,117.003838 83.9704795,116.384041 C93.2097314,115.764244 100.820287,124.156375 102.29752,136.255811 C105.861579,165.45706 92.1177008,282.797682 92.0634732,283.28166" id="Fill-13" fill="#0091C8"/>
                        <path d="M84.5661012,282.296296 C84.5661012,282.296296 85.1430622,298.440173 83.815662,301.516122 C82.4882618,304.592072 81.9912177,308.226049 86.3924947,308.039392 C90.5345292,307.866345 98.5691014,307.59997 99.9978596,307.448312 C103.57073,307.071109 107.703018,307.20138 107.65039,305.437861 C107.597762,303.678231 94.528425,303.507129 92.1776986,301.733889 C89.825023,299.958704 91.5578553,283.155696 91.5578553,283.155696 L84.5661012,282.296296 Z" id="Fill-15" fill="#FA968C"/>
                        <path d="M92.8787232,304.981755 C89.4846887,304.981755 86.231809,304.231979 83.259132,302.9 C82.3300387,305.87547 82.5217564,308.790787 86.5920696,308.614622 C91.0689928,308.423418 99.7531705,308.129094 101.297446,307.959374 C105.161294,307.544741 109.625576,307.686533 109.568693,305.740124 C109.537091,304.66165 105.184468,304.122413 100.878195,303.525171 C98.3521569,304.451112 95.6638961,304.981755 92.8787232,304.981755 Z" id="Fill-17" fill="url(#linearGradient-6)"/>
                        <path d="M81.9448002,38.1481481 C79.1174107,38.1481481 76.0598402,36.7075156 71.8494467,32.9583526 C69.4325466,30.8042454 67.6390533,27.051173 67.6390533,24.5139396 L67.6390533,10.4907407 L88.8291292,10.4907407 C88.8291292,10.4907407 90.419296,17.9362892 88.8770836,25.3271053 C87.718506,30.8707061 84.1679647,38.1481481 81.9448002,38.1481481" id="Fill-19" fill="#FAB9AF"/>
                        <path d="M8.58276382,34.2060093 C8.46776911,32.8160491 9.49329568,31.5950867 10.8732322,31.4811555 C12.1117817,31.3767186 13.2145998,32.1989219 13.5105698,33.3743118 L13.5199956,33.4084911 C15.5653933,41.5033006 17.884139,49.5069652 20.8608053,57.0207258 C26.9479842,72.614105 32.2716736,74.8433582 34.3246119,76.2219253 C34.5847639,76.2959806 35.6084053,76.6149879 35.8779831,76.5959993 C41.787957,77.9650722 52.1073181,64.9826156 53.9038748,54.9262911 C53.9057599,54.3908146 55.1914385,50.8836335 55.0462812,51.3013811 C56.5732601,46.8903461 61.3634495,44.5604537 65.7445594,46.0985244 C92.3121072,55.4275883 17.9934783,148.376433 8.58276382,34.2060093" id="Fill-21" fill="url(#linearGradient-7)"/>
                        <path d="M52.8290301,132.33233 C60.5740625,141.245129 105.281581,144.962963 105.281581,144.962963 C108.580605,141.123958 93.2056219,97.2908344 93.2056219,97.2908344 C93.2056219,97.2908344 100.611162,65.6555898 100.279342,54.2308967 C100.143161,49.5167683 96.2936611,45.7777778 91.590635,45.7777778 L63.2190352,45.7777778 C58.8478294,45.7777778 55.2073957,49.1224817 54.8468048,53.4923307 C54.1026065,62.5378411 65.8870244,96.302233 65.8870244,96.302233 C65.8870244,96.302233 46.1331638,124.629317 52.8290301,132.33233" id="Fill-23" fill="#FAB9AF"/>
                        <path d="M93.1761228,97.2917588 C93.1761228,97.2917588 100.568323,64.733938 100.245335,53.4998743 C100.122292,49.1897328 96.592492,45.7777778 92.2821376,45.7777778 L88.0659881,45.7777778 C86.4587373,49.5051559 83.055826,52.3824302 77.7649717,52.3824302 C72.4837302,52.3824302 69.0808188,49.5051559 67.4716455,45.7777778 L63.511195,45.7777778 C67.8157817,54.9942875 66.26813,67.1534642 58.8643946,74.2466378 C62.0096844,85.3653028 65.7932604,96.3012532 65.7932604,96.3012532 C65.7932604,96.3012532 44.8893875,127.883955 47.9366273,132.569142 C54.3810108,142.476121 105.28049,144.962963 105.28049,144.962963 C108.587274,140.133527 93.1761228,97.2917588 93.1761228,97.2917588" id="Fill-25" fill="url(#radialGradient-8)"/>
                        <polygon id="Fill-27" fill="#FAB9AF" points="73.3550296 47.6851852 86.6923077 46.2647628 82.4724804 31.4722222 73.8459845 32.554161"/>
                        <path d="M73.6896044,32.5402908 L82.4899369,31.4722222 L83.8343195,36.030906 C81.8653972,38.2108002 79.332767,42.9166667 76.130987,42.9166667 C75.1150961,42.9166667 74.1884251,42.6342351 73.3550296,42.1171069 L73.6896044,32.5402908 Z" id="Fill-29" fill="#FA968C"/>
                        <path d="M143.474475,32.4106575 C145.22197,34.0789936 146.727876,34.9029775 149.463875,32.6532236 C152.19786,30.4053212 155.039757,25.6806249 155.946289,24.3633894 C156.852821,23.0461538 150.263677,24.6684454 149.021505,24 C147.777321,23.3315546 149.590709,19.5935406 148.44316,18.3955235 C147.295611,17.1975063 145.368937,24.3633894 145.368937,24.3633894 C145.368937,24.3633894 141.726979,30.7423214 143.474475,32.4106575 Z" id="Fill-34" fill="#FDDDD7"/>
                        <path d="M11.1054275,23.9368153 C11.1054275,23.9368153 14.6498949,30.947939 12.8052829,32.708247 C10.958603,34.4685549 9.38696051,35.3196045 6.64899384,32.8086066 C3.90895923,30.2956014 -0.496051051,24.8796296 0.738790881,24.1898148 C1.97363281,23.5 5.63465292,24.1884671 6.93125797,23.5 C8.22786303,22.8095257 6.91782743,18.6538843 8.13171446,17.3853386 C9.34766944,16.1188001 11.1054275,23.9368153 11.1054275,23.9368153 L0.738790881,14" id="Fill-36" fill="#FCDED9"/>
                        <path d="M108.650443,72.524762 C116.08491,81.176063 121.763278,76.6260048 128.229518,67.1002879 C130.957641,62.3509712 134.352132,58.3638667 143.447773,32.2610034 L143.459164,32.2261815 C144.461564,29.3475733 148.700881,30.3612767 148.359153,33.3830415 C139.421086,112.850426 97.0886696,100.345504 84.4561509,64.7459423 C83.56766,62.1130218 82.7304282,59.5187922 82.6468948,55.4485021 C82.5462751,50.4960578 86.4039965,46.398684 91.2641179,46.296153 C96.1242392,46.1936219 100.147129,50.1246245 100.24585,55.0770687 C100.316094,58.4431832 103.522635,66.7482 108.650443,72.524762" id="Fill-38" fill="url(#linearGradient-9)"/>
                        <g id="Group-5" transform="translate(45.000000, 0.000000)">
                            <g id="Group-33" transform="translate(19.828402, 0.000000)">
                                <mask id="mask-11" fill="white">
                                    <use xlink:href="#path-10"/>
                                </mask>
                                <g id="Clip-32"/>
                                <path d="M7.35836686,3.85396329 L14.4480828,3.39381185 C16.4753491,3.26122584 18.4092544,2.59049663 20.0706982,1.47521432 C22.4809349,-0.139215309 25.6742604,0.137655473 27.528142,2.39356741 C29.5325444,4.83470979 30.5442722,8.21175342 26.0648521,11.6921361 C23.839432,13.4235534 20.3298225,11.8968645 18.113929,12.8015691 C17.9729349,12.8054686 17.8452781,12.7898703 17.7004734,12.7996193 L11.4090888,13.2110258 C9.20843787,13.3553106 7.80992899,15.3363016 7.80992899,17.5922135 C7.80992899,18.9609691 6.87631953,20.7177337 6.87631953,20.7177337 L3.93640237,17.0014258 L1.17939645,14.7182168 C0.58112426,14.2229691 0.21339645,13.493746 0.165763314,12.7099287 L0.135278107,12.2497773 C-0.135278107,7.89003737 3.09805917,4.13083407 7.35836686,3.85396329" id="Fill-31" fill="url(#linearGradient-12)" mask="url(#mask-11)"/>
                            </g>
                            <path d="M55.2605458,48.5160021 C55.6578954,41.7219123 51.5788237,35.6844239 46.3480142,30.8823987 C42.7219594,27.5533522 40.9943526,22.6421465 41.5567846,17.7558417 L42.2823795,11.4444444 L20.8888483,11.4444444 C20.8888483,16.6870224 18.4548423,21.6748459 14.2087686,24.7644616 C9.43289555,28.2390821 5.46323899,33.2422292 3.07146333,39.4003907 C-2.76592816,54.4174938 2.91213959,70.6911299 15.7271431,76.6098606 C12.348712,90.8109833 18.6487182,105.130864 31.1335568,109.961621 C44.9352157,115.301886 61.0249939,107.02141 67.0716178,91.4641506 C72.1776557,78.3261009 68.4690597,64.222666 58.8770028,56.9382218 C56.2625578,54.9519034 55.0743482,51.7167138 55.2605458,48.5160021 Z" id="Fill-40" fill="#214A81"/>
                        </g>
                    </g>
                </g>
            </g>
        </g>
    </g>
</svg>