<svg xmlns="http://www.w3.org/2000/svg" width="87.295" height="49.341" viewBox="0 0 87.295 49.341">
  <g id="Page-1" transform="translate(0.903 -10)">
    <g id="icon-65-file-gif" transform="translate(-0.903 10)">
      <path id="file-gif" d="M16.413,10A11.386,11.386,0,0,0,5,21.386V47.954A11.386,11.386,0,0,0,16.413,59.341H80.882A11.386,11.386,0,0,0,92.295,47.954V21.386A11.386,11.386,0,0,0,80.882,10ZM35.363,36.568v7.591H27.773a3.8,3.8,0,0,1-3.8-3.8V28.977a3.8,3.8,0,0,1,3.8-3.8H39.159v-3.8H27.773A7.591,7.591,0,0,0,20.182,29V40.341a7.591,7.591,0,0,0,7.591,7.614H39.159V45.108h0V32.773H27.773v3.8ZM46.75,25.182V44.159h-3.8v3.8H54.341v-3.8h-3.8V25.182h3.8v-3.8H42.954v3.8Zm15.182,7.591V25.182H77.113v-3.8H58.136V47.954h3.8V36.568H73.318v-3.8Z" transform="translate(-5 -10)" fill="#fff" fill-rule="evenodd"/>
    </g>
  </g>
</svg>
